<?xml version="1.0" standalone="no"?>
<!DOCTYPE svg PUBLIC "-//W3C//DTD SVG 20010904//EN"
 "http://www.w3.org/TR/2001/REC-SVG-20010904/DTD/svg10.dtd">
<svg version="1.0" xmlns="http://www.w3.org/2000/svg"
 width="600.000000pt" height="400.000000pt" viewBox="0 0 600.000000 400.000000"
 preserveAspectRatio="xMidYMid meet">

<g transform="translate(0.000000,400.000000) scale(0.100000,-0.100000)"
fill="#000000" stroke="none">
<path d="M3221 3889 c-317 -37 -553 -208 -713 -515 l-32 -62 -101 -26 c-55
-15 -142 -47 -194 -72 -78 -38 -109 -61 -176 -128 -52 -51 -91 -102 -109 -138
-26 -54 -31 -58 -81 -73 -114 -33 -233 -113 -345 -231 -112 -119 -175 -229
-208 -363 l-17 -72 -79 -34 c-115 -50 -182 -93 -253 -161 -109 -107 -102 -52
-102 -793 0 -761 -8 -707 118 -831 156 -154 372 -225 726 -237 346 -12 616 45
800 168 136 91 193 179 206 319 10 109 -2 100 199 149 108 27 250 96 317 156
29 26 69 74 89 108 20 34 41 65 48 69 20 13 69 9 121 -11 116 -44 312 -51 451
-16 81 21 209 85 270 137 28 24 80 74 114 111 35 37 71 72 81 77 10 6 68 25
131 44 309 94 491 233 606 461 135 272 135 648 -2 930 -105 216 -268 357 -501
434 -96 31 -251 61 -320 61 l-42 0 -53 89 c-163 277 -383 418 -701 451 -113
11 -142 11 -248 -1z m386 -58 c99 -25 190 -65 270 -119 87 -59 201 -185 253
-280 25 -46 50 -89 55 -97 7 -9 46 -18 115 -25 453 -48 721 -265 822 -667 32
-125 31 -390 0 -507 -86 -314 -321 -518 -705 -611 -56 -14 -104 -28 -107 -32
-4 -5 -28 -36 -53 -70 -85 -112 -197 -193 -332 -239 -65 -22 -103 -28 -205
-31 -185 -7 -299 22 -403 101 -26 20 -49 36 -52 36 -3 0 -5 -35 -5 -78 0 -71
-3 -83 -28 -118 -98 -135 -309 -236 -544 -260 l-68 -6 0 -128 0 -127 -35 -45
c-117 -154 -326 -253 -600 -287 -132 -16 -419 -14 -542 5 -259 38 -444 128
-548 265 l-40 53 1 210 c0 116 1 223 1 239 0 46 0 426 0 445 0 9 0 109 -1 222
l-1 206 38 51 c64 87 187 170 327 219 l65 23 7 54 c21 163 153 366 321 493 73
55 191 114 244 121 35 5 40 10 66 67 75 166 279 304 514 349 l65 12 44 86
c135 270 343 431 627 485 101 19 327 11 434 -15z"/>
<path d="M3179 3704 c-269 -58 -490 -255 -574 -512 l-17 -52 -48 0 c-69 0
-191 -34 -273 -77 -98 -52 -211 -164 -267 -265 -30 -57 -47 -78 -62 -78 -40 0
-175 -53 -245 -96 -140 -87 -256 -254 -270 -388 l-6 -57 39 7 c52 9 51 8 57
55 16 119 136 268 268 333 75 36 173 66 219 66 21 0 30 10 58 73 94 209 288
337 512 337 l90 0 5 28 c48 225 186 400 391 493 202 92 433 83 638 -24 154
-80 288 -247 331 -412 8 -32 17 -60 19 -62 3 -3 28 0 56 6 138 30 320 4 460
-66 113 -57 244 -189 298 -303 52 -108 72 -191 72 -306 0 -266 -145 -498 -385
-615 -98 -47 -177 -68 -280 -73 l-79 -4 -42 -65 c-168 -259 -474 -345 -731
-207 -50 26 -54 27 -110 16 l-58 -12 65 -44 c36 -24 99 -57 140 -74 64 -25 93
-30 190 -34 137 -5 207 10 320 69 93 48 164 109 231 200 50 66 53 69 94 69
108 0 268 51 375 121 300 193 431 559 320 891 -70 209 -199 357 -395 454 -129
63 -187 76 -345 80 l-134 2 -27 67 c-93 229 -310 408 -559 460 -88 19 -253 18
-341 -1z"/>
<path d="M2257 2405 c-167 -28 -311 -88 -367 -152 -17 -19 -30 -38 -30 -43 0
-23 54 -8 93 25 96 82 291 129 537 129 188 0 296 -17 423 -66 102 -39 173
-102 163 -145 -4 -15 -25 -45 -47 -65 -68 -62 -208 -106 -421 -133 l-48 -6 25
-37 c22 -33 25 -47 25 -135 l0 -98 53 7 c160 19 278 56 361 114 37 25 47 28
52 16 10 -25 -24 -72 -75 -106 -68 -43 -169 -77 -290 -97 l-99 -16 -6 -56 c-8
-76 -8 -88 0 -153 l6 -58 42 0 c109 0 299 59 372 115 18 14 38 25 44 25 19 0
2 -51 -27 -82 -54 -57 -227 -120 -369 -134 l-64 -7 0 -73 c0 -40 -5 -85 -11
-101 -8 -21 -7 -38 2 -66 l12 -37 51 6 c216 26 358 86 435 183 l32 40 -5 153
c-5 185 -5 151 0 335 4 104 1 159 -6 174 -9 15 -9 24 -1 32 18 18 14 291 -4
326 -42 82 -195 153 -399 186 -111 18 -351 18 -459 0z"/>
<path d="M1615 2083 c-304 -25 -551 -120 -611 -234 -18 -36 -21 -358 -3 -376
9 -9 9 -19 0 -41 -8 -20 -11 -81 -7 -203 5 -209 5 -166 0 -385 l-5 -180 31
-39 c121 -152 350 -225 710 -225 370 0 616 81 720 238 30 45 30 46 30 189 0
106 -4 153 -15 180 -14 32 -14 39 0 59 21 33 22 299 0 350 -13 32 -13 39 0 64
23 45 21 301 -4 355 -56 125 -272 215 -581 244 -110 10 -178 12 -265 4z m428
-93 c185 -39 321 -107 354 -175 16 -33 16 -37 0 -70 -49 -102 -304 -189 -592
-202 -296 -13 -590 54 -703 161 -47 44 -56 70 -36 111 40 84 224 162 464 195
110 15 401 4 513 -20z m-836 -683 c127 -57 311 -87 532 -87 276 0 515 59 629
155 27 23 33 24 38 11 10 -26 -15 -74 -55 -105 -242 -190 -928 -203 -1208 -22
-60 39 -101 96 -89 127 4 11 15 7 48 -18 24 -18 71 -46 105 -61z m-113 -346
c27 -30 152 -88 238 -110 126 -32 265 -44 462 -38 264 7 434 48 552 132 55 39
64 42 64 20 0 -62 -101 -138 -245 -184 -266 -86 -664 -80 -910 13 -119 45
-205 118 -205 175 0 17 25 13 44 -8z"/>
</g>
</svg>
