<svg width="68" height="101" viewBox="0 0 68 101" fill="none" xmlns="http://www.w3.org/2000/svg">
<path d="M9.35869 27.3654L9.35869 27.8654H9.35869V27.3654ZM9.35869 11.5462V11.0462H9.35869L9.35869 11.5462ZM37.2109 8.79045L36.7547 8.99518L37.2109 8.79045ZM37.7963 10.0545L38.2285 9.80312L37.7963 10.0545ZM40.0752 11.5296L40.0228 12.0269L40.0752 11.5296ZM10.2805 11.5296L10.3328 12.0269L10.2805 11.5296ZM12.5595 10.0544L12.1273 9.80305L12.5595 10.0544ZM9.35869 27.8654C9.35869 27.8654 9.35869 27.8654 9.35869 27.8654C9.35869 27.8654 9.35869 27.8654 9.35869 27.8654C9.35869 27.8654 9.35869 27.8654 9.35869 27.8654H9.3587C9.3587 27.8654 9.3587 27.8654 9.3587 27.8654H9.3587C9.3587 27.8654 9.3587 27.8654 9.3587 27.8654H9.3587C9.3587 27.8654 9.3587 27.8654 9.3587 27.8654C9.3587 27.8654 9.3587 27.8654 9.3587 27.8654H9.3587C9.3587 27.8654 9.3587 27.8654 9.3587 27.8654H9.3587C9.3587 27.8654 9.3587 27.8654 9.3587 27.8654H9.3587C9.3587 27.8654 9.3587 27.8654 9.3587 27.8654C9.3587 27.8654 9.3587 27.8654 9.3587 27.8654C9.3587 27.8654 9.3587 27.8654 9.3587 27.8654C9.3587 27.8654 9.3587 27.8654 9.3587 27.8654C9.3587 27.8654 9.3587 27.8654 9.3587 27.8654C9.3587 27.8654 9.3587 27.8654 9.3587 27.8654H9.3587C9.3587 27.8654 9.3587 27.8654 9.3587 27.8654H9.3587C9.35871 27.8654 9.35871 27.8654 9.35871 27.8654H9.35871C9.35871 27.8654 9.35871 27.8654 9.35871 27.8654C9.35871 27.8654 9.35871 27.8654 9.35871 27.8654H9.35871C9.35871 27.8654 9.35871 27.8654 9.35871 27.8654H9.35871C9.35871 27.8654 9.35871 27.8654 9.35871 27.8654H9.35871C9.35871 27.8654 9.35871 27.8654 9.35871 27.8654C9.35871 27.8654 9.35871 27.8654 9.35871 27.8654C9.35871 27.8654 9.35871 27.8654 9.35871 27.8654C9.35871 27.8654 9.35871 27.8654 9.35871 27.8654C9.35871 27.8654 9.35871 27.8654 9.35871 27.8654C9.35871 27.8654 9.35871 27.8654 9.35871 27.8654H9.35871C9.35871 27.8654 9.35871 27.8654 9.35871 27.8654H9.35871C9.35871 27.8654 9.35871 27.8654 9.35871 27.8654H9.35871C9.35871 27.8654 9.35871 27.8654 9.35871 27.8654C9.35871 27.8654 9.35871 27.8654 9.35872 27.8654H9.35872C9.35872 27.8654 9.35872 27.8654 9.35872 27.8654H9.35872C9.35872 27.8654 9.35872 27.8654 9.35872 27.8654H9.35872C9.35872 27.8654 9.35872 27.8654 9.35872 27.8654C9.35872 27.8654 9.35872 27.8654 9.35872 27.8654C9.35872 27.8654 9.35872 27.8654 9.35872 27.8654C9.35872 27.8654 9.35872 27.8654 9.35872 27.8654C9.35872 27.8654 9.35872 27.8654 9.35872 27.8654C9.35872 27.8654 9.35872 27.8654 9.35872 27.8654H9.35872C9.35872 27.8654 9.35872 27.8654 9.35872 27.8654H9.35872C9.35872 27.8654 9.35872 27.8654 9.35872 27.8654H9.35872C9.35872 27.8654 9.35872 27.8654 9.35872 27.8654C9.35872 27.8654 9.35872 27.8654 9.35872 27.8654H9.35872C9.35872 27.8654 9.35872 27.8654 9.35872 27.8654H9.35873C9.35873 27.8654 9.35873 27.8654 9.35873 27.8654H9.35873C9.35873 27.8654 9.35873 27.8654 9.35873 27.8654C9.35873 27.8654 9.35873 27.8654 9.35873 27.8654C9.35873 27.8654 9.35873 27.8654 9.35873 27.8654C9.35873 27.8654 9.35873 27.8654 9.35873 27.8654C9.35873 27.8654 9.35873 27.8654 9.35873 27.8654C9.35873 27.8654 9.35873 27.8654 9.35873 27.8654H9.35873C9.35873 27.8654 9.35873 27.8654 9.35873 27.8654H9.35873C9.35873 27.8654 9.35873 27.8654 9.35873 27.8654H9.35873C9.35873 27.8654 9.35873 27.8654 9.35873 27.8654C9.35873 27.8654 9.35873 27.8654 9.35873 27.8654H9.35873C9.35873 27.8654 9.35873 27.8654 9.35873 27.8654H9.35873C9.35873 27.8654 9.35873 27.8654 9.35873 27.8654H9.35873C9.35874 27.8654 9.35874 27.8654 9.35874 27.8654C9.35874 27.8654 9.35874 27.8654 9.35874 27.8654C9.35874 27.8654 9.35874 27.8654 9.35874 27.8654C9.35874 27.8654 9.35874 27.8654 9.35874 27.8654C9.35874 27.8654 9.35874 27.8654 9.35874 27.8654C9.35874 27.8654 9.35874 27.8654 9.35874 27.8654H9.35874C9.35874 27.8654 9.35874 27.8654 9.35874 27.8654H9.35874C9.35874 27.8654 9.35874 27.8654 9.35874 27.8654H9.35874C9.35874 27.8654 9.35874 27.8654 9.35874 27.8654C9.35874 27.8654 9.35874 27.8654 9.35874 27.8654H9.35874C9.35874 27.8654 9.35874 27.8654 9.35874 27.8654H9.35874C9.35874 27.8654 9.35874 27.8654 9.35874 27.8654H9.35874C9.35874 27.8654 9.35874 27.8654 9.35874 27.8654C9.35874 27.8654 9.35874 27.8654 9.35874 27.8654C9.35874 27.8654 9.35874 27.8654 9.35874 27.8654C9.35874 27.8654 9.35874 27.8654 9.35875 27.8654C9.35875 27.8654 9.35875 27.8654 9.35875 27.8654C9.35875 27.8654 9.35875 27.8654 9.35875 27.8654H9.35875C9.35875 27.8654 9.35875 27.8654 9.35875 27.8654H9.35875C9.35875 27.8654 9.35875 27.8654 9.35875 27.8654H9.35875C9.35875 27.8654 9.35875 27.8654 9.35875 27.8654C9.35875 27.8654 9.35875 27.8654 9.35875 27.8654H9.35875C9.35875 27.8654 9.35875 27.8654 9.35875 27.8654H9.35875C9.35875 27.8654 9.35875 27.8654 9.35875 27.8654H9.35875C9.35875 27.8654 9.35875 27.8654 9.35875 27.8654C9.35875 27.8654 9.35875 27.8654 9.35875 27.8654C9.35875 27.8654 9.35875 27.8654 9.35875 27.8654C9.35875 27.8654 9.35875 27.8654 9.35875 27.8654C9.35875 27.8654 9.35875 27.8654 9.35875 27.8654C9.35875 27.8654 9.35875 27.8654 9.35875 27.8654H9.35876C9.35876 27.8654 9.35876 27.8654 9.35876 27.8654H9.35876C9.35876 27.8654 9.35876 27.8654 9.35876 27.8654H9.35876C9.35876 27.8654 9.35876 27.8654 9.35876 27.8654C9.35876 27.8654 9.35876 27.8654 9.35876 27.8654H9.35876C9.35876 27.8654 9.35876 27.8654 9.35876 27.8654H9.35876C9.35876 27.8654 9.35876 27.8654 9.35876 27.8654H9.35876C9.35876 27.8654 9.35876 27.8654 9.35876 27.8654C9.35876 27.8654 9.35876 27.8654 9.35876 27.8654C9.35876 27.8654 9.35876 27.8654 9.35876 27.8654V26.8654C9.35876 26.8654 9.35876 26.8654 9.35876 26.8654C9.35876 26.8654 9.35876 26.8654 9.35876 26.8654C9.35876 26.8654 9.35876 26.8654 9.35876 26.8654H9.35876C9.35876 26.8654 9.35876 26.8654 9.35876 26.8654H9.35876C9.35876 26.8654 9.35876 26.8654 9.35876 26.8654H9.35876C9.35876 26.8654 9.35876 26.8654 9.35876 26.8654C9.35876 26.8654 9.35876 26.8654 9.35876 26.8654H9.35876C9.35876 26.8654 9.35876 26.8654 9.35876 26.8654H9.35876C9.35876 26.8654 9.35876 26.8654 9.35876 26.8654H9.35875C9.35875 26.8654 9.35875 26.8654 9.35875 26.8654C9.35875 26.8654 9.35875 26.8654 9.35875 26.8654C9.35875 26.8654 9.35875 26.8654 9.35875 26.8654C9.35875 26.8654 9.35875 26.8654 9.35875 26.8654C9.35875 26.8654 9.35875 26.8654 9.35875 26.8654C9.35875 26.8654 9.35875 26.8654 9.35875 26.8654H9.35875C9.35875 26.8654 9.35875 26.8654 9.35875 26.8654H9.35875C9.35875 26.8654 9.35875 26.8654 9.35875 26.8654H9.35875C9.35875 26.8654 9.35875 26.8654 9.35875 26.8654C9.35875 26.8654 9.35875 26.8654 9.35875 26.8654H9.35875C9.35875 26.8654 9.35875 26.8654 9.35875 26.8654H9.35875C9.35875 26.8654 9.35875 26.8654 9.35875 26.8654H9.35875C9.35875 26.8654 9.35875 26.8654 9.35875 26.8654C9.35875 26.8654 9.35875 26.8654 9.35875 26.8654C9.35874 26.8654 9.35874 26.8654 9.35874 26.8654C9.35874 26.8654 9.35874 26.8654 9.35874 26.8654C9.35874 26.8654 9.35874 26.8654 9.35874 26.8654C9.35874 26.8654 9.35874 26.8654 9.35874 26.8654H9.35874C9.35874 26.8654 9.35874 26.8654 9.35874 26.8654H9.35874C9.35874 26.8654 9.35874 26.8654 9.35874 26.8654H9.35874C9.35874 26.8654 9.35874 26.8654 9.35874 26.8654C9.35874 26.8654 9.35874 26.8654 9.35874 26.8654H9.35874C9.35874 26.8654 9.35874 26.8654 9.35874 26.8654H9.35874C9.35874 26.8654 9.35874 26.8654 9.35874 26.8654H9.35874C9.35874 26.8654 9.35874 26.8654 9.35874 26.8654C9.35874 26.8654 9.35874 26.8654 9.35874 26.8654C9.35874 26.8654 9.35874 26.8654 9.35874 26.8654C9.35874 26.8654 9.35874 26.8654 9.35874 26.8654C9.35874 26.8654 9.35874 26.8654 9.35874 26.8654C9.35874 26.8654 9.35874 26.8654 9.35873 26.8654H9.35873C9.35873 26.8654 9.35873 26.8654 9.35873 26.8654H9.35873C9.35873 26.8654 9.35873 26.8654 9.35873 26.8654H9.35873C9.35873 26.8654 9.35873 26.8654 9.35873 26.8654C9.35873 26.8654 9.35873 26.8654 9.35873 26.8654H9.35873C9.35873 26.8654 9.35873 26.8654 9.35873 26.8654H9.35873C9.35873 26.8654 9.35873 26.8654 9.35873 26.8654H9.35873C9.35873 26.8654 9.35873 26.8654 9.35873 26.8654C9.35873 26.8654 9.35873 26.8654 9.35873 26.8654C9.35873 26.8654 9.35873 26.8654 9.35873 26.8654C9.35873 26.8654 9.35873 26.8654 9.35873 26.8654C9.35873 26.8654 9.35873 26.8654 9.35873 26.8654C9.35873 26.8654 9.35873 26.8654 9.35873 26.8654H9.35873C9.35873 26.8654 9.35873 26.8654 9.35873 26.8654H9.35872C9.35872 26.8654 9.35872 26.8654 9.35872 26.8654H9.35872C9.35872 26.8654 9.35872 26.8654 9.35872 26.8654C9.35872 26.8654 9.35872 26.8654 9.35872 26.8654H9.35872C9.35872 26.8654 9.35872 26.8654 9.35872 26.8654H9.35872C9.35872 26.8654 9.35872 26.8654 9.35872 26.8654H9.35872C9.35872 26.8654 9.35872 26.8654 9.35872 26.8654C9.35872 26.8654 9.35872 26.8654 9.35872 26.8654C9.35872 26.8654 9.35872 26.8654 9.35872 26.8654C9.35872 26.8654 9.35872 26.8654 9.35872 26.8654C9.35872 26.8654 9.35872 26.8654 9.35872 26.8654C9.35872 26.8654 9.35872 26.8654 9.35872 26.8654H9.35872C9.35872 26.8654 9.35872 26.8654 9.35872 26.8654H9.35872C9.35872 26.8654 9.35872 26.8654 9.35872 26.8654H9.35872C9.35871 26.8654 9.35871 26.8654 9.35871 26.8654C9.35871 26.8654 9.35871 26.8654 9.35871 26.8654H9.35871C9.35871 26.8654 9.35871 26.8654 9.35871 26.8654H9.35871C9.35871 26.8654 9.35871 26.8654 9.35871 26.8654H9.35871C9.35871 26.8654 9.35871 26.8654 9.35871 26.8654C9.35871 26.8654 9.35871 26.8654 9.35871 26.8654C9.35871 26.8654 9.35871 26.8654 9.35871 26.8654C9.35871 26.8654 9.35871 26.8654 9.35871 26.8654C9.35871 26.8654 9.35871 26.8654 9.35871 26.8654C9.35871 26.8654 9.35871 26.8654 9.35871 26.8654H9.35871C9.35871 26.8654 9.35871 26.8654 9.35871 26.8654H9.35871C9.35871 26.8654 9.35871 26.8654 9.35871 26.8654H9.35871C9.35871 26.8654 9.35871 26.8654 9.35871 26.8654C9.35871 26.8654 9.35871 26.8654 9.35871 26.8654H9.35871C9.35871 26.8654 9.35871 26.8654 9.3587 26.8654H9.3587C9.3587 26.8654 9.3587 26.8654 9.3587 26.8654H9.3587C9.3587 26.8654 9.3587 26.8654 9.3587 26.8654C9.3587 26.8654 9.3587 26.8654 9.3587 26.8654C9.3587 26.8654 9.3587 26.8654 9.3587 26.8654C9.3587 26.8654 9.3587 26.8654 9.3587 26.8654C9.3587 26.8654 9.3587 26.8654 9.3587 26.8654C9.3587 26.8654 9.3587 26.8654 9.3587 26.8654H9.3587C9.3587 26.8654 9.3587 26.8654 9.3587 26.8654H9.3587C9.3587 26.8654 9.3587 26.8654 9.3587 26.8654H9.3587C9.3587 26.8654 9.3587 26.8654 9.3587 26.8654C9.3587 26.8654 9.3587 26.8654 9.3587 26.8654H9.3587C9.3587 26.8654 9.3587 26.8654 9.3587 26.8654H9.3587C9.3587 26.8654 9.3587 26.8654 9.3587 26.8654H9.35869C9.35869 26.8654 9.35869 26.8654 9.35869 26.8654C9.35869 26.8654 9.35869 26.8654 9.35869 26.8654C9.35869 26.8654 9.35869 26.8654 9.35869 26.8654V27.8654ZM0.949158 19.4558C0.949158 24.1002 4.71423 27.8653 9.35869 27.8654L9.3587 26.8654C5.26652 26.8653 1.94916 23.5479 1.94916 19.4558H0.949158ZM9.35869 11.0462C4.71423 11.0462 0.949158 14.8113 0.949158 19.4558H1.94916C1.94916 15.3636 5.26652 12.0462 9.3587 12.0462L9.35869 11.0462ZM9.35876 11.0462C9.35876 11.0462 9.35876 11.0462 9.35876 11.0462C9.35876 11.0462 9.35876 11.0462 9.35876 11.0462C9.35876 11.0462 9.35876 11.0462 9.35876 11.0462H9.35876C9.35876 11.0462 9.35876 11.0462 9.35876 11.0462H9.35876C9.35876 11.0462 9.35876 11.0462 9.35876 11.0462H9.35876C9.35876 11.0462 9.35876 11.0462 9.35876 11.0462C9.35876 11.0462 9.35876 11.0462 9.35876 11.0462H9.35876C9.35876 11.0462 9.35876 11.0462 9.35876 11.0462H9.35876C9.35876 11.0462 9.35876 11.0462 9.35876 11.0462H9.35875C9.35875 11.0462 9.35875 11.0462 9.35875 11.0462C9.35875 11.0462 9.35875 11.0462 9.35875 11.0462C9.35875 11.0462 9.35875 11.0462 9.35875 11.0462C9.35875 11.0462 9.35875 11.0462 9.35875 11.0462C9.35875 11.0462 9.35875 11.0462 9.35875 11.0462C9.35875 11.0462 9.35875 11.0462 9.35875 11.0462H9.35875C9.35875 11.0462 9.35875 11.0462 9.35875 11.0462H9.35875C9.35875 11.0462 9.35875 11.0462 9.35875 11.0462H9.35875C9.35875 11.0462 9.35875 11.0462 9.35875 11.0462C9.35875 11.0462 9.35875 11.0462 9.35875 11.0462H9.35875C9.35875 11.0462 9.35875 11.0462 9.35875 11.0462H9.35875C9.35875 11.0462 9.35875 11.0462 9.35875 11.0462H9.35875C9.35875 11.0462 9.35875 11.0462 9.35875 11.0462C9.35875 11.0462 9.35875 11.0462 9.35875 11.0462C9.35874 11.0462 9.35874 11.0462 9.35874 11.0462C9.35874 11.0462 9.35874 11.0462 9.35874 11.0462C9.35874 11.0462 9.35874 11.0462 9.35874 11.0462C9.35874 11.0462 9.35874 11.0462 9.35874 11.0462H9.35874C9.35874 11.0462 9.35874 11.0462 9.35874 11.0462H9.35874C9.35874 11.0462 9.35874 11.0462 9.35874 11.0462H9.35874C9.35874 11.0462 9.35874 11.0462 9.35874 11.0462C9.35874 11.0462 9.35874 11.0462 9.35874 11.0462H9.35874C9.35874 11.0462 9.35874 11.0462 9.35874 11.0462H9.35874C9.35874 11.0462 9.35874 11.0462 9.35874 11.0462H9.35874C9.35874 11.0462 9.35874 11.0462 9.35874 11.0462C9.35874 11.0462 9.35874 11.0462 9.35874 11.0462C9.35874 11.0462 9.35874 11.0462 9.35874 11.0462C9.35874 11.0462 9.35874 11.0462 9.35874 11.0462C9.35874 11.0462 9.35874 11.0462 9.35874 11.0462C9.35874 11.0462 9.35874 11.0462 9.35873 11.0462H9.35873C9.35873 11.0462 9.35873 11.0462 9.35873 11.0462H9.35873C9.35873 11.0462 9.35873 11.0462 9.35873 11.0462H9.35873C9.35873 11.0462 9.35873 11.0462 9.35873 11.0462C9.35873 11.0462 9.35873 11.0462 9.35873 11.0462H9.35873C9.35873 11.0462 9.35873 11.0462 9.35873 11.0462H9.35873C9.35873 11.0462 9.35873 11.0462 9.35873 11.0462H9.35873C9.35873 11.0462 9.35873 11.0462 9.35873 11.0462C9.35873 11.0462 9.35873 11.0462 9.35873 11.0462C9.35873 11.0462 9.35873 11.0462 9.35873 11.0462C9.35873 11.0462 9.35873 11.0462 9.35873 11.0462C9.35873 11.0462 9.35873 11.0462 9.35873 11.0462C9.35873 11.0462 9.35873 11.0462 9.35873 11.0462H9.35873C9.35873 11.0462 9.35873 11.0462 9.35873 11.0462H9.35872C9.35872 11.0462 9.35872 11.0462 9.35872 11.0462H9.35872C9.35872 11.0462 9.35872 11.0462 9.35872 11.0462C9.35872 11.0462 9.35872 11.0462 9.35872 11.0462H9.35872C9.35872 11.0462 9.35872 11.0462 9.35872 11.0462H9.35872C9.35872 11.0462 9.35872 11.0462 9.35872 11.0462H9.35872C9.35872 11.0462 9.35872 11.0462 9.35872 11.0462C9.35872 11.0462 9.35872 11.0462 9.35872 11.0462C9.35872 11.0462 9.35872 11.0462 9.35872 11.0462C9.35872 11.0462 9.35872 11.0462 9.35872 11.0462C9.35872 11.0462 9.35872 11.0462 9.35872 11.0462C9.35872 11.0462 9.35872 11.0462 9.35872 11.0462H9.35872C9.35872 11.0462 9.35872 11.0462 9.35872 11.0462H9.35872C9.35872 11.0462 9.35872 11.0462 9.35872 11.0462H9.35872C9.35871 11.0462 9.35871 11.0462 9.35871 11.0462C9.35871 11.0462 9.35871 11.0462 9.35871 11.0462H9.35871C9.35871 11.0462 9.35871 11.0462 9.35871 11.0462H9.35871C9.35871 11.0462 9.35871 11.0462 9.35871 11.0462H9.35871C9.35871 11.0462 9.35871 11.0462 9.35871 11.0462C9.35871 11.0462 9.35871 11.0462 9.35871 11.0462C9.35871 11.0462 9.35871 11.0462 9.35871 11.0462C9.35871 11.0462 9.35871 11.0462 9.35871 11.0462C9.35871 11.0462 9.35871 11.0462 9.35871 11.0462C9.35871 11.0462 9.35871 11.0462 9.35871 11.0462H9.35871C9.35871 11.0462 9.35871 11.0462 9.35871 11.0462H9.35871C9.35871 11.0462 9.35871 11.0462 9.35871 11.0462H9.35871C9.35871 11.0462 9.35871 11.0462 9.35871 11.0462C9.35871 11.0462 9.35871 11.0462 9.35871 11.0462H9.35871C9.35871 11.0462 9.35871 11.0462 9.3587 11.0462H9.3587C9.3587 11.0462 9.3587 11.0462 9.3587 11.0462H9.3587C9.3587 11.0462 9.3587 11.0462 9.3587 11.0462C9.3587 11.0462 9.3587 11.0462 9.3587 11.0462C9.3587 11.0462 9.3587 11.0462 9.3587 11.0462C9.3587 11.0462 9.3587 11.0462 9.3587 11.0462C9.3587 11.0462 9.3587 11.0462 9.3587 11.0462C9.3587 11.0462 9.3587 11.0462 9.3587 11.0462H9.3587C9.3587 11.0462 9.3587 11.0462 9.3587 11.0462H9.3587C9.3587 11.0462 9.3587 11.0462 9.3587 11.0462H9.3587C9.3587 11.0462 9.3587 11.0462 9.3587 11.0462C9.3587 11.0462 9.3587 11.0462 9.3587 11.0462H9.3587C9.3587 11.0462 9.3587 11.0462 9.3587 11.0462H9.3587C9.3587 11.0462 9.3587 11.0462 9.3587 11.0462H9.35869C9.35869 11.0462 9.35869 11.0462 9.35869 11.0462C9.35869 11.0462 9.35869 11.0462 9.35869 11.0462C9.35869 11.0462 9.35869 11.0462 9.35869 11.0462V12.0462C9.35869 12.0462 9.35869 12.0462 9.35869 12.0462C9.35869 12.0462 9.35869 12.0462 9.35869 12.0462C9.35869 12.0462 9.35869 12.0462 9.35869 12.0462H9.3587C9.3587 12.0462 9.3587 12.0462 9.3587 12.0462H9.3587C9.3587 12.0462 9.3587 12.0462 9.3587 12.0462H9.3587C9.3587 12.0462 9.3587 12.0462 9.3587 12.0462C9.3587 12.0462 9.3587 12.0462 9.3587 12.0462H9.3587C9.3587 12.0462 9.3587 12.0462 9.3587 12.0462H9.3587C9.3587 12.0462 9.3587 12.0462 9.3587 12.0462H9.3587C9.3587 12.0462 9.3587 12.0462 9.3587 12.0462C9.3587 12.0462 9.3587 12.0462 9.3587 12.0462C9.3587 12.0462 9.3587 12.0462 9.3587 12.0462C9.3587 12.0462 9.3587 12.0462 9.3587 12.0462C9.3587 12.0462 9.3587 12.0462 9.3587 12.0462C9.3587 12.0462 9.3587 12.0462 9.3587 12.0462H9.3587C9.3587 12.0462 9.3587 12.0462 9.3587 12.0462H9.3587C9.35871 12.0462 9.35871 12.0462 9.35871 12.0462H9.35871C9.35871 12.0462 9.35871 12.0462 9.35871 12.0462C9.35871 12.0462 9.35871 12.0462 9.35871 12.0462H9.35871C9.35871 12.0462 9.35871 12.0462 9.35871 12.0462H9.35871C9.35871 12.0462 9.35871 12.0462 9.35871 12.0462H9.35871C9.35871 12.0462 9.35871 12.0462 9.35871 12.0462C9.35871 12.0462 9.35871 12.0462 9.35871 12.0462C9.35871 12.0462 9.35871 12.0462 9.35871 12.0462C9.35871 12.0462 9.35871 12.0462 9.35871 12.0462C9.35871 12.0462 9.35871 12.0462 9.35871 12.0462C9.35871 12.0462 9.35871 12.0462 9.35871 12.0462H9.35871C9.35871 12.0462 9.35871 12.0462 9.35871 12.0462H9.35871C9.35871 12.0462 9.35871 12.0462 9.35871 12.0462H9.35871C9.35871 12.0462 9.35871 12.0462 9.35871 12.0462C9.35871 12.0462 9.35871 12.0462 9.35872 12.0462H9.35872C9.35872 12.0462 9.35872 12.0462 9.35872 12.0462H9.35872C9.35872 12.0462 9.35872 12.0462 9.35872 12.0462H9.35872C9.35872 12.0462 9.35872 12.0462 9.35872 12.0462C9.35872 12.0462 9.35872 12.0462 9.35872 12.0462C9.35872 12.0462 9.35872 12.0462 9.35872 12.0462C9.35872 12.0462 9.35872 12.0462 9.35872 12.0462C9.35872 12.0462 9.35872 12.0462 9.35872 12.0462C9.35872 12.0462 9.35872 12.0462 9.35872 12.0462H9.35872C9.35872 12.0462 9.35872 12.0462 9.35872 12.0462H9.35872C9.35872 12.0462 9.35872 12.0462 9.35872 12.0462H9.35872C9.35872 12.0462 9.35872 12.0462 9.35872 12.0462C9.35872 12.0462 9.35872 12.0462 9.35872 12.0462H9.35872C9.35872 12.0462 9.35872 12.0462 9.35872 12.0462H9.35873C9.35873 12.0462 9.35873 12.0462 9.35873 12.0462H9.35873C9.35873 12.0462 9.35873 12.0462 9.35873 12.0462C9.35873 12.0462 9.35873 12.0462 9.35873 12.0462C9.35873 12.0462 9.35873 12.0462 9.35873 12.0462C9.35873 12.0462 9.35873 12.0462 9.35873 12.0462C9.35873 12.0462 9.35873 12.0462 9.35873 12.0462C9.35873 12.0462 9.35873 12.0462 9.35873 12.0462H9.35873C9.35873 12.0462 9.35873 12.0462 9.35873 12.0462H9.35873C9.35873 12.0462 9.35873 12.0462 9.35873 12.0462H9.35873C9.35873 12.0462 9.35873 12.0462 9.35873 12.0462C9.35873 12.0462 9.35873 12.0462 9.35873 12.0462H9.35873C9.35873 12.0462 9.35873 12.0462 9.35873 12.0462H9.35873C9.35873 12.0462 9.35873 12.0462 9.35873 12.0462H9.35873C9.35874 12.0462 9.35874 12.0462 9.35874 12.0462C9.35874 12.0462 9.35874 12.0462 9.35874 12.0462C9.35874 12.0462 9.35874 12.0462 9.35874 12.0462C9.35874 12.0462 9.35874 12.0462 9.35874 12.0462C9.35874 12.0462 9.35874 12.0462 9.35874 12.0462C9.35874 12.0462 9.35874 12.0462 9.35874 12.0462H9.35874C9.35874 12.0462 9.35874 12.0462 9.35874 12.0462H9.35874C9.35874 12.0462 9.35874 12.0462 9.35874 12.0462H9.35874C9.35874 12.0462 9.35874 12.0462 9.35874 12.0462C9.35874 12.0462 9.35874 12.0462 9.35874 12.0462H9.35874C9.35874 12.0462 9.35874 12.0462 9.35874 12.0462H9.35874C9.35874 12.0462 9.35874 12.0462 9.35874 12.0462H9.35874C9.35874 12.0462 9.35874 12.0462 9.35874 12.0462C9.35874 12.0462 9.35874 12.0462 9.35874 12.0462C9.35874 12.0462 9.35874 12.0462 9.35874 12.0462C9.35874 12.0462 9.35874 12.0462 9.35875 12.0462C9.35875 12.0462 9.35875 12.0462 9.35875 12.0462C9.35875 12.0462 9.35875 12.0462 9.35875 12.0462H9.35875C9.35875 12.0462 9.35875 12.0462 9.35875 12.0462H9.35875C9.35875 12.0462 9.35875 12.0462 9.35875 12.0462H9.35875C9.35875 12.0462 9.35875 12.0462 9.35875 12.0462C9.35875 12.0462 9.35875 12.0462 9.35875 12.0462H9.35875C9.35875 12.0462 9.35875 12.0462 9.35875 12.0462H9.35875C9.35875 12.0462 9.35875 12.0462 9.35875 12.0462H9.35875C9.35875 12.0462 9.35875 12.0462 9.35875 12.0462C9.35875 12.0462 9.35875 12.0462 9.35875 12.0462C9.35875 12.0462 9.35875 12.0462 9.35875 12.0462C9.35875 12.0462 9.35875 12.0462 9.35875 12.0462C9.35875 12.0462 9.35875 12.0462 9.35875 12.0462C9.35875 12.0462 9.35875 12.0462 9.35875 12.0462H9.35876C9.35876 12.0462 9.35876 12.0462 9.35876 12.0462H9.35876C9.35876 12.0462 9.35876 12.0462 9.35876 12.0462H9.35876C9.35876 12.0462 9.35876 12.0462 9.35876 12.0462C9.35876 12.0462 9.35876 12.0462 9.35876 12.0462H9.35876C9.35876 12.0462 9.35876 12.0462 9.35876 12.0462H9.35876C9.35876 12.0462 9.35876 12.0462 9.35876 12.0462H9.35876C9.35876 12.0462 9.35876 12.0462 9.35876 12.0462C9.35876 12.0462 9.35876 12.0462 9.35876 12.0462C9.35876 12.0462 9.35876 12.0462 9.35876 12.0462V11.0462ZM25.1779 0.5C19.6143 0.5 14.8273 3.82054 12.6887 8.58581L13.601 8.99527C15.5843 4.57617 20.0224 1.5 25.1779 1.5V0.5ZM37.667 8.58571C35.5284 3.8205 30.7414 0.5 25.1779 0.5V1.5C30.3333 1.5 34.7714 4.57613 36.7547 8.99518L37.667 8.58571ZM40.9971 12.0462C45.0893 12.0462 48.4067 15.3635 48.4067 19.4558H49.4067C49.4067 14.8113 45.6416 11.0462 40.9971 11.0462V12.0462ZM48.4067 19.4558C48.4067 23.548 45.0893 26.8654 40.9971 26.8654V27.8654C45.6416 27.8654 49.4067 24.1003 49.4067 19.4558H48.4067ZM40.9971 26.8654H9.35876V27.8654H40.9971V26.8654ZM36.7547 8.99518C37.0826 9.72577 37.2675 10.1399 37.3641 10.3059L38.2285 9.80312C38.1666 9.69672 38.0141 9.35892 37.667 8.58571L36.7547 8.99518ZM40.9971 11.0462C40.4694 11.0462 40.2507 11.0454 40.1276 11.0324L40.0228 12.0269C40.2131 12.0469 40.5046 12.0462 40.9971 12.0462V11.0462ZM37.3641 10.3059C37.6739 10.8385 38.0059 11.2508 38.452 11.5395C38.898 11.8283 39.4101 11.9623 40.0228 12.0269L40.1276 11.0324C39.5963 10.9764 39.2581 10.8701 38.9953 10.7C38.7326 10.5299 38.4971 10.2649 38.2285 9.80312L37.3641 10.3059ZM9.35876 12.0462C9.85122 12.0462 10.1426 12.0469 10.3328 12.0269L10.2281 11.0324C10.105 11.0454 9.88634 11.0462 9.35876 11.0462V12.0462ZM12.6887 8.58581C12.3417 9.35892 12.1892 9.69667 12.1273 9.80305L12.9917 10.3058C13.0883 10.1398 13.2732 9.72577 13.601 8.99527L12.6887 8.58581ZM10.3328 12.0269C10.9456 11.9624 11.4577 11.8283 11.9038 11.5395C12.3499 11.2508 12.682 10.8384 12.9917 10.3058L12.1273 9.80305C11.8587 10.2649 11.6232 10.5299 11.3604 10.7C11.0976 10.8701 10.7594 10.9764 10.2281 11.0324L10.3328 12.0269Z" fill="#ABB8FF"/>
<rect x="12.9661" y="32.0085" width="25.2712" height="32.0508" rx="3.5" fill="#ABB8FF" fill-opacity="0.3" stroke="#ABB8FF"/>
<rect x="31.6102" y="42.178" width="25.2712" height="32.0508" rx="3.5" fill="#ABB8FF" fill-opacity="0.3" stroke="#ABB8FF"/>
<path d="M26.0254 17.9492L25.6719 17.5957L26.0254 17.2421L26.379 17.5957L26.0254 17.9492ZM26.5254 35.7458C26.5254 36.022 26.3016 36.2458 26.0254 36.2458C25.7493 36.2458 25.5254 36.022 25.5254 35.7458L26.5254 35.7458ZM21.4346 21.833L25.6719 17.5957L26.379 18.3028L22.1417 22.5401L21.4346 21.833ZM26.379 17.5957L30.6163 21.833L29.9092 22.5401L25.6719 18.3028L26.379 17.5957ZM26.5254 17.9492L26.5254 35.7458L25.5254 35.7458L25.5254 17.9492L26.5254 17.9492Z" fill="#EA4040"/>
<path d="M26.0255 41.678L25.672 42.0315L26.0255 42.3851L26.3791 42.0315L26.0255 41.678ZM26.5255 35.7458C26.5255 35.4696 26.3017 35.2458 26.0255 35.2458C25.7494 35.2458 25.5255 35.4696 25.5255 35.7458L26.5255 35.7458ZM21.4347 37.7942L25.672 42.0315L26.3791 41.3244L22.1418 37.0871L21.4347 37.7942ZM26.3791 42.0315L30.6164 37.7942L29.9093 37.0871L25.672 41.3244L26.3791 42.0315ZM26.5255 41.678L26.5255 35.7458L25.5255 35.7458L25.5255 41.678L26.5255 41.678Z" fill="#EA4040"/>
<path d="M44.6695 62.8645L44.3159 62.5109L44.6695 62.1574L45.023 62.5109L44.6695 62.8645ZM45.1695 80.6611C45.1695 80.9373 44.9456 81.1611 44.6695 81.1611C44.3934 81.1611 44.1695 80.9373 44.1695 80.6611L45.1695 80.6611ZM40.0787 66.7482L44.3159 62.5109L45.023 63.2181L40.7858 67.4553L40.0787 66.7482ZM45.023 62.5109L49.2603 66.7482L48.5532 67.4553L44.3159 63.2181L45.023 62.5109ZM45.1695 62.8645L45.1695 80.6611L44.1695 80.6611L44.1695 62.8645L45.1695 62.8645Z" fill="#EA4040"/>
<path d="M44.6694 86.5933L44.3158 86.9468L44.6694 87.3004L45.0229 86.9468L44.6694 86.5933ZM45.1694 80.6611C45.1694 80.3849 44.9455 80.1611 44.6694 80.1611C44.3932 80.1611 44.1694 80.3849 44.1694 80.6611L45.1694 80.6611ZM40.0785 82.7095L44.3158 86.9468L45.0229 86.2397L40.7857 82.0024L40.0785 82.7095ZM45.0229 86.9468L49.2602 82.7095L48.5531 82.0024L44.3158 86.2397L45.0229 86.9468ZM45.1694 86.5933L45.1694 80.6611L44.1694 80.6611L44.1694 86.5933L45.1694 86.5933Z" fill="#EA4040"/>
<path d="M65.2995 94.9434C66.0904 95.2454 66.6905 95.5672 67.0714 95.9034L66.7405 96.2783C67.0004 96.5077 67.0508 96.6699 67.0508 96.7627C67.0508 96.8555 67.0004 97.0176 66.7405 97.2471L67.0714 97.6219C66.6905 97.9582 66.0904 98.2799 65.2995 98.582L65.1211 98.1149C64.589 98.3181 63.9604 98.5145 63.2428 98.7014L63.3689 99.1852C62.7649 99.3425 62.1038 99.492 61.3909 99.6327L61.2941 99.1422C60.6754 99.2643 60.0163 99.3799 59.3202 99.4883L59.3972 99.9824C58.7567 100.082 58.0861 100.176 57.3882 100.262L57.3265 99.7662C56.6821 99.8464 56.0138 99.9208 55.324 99.9891L55.3732 100.487C54.7189 100.551 54.0456 100.611 53.3552 100.664L53.3166 100.166C52.6614 100.216 51.9906 100.262 51.3057 100.301L51.3347 100.8C50.6728 100.839 49.998 100.872 49.3119 100.9L49.2917 100.4C48.6297 100.427 47.957 100.448 47.2749 100.464L47.2868 100.964C46.6196 100.98 45.9435 100.991 45.2598 100.996L45.2559 100.496C44.921 100.499 44.5842 100.5 44.2458 100.5C43.9073 100.5 43.5705 100.499 43.2356 100.496L43.2317 100.996C42.548 100.991 41.872 100.98 41.2047 100.964L41.2166 100.464C40.5345 100.448 39.8618 100.427 39.1998 100.4L39.1797 100.9C38.4935 100.872 37.8188 100.839 37.1568 100.8L37.1858 100.301C36.501 100.262 35.8301 100.216 35.1749 100.166L35.1364 100.664C34.446 100.611 33.7726 100.551 33.1183 100.487L33.1675 99.9891C32.4777 99.9208 31.8095 99.8464 31.165 99.7662L31.1033 100.262C30.4054 100.176 29.7349 100.082 29.0944 99.9824L29.1713 99.4883C28.4752 99.3799 27.8161 99.2643 27.1975 99.1422L27.1006 99.6327C26.3878 99.492 25.7266 99.3425 25.1227 99.1852L25.2487 98.7014C24.5311 98.5145 23.9025 98.3181 23.3704 98.1149L23.192 98.582C22.4011 98.2799 21.801 97.9582 21.4201 97.6219L21.751 97.2471C21.4911 97.0176 21.4407 96.8555 21.4407 96.7627C21.4407 96.6699 21.4911 96.5077 21.751 96.2783L21.4201 95.9034C21.801 95.5672 22.4011 95.2454 23.192 94.9434L23.3704 95.4105C23.9025 95.2073 24.5311 95.0109 25.2487 94.824L25.1227 94.3401C25.7266 94.1828 26.3878 94.0333 27.1006 93.8926L27.1975 94.3832C27.8161 94.261 28.4752 94.1454 29.1713 94.037L29.0944 93.543C29.7349 93.4433 30.4054 93.3497 31.1033 93.2629L31.165 93.7591C31.8095 93.679 32.4777 93.6045 33.1675 93.5362L33.1183 93.0387C33.7726 92.9739 34.446 92.9147 35.1364 92.8613L35.1749 93.3598C35.8301 93.3092 36.501 93.2639 37.1858 93.2241L37.1568 92.725C37.8188 92.6866 38.4935 92.6534 39.1797 92.6258L39.1998 93.1254C39.8618 93.0987 40.5345 93.0772 41.2166 93.061L41.2047 92.5611C41.872 92.5453 42.548 92.5347 43.2317 92.5293L43.2356 93.0293C43.5705 93.0267 43.9073 93.0254 44.2458 93.0254C44.5842 93.0254 44.921 93.0267 45.2559 93.0293L45.2598 92.5293C45.9435 92.5347 46.6196 92.5453 47.2868 92.5611L47.2749 93.061C47.957 93.0772 48.6297 93.0987 49.2917 93.1254L49.3119 92.6258C49.998 92.6534 50.6728 92.6866 51.3347 92.725L51.3057 93.2241C51.9906 93.2639 52.6614 93.3092 53.3166 93.3598L53.3552 92.8613C54.0456 92.9147 54.7189 92.9739 55.3732 93.0387L55.324 93.5362C56.0138 93.6045 56.6821 93.679 57.3265 93.7591L57.3882 93.2629C58.0861 93.3497 58.7567 93.4433 59.3972 93.543L59.3202 94.037C60.0163 94.1454 60.6754 94.261 61.2941 94.3832L61.3909 93.8926C62.1038 94.0333 62.7649 94.1828 63.3689 94.3401L63.2428 94.824C63.9604 95.0109 64.589 95.2073 65.1211 95.4105L65.2995 94.9434Z" fill="#ABB8FF" fill-opacity="0.3" stroke="#ABB8FF" stroke-dasharray="2 2"/>
</svg>
