<?xml version="1.0" standalone="no"?>
<!DOCTYPE svg PUBLIC "-//W3C//DTD SVG 20010904//EN"
 "http://www.w3.org/TR/2001/REC-SVG-20010904/DTD/svg10.dtd">
<svg version="1.0" xmlns="http://www.w3.org/2000/svg"
 width="160.000000pt" height="160.000000pt" viewBox="0 0 160.000000 160.000000"
 preserveAspectRatio="xMidYMid meet">

<g transform="translate(0.000000,160.000000) scale(0.100000,-0.100000)"
fill="#000000" stroke="none">
<path d="M0 1420 l0 -179 34 20 c19 11 48 24 65 29 l31 9 0 -200 c0 -240 -2
-236 126 -265 85 -19 281 -25 372 -11 l53 8 -3 -38 c-3 -32 -9 -41 -42 -59
-54 -31 -145 -48 -256 -48 l-95 -1 -8 47 c-14 76 -63 78 -54 2 4 -42 3 -44
-22 -44 -40 0 -127 26 -166 49 l-35 20 0 -379 0 -380 800 0 800 0 0 227 0 227
-23 -44 c-22 -44 -76 -90 -105 -90 -11 0 -13 8 -8 31 8 40 -7 96 -37 140 -25
37 -90 79 -124 79 -17 0 -28 13 -48 54 -55 116 -192 185 -312 158 -48 -11 -52
-5 -26 36 67 109 191 161 311 132 28 -6 63 -23 78 -36 26 -24 26 -28 23 -121
-3 -59 0 -97 6 -99 25 -9 39 17 44 83 l7 68 21 -42 c13 -22 25 -59 29 -81 6
-37 9 -40 43 -46 42 -6 82 -43 105 -96 14 -32 15 12 16 493 l0 527 -800 0
-800 0 0 -180z m312 -109 c-8 -5 -12 -17 -10 -27 3 -16 17 -20 86 -28 46 -4
121 -4 172 1 124 12 120 19 120 -195 0 -124 -3 -173 -12 -178 -7 -5 -76 -10
-154 -12 -139 -4 -248 7 -299 30 l-25 11 0 198 0 198 28 4 c53 8 107 7 94 -2z
m106 2 c-16 -2 -40 -2 -55 0 -16 2 -3 4 27 4 30 0 43 -2 28 -4z m678 -604 c54
-26 101 -78 123 -140 15 -40 20 -44 57 -49 83 -12 136 -72 132 -150 l-3 -45
-255 -3 c-287 -2 -300 0 -333 71 -32 67 -11 154 44 186 27 15 28 18 22 72 -5
55 -5 57 23 67 51 18 140 14 190 -9z"/>
</g>
</svg>
