<svg width="251" height="274" viewBox="0 0 251 274" fill="none" xmlns="http://www.w3.org/2000/svg">
<circle cx="121" cy="131.116" r="117.5" fill="#ABB8FF" fill-opacity="0.1" stroke="#ABB8FF"/>
<circle cx="121" cy="131.116" r="70.5" stroke="#ABB8FF" stroke-dasharray="2 2"/>
<rect x="198" y="180.116" width="46" height="46" fill="#EA4040" fill-opacity="0.3"/>
<path d="M225.342 194.856C225.342 197.255 223.398 199.199 221 199.199C218.602 199.199 216.658 197.255 216.658 194.856C216.658 192.457 218.602 190.513 221 190.513C223.398 190.513 225.342 192.457 225.342 194.856Z" fill="#020013" stroke="#ABB8FF" stroke-linecap="round"/>
<path d="M229.345 192.684C229.921 191.687 230.869 190.959 231.981 190.661C233.094 190.363 234.279 190.519 235.276 191.095C236.274 191.671 237.001 192.619 237.299 193.732C237.597 194.844 237.441 196.03 236.866 197.027C236.29 198.025 235.341 198.753 234.229 199.051C233.117 199.349 231.932 199.193 230.934 198.617C229.937 198.041 229.209 197.093 228.911 195.98C228.613 194.867 228.769 193.682 229.345 192.684L229.345 192.684Z" stroke="#ABB8FF"/>
<path d="M205.134 192.684C205.71 191.687 206.659 190.959 207.771 190.661C208.883 190.363 210.068 190.519 211.066 191.095C212.063 191.671 212.791 192.619 213.089 193.732C213.387 194.844 213.231 196.03 212.655 197.027C212.079 198.025 211.131 198.753 210.019 199.051C208.906 199.349 207.721 199.193 206.724 198.617C205.726 198.041 204.999 197.093 204.701 195.98C204.403 194.867 204.559 193.682 205.134 192.684L205.134 192.684Z" stroke="#ABB8FF"/>
<path d="M241.503 212.025L241.007 212.086L241.503 212.025ZM226.084 204.991L225.794 204.584L225.261 204.964L225.768 205.378L226.084 204.991ZM229.407 212.024L229.904 211.97L229.407 212.024ZM240.579 212.517H228.474V213.517H240.579V212.517ZM241.007 212.086C241.034 212.301 240.867 212.517 240.579 212.517V213.517C241.395 213.517 242.108 212.844 241.999 211.963L241.007 212.086ZM231.895 203.831C235.618 203.831 237.796 205.313 239.095 207.051C240.414 208.816 240.859 210.89 241.007 212.086L241.999 211.963C241.842 210.69 241.364 208.417 239.896 206.452C238.408 204.462 235.934 202.831 231.895 202.831V203.831ZM226.375 205.398C227.665 204.476 229.439 203.831 231.895 203.831V202.831C229.253 202.831 227.271 203.529 225.794 204.584L226.375 205.398ZM225.768 205.378C228.082 207.268 228.733 210.441 228.91 212.078L229.904 211.97C229.722 210.288 229.039 206.759 226.4 204.604L225.768 205.378ZM228.91 212.078C228.934 212.3 228.76 212.517 228.474 212.517V213.517C229.292 213.517 229.999 212.846 229.904 211.97L228.91 212.078Z" fill="#ABB8FF"/>
<path fill-rule="evenodd" clip-rule="evenodd" d="M215.916 204.991C214.532 204.002 212.654 203.331 210.105 203.331C202.343 203.331 200.802 209.555 200.497 212.025C200.429 212.573 200.869 213.017 201.421 213.017H213.526C212.974 213.017 212.533 212.573 212.593 212.024C212.772 210.365 213.44 207.013 215.916 204.991Z" fill="#020013"/>
<path d="M215.916 204.991L216.232 205.378L216.739 204.964L216.207 204.584L215.916 204.991ZM200.497 212.025L200.993 212.086L200.497 212.025ZM212.593 212.024L213.09 212.078L212.593 212.024ZM210.105 203.831C212.561 203.831 214.335 204.476 215.625 205.398L216.207 204.584C214.729 203.529 212.747 202.831 210.105 202.831V203.831ZM200.993 212.086C201.141 210.89 201.586 208.816 202.905 207.051C204.205 205.313 206.382 203.831 210.105 203.831V202.831C206.066 202.831 203.592 204.462 202.104 206.452C200.636 208.417 200.158 210.69 200.001 211.963L200.993 212.086ZM201.421 212.517C201.133 212.517 200.966 212.301 200.993 212.086L200.001 211.963C199.892 212.844 200.605 213.517 201.421 213.517V212.517ZM213.526 212.517H201.421V213.517H213.526V212.517ZM213.526 212.517C213.24 212.517 213.066 212.3 213.09 212.078L212.096 211.97C212.001 212.846 212.709 213.517 213.526 213.517V212.517ZM213.09 212.078C213.267 210.441 213.918 207.268 216.232 205.378L215.6 204.604C212.961 206.759 212.278 210.288 212.096 211.97L213.09 212.078Z" fill="#ABB8FF"/>
<path d="M221 203.331C227.792 203.331 229.14 209.553 229.407 212.024C229.467 212.573 229.026 213.017 228.474 213.017H213.526C212.974 213.017 212.533 212.573 212.593 212.024C212.86 209.553 214.208 203.331 221 203.331Z" fill="#020013" stroke="#ABB8FF" stroke-linecap="round"/>
<path d="M236.737 225.125H242.5C243.328 225.125 244 224.453 244 223.625V217.86" stroke="#EA4040" stroke-linecap="round"/>
<path d="M236.737 179.116H242.5C243.328 179.116 244 179.788 244 180.616V186.381" stroke="#EA4040" stroke-linecap="round"/>
<path d="M205.263 225.125H199.5C198.672 225.125 198 224.453 198 223.625V217.86" stroke="#EA4040" stroke-linecap="round"/>
<path d="M205.263 179.116H199.5C198.672 179.116 198 179.788 198 180.616V186.381" stroke="#EA4040" stroke-linecap="round"/>
<rect x="1" y="179.116" width="46" height="46" fill="#EA4040" fill-opacity="0.3"/>
<circle cx="24" cy="193.116" r="6.5" fill="#020013" stroke="#ABB8FF" stroke-linecap="round"/>
<path d="M24 203.116C37.483 203.116 39.6041 213.768 39.9377 217.119C39.9924 217.669 39.5523 218.116 39 218.116H9C8.44772 218.116 8.00757 217.669 8.06229 217.119C8.39594 213.768 10.517 203.116 24 203.116Z" fill="#020013" stroke="#ABB8FF" stroke-linecap="round"/>
<path d="M39.7368 225.125H45.5C46.3284 225.125 47 224.453 47 223.625V217.86" stroke="#EA4040" stroke-linecap="round"/>
<path d="M39.7368 179.116H45.5C46.3284 179.116 47 179.788 47 180.616V186.381" stroke="#EA4040" stroke-linecap="round"/>
<path d="M8.26315 225.125H2.5C1.67157 225.125 0.999995 224.453 0.999995 223.625V217.86" stroke="#EA4040" stroke-linecap="round"/>
<path d="M8.26315 179.116H2.5C1.67157 179.116 0.999995 179.788 0.999995 180.616V186.381" stroke="#EA4040" stroke-linecap="round"/>
<path d="M1 12.5161C1 11.676 1 11.256 1.16349 10.9351C1.3073 10.6529 1.53677 10.4234 1.81901 10.2796C2.13988 10.1161 2.55992 10.1161 3.4 10.1161H21.1657C21.5326 10.1161 21.7161 10.1161 21.8887 10.1575C22.0418 10.1943 22.1881 10.2549 22.3224 10.3372C22.4737 10.43 22.6035 10.5597 22.8629 10.8192L34.6821 22.6406C34.9415 22.9 35.0712 23.0298 35.1639 23.1811C35.2461 23.3153 35.3067 23.4616 35.3434 23.6147C35.3849 23.7873 35.3849 23.9707 35.3849 24.3375V52.6894C35.3849 53.5295 35.3849 53.9496 35.2214 54.2704C35.0776 54.5527 34.8481 54.7821 34.5659 54.926C34.245 55.0894 33.825 55.0894 32.9849 55.0894H3.4C2.55992 55.0894 2.13988 55.0894 1.81901 54.926C1.53677 54.7821 1.3073 54.5527 1.16349 54.2704C1 53.9496 1 53.5295 1 52.6894V12.5161Z" fill="#020013" stroke="#ABB8FF"/>
<path d="M19.5147 10.1161V23.589C19.5147 24.4291 19.5147 24.8492 19.6782 25.17C19.822 25.4523 20.0515 25.6817 20.3337 25.8255C20.6546 25.989 21.0746 25.989 21.9147 25.989H35.3846" stroke="#ABB8FF"/>
<rect x="10.5" y="43.2109" width="48" height="21" rx="7.5" fill="#020013"/>
<path d="M23.1719 57.6093H23.3984C23.6589 57.6093 23.862 57.6588 24.0078 57.7578C24.1536 57.8515 24.2266 57.9869 24.2266 58.164C24.2266 58.3515 24.1615 58.4895 24.0312 58.5781C23.9062 58.6666 23.7057 58.7109 23.4297 58.7109H21.2734C21.1172 58.7109 20.987 58.6588 20.8828 58.5546C20.7786 58.4505 20.7266 58.3203 20.7266 58.164C20.7266 57.9713 20.7969 57.8307 20.9375 57.7421C21.0781 57.6536 21.3021 57.6093 21.6094 57.6093H21.7656L24.2969 55.0156L21.8125 52.6015H21.7031C21.401 52.6015 21.1901 52.5624 21.0703 52.4843C20.9557 52.401 20.8984 52.2578 20.8984 52.0546C20.8984 51.8411 20.9635 51.6953 21.0938 51.6171C21.2292 51.5338 21.4844 51.4921 21.8594 51.4921H23.4609C23.7422 51.4921 23.9453 51.539 24.0703 51.6328C24.2005 51.7213 24.2656 51.8619 24.2656 52.0546C24.2656 52.2317 24.1927 52.3671 24.0469 52.4609C23.9062 52.5546 23.7005 52.6015 23.4297 52.6015H23.3672L25.0469 54.2499L26.6484 52.6015H26.4844C26.1927 52.6015 25.9766 52.5598 25.8359 52.4765C25.6953 52.388 25.625 52.2525 25.625 52.0703C25.625 51.8671 25.6875 51.7213 25.8125 51.6328C25.9375 51.539 26.1406 51.4921 26.4219 51.4921H28.4531C28.6146 51.4921 28.7448 51.5442 28.8438 51.6484C28.9479 51.7473 29 51.8775 29 52.039C29 52.2317 28.9349 52.3749 28.8047 52.4687C28.6745 52.5572 28.4661 52.6015 28.1797 52.6015H27.9609L25.7188 54.9374L28.4531 57.6093H28.5312C28.7292 57.6093 28.8828 57.6588 28.9922 57.7578C29.1016 57.8515 29.1562 57.9869 29.1562 58.164C29.1562 58.3723 29.0938 58.5156 28.9688 58.5937C28.8438 58.6718 28.5859 58.7109 28.1953 58.7109H26.6016C26.3255 58.7109 26.1224 58.6666 25.9922 58.5781C25.862 58.4895 25.7969 58.3515 25.7969 58.164C25.7969 57.9921 25.8594 57.8567 25.9844 57.7578C26.1094 57.6588 26.2812 57.6093 26.5 57.6093H26.9375L24.9688 55.6874L23.1719 57.6093ZM33.9688 49.6093H32.6406C32.1354 49.6093 31.8177 49.5703 31.6875 49.4921C31.5625 49.4088 31.5 49.2604 31.5 49.0468C31.5 48.8593 31.5521 48.7187 31.6562 48.6249C31.7656 48.5312 31.9219 48.4843 32.125 48.4843H34.7031C34.8438 48.4843 34.9531 48.513 35.0312 48.5703C35.1094 48.6275 35.1484 48.7057 35.1484 48.8046V57.6093H37.6016C37.7995 57.6093 37.9427 57.6536 38.0312 57.7421C38.125 57.8255 38.1719 57.9609 38.1719 58.1484C38.1719 58.3619 38.1276 58.5104 38.0391 58.5937C37.9505 58.6718 37.7839 58.7109 37.5391 58.7109H31.7734C31.5703 58.7109 31.4141 58.664 31.3047 58.5703C31.2005 58.4765 31.1484 58.3359 31.1484 58.1484C31.1484 57.9661 31.2031 57.8307 31.3125 57.7421C31.4219 57.6536 31.5859 57.6093 31.8047 57.6093H33.9688V49.6093ZM40.6953 58.1484V56.7578C40.6953 56.5286 40.737 56.3645 40.8203 56.2656C40.9089 56.1666 41.0495 56.1171 41.2422 56.1171C41.4557 56.1171 41.625 56.263 41.75 56.5546C41.8333 56.7317 41.9089 56.8645 41.9766 56.9531C42.1953 57.2343 42.5182 57.4609 42.9453 57.6328C43.3724 57.7994 43.8438 57.8828 44.3594 57.8828C44.9115 57.8828 45.3542 57.7708 45.6875 57.5468C46.0208 57.3229 46.1875 57.0286 46.1875 56.664C46.1875 56.2942 46.0521 56.0312 45.7812 55.8749C45.5156 55.7187 45.0573 55.6406 44.4062 55.6406H43.9766C42.9141 55.6406 42.1042 55.4557 41.5469 55.0859C40.9896 54.7161 40.7109 54.1796 40.7109 53.4765C40.7109 52.789 40.9818 52.2551 41.5234 51.8749C42.0703 51.4947 42.8359 51.3046 43.8203 51.3046C44.2214 51.3046 44.6302 51.3619 45.0469 51.4765C45.4635 51.5859 45.6823 51.6406 45.7031 51.6406C45.7604 51.6406 45.8698 51.5911 46.0312 51.4921C46.1927 51.388 46.3516 51.3359 46.5078 51.3359C46.6849 51.3359 46.8151 51.401 46.8984 51.5312C46.987 51.6614 47.0312 51.8567 47.0312 52.1171V53.0312C47.0312 53.3072 46.9896 53.5078 46.9062 53.6328C46.8229 53.7525 46.6901 53.8124 46.5078 53.8124C46.3516 53.8124 46.1589 53.6796 45.9297 53.414C45.7682 53.2317 45.6354 53.0937 45.5312 52.9999C45.2552 52.7447 44.9609 52.5624 44.6484 52.4531C44.3359 52.3385 43.9688 52.2812 43.5469 52.2812C43.0573 52.2812 42.6615 52.3906 42.3594 52.6093C42.0625 52.8229 41.9141 53.0963 41.9141 53.4296C41.9141 53.7578 42.0677 53.9921 42.375 54.1328C42.6823 54.2734 43.3438 54.3541 44.3594 54.3749C45.4427 54.401 46.2344 54.5911 46.7344 54.9453C47.2344 55.2942 47.4844 55.8359 47.4844 56.5703C47.4844 57.2734 47.2083 57.8359 46.6562 58.2578C46.1042 58.6796 45.3594 58.8906 44.4219 58.8906C44.125 58.8906 43.7943 58.8619 43.4297 58.8046C43.0651 58.7525 42.6068 58.6614 42.0547 58.5312C41.8724 58.651 41.7161 58.7395 41.5859 58.7968C41.4557 58.8593 41.3464 58.8906 41.2578 58.8906C41.0755 58.8906 40.9349 58.8281 40.8359 58.7031C40.7422 58.5729 40.6953 58.388 40.6953 58.1484Z" fill="white"/>
<rect x="10.5" y="43.2109" width="48" height="21" rx="7.5" stroke="white"/>
<path d="M175 9.51609C175 8.67601 175 8.25597 175.163 7.9351C175.307 7.65286 175.537 7.42339 175.819 7.27958C176.14 7.11609 176.56 7.11609 177.4 7.11609H195.166C195.533 7.11609 195.716 7.11609 195.889 7.15754C196.042 7.1943 196.188 7.25492 196.322 7.33718C196.474 7.42996 196.603 7.55971 196.863 7.81919L208.682 19.6406C208.941 19.9 209.071 20.0298 209.164 20.1811C209.246 20.3153 209.307 20.4616 209.343 20.6147C209.385 20.7873 209.385 20.9707 209.385 21.3375V49.6894C209.385 50.5295 209.385 50.9496 209.221 51.2704C209.078 51.5527 208.848 51.7821 208.566 51.926C208.245 52.0894 207.825 52.0894 206.985 52.0894H177.4C176.56 52.0894 176.14 52.0894 175.819 51.926C175.537 51.7821 175.307 51.5527 175.163 51.2704C175 50.9496 175 50.5295 175 49.6894V9.51609Z" fill="#020013" stroke="#ABB8FF"/>
<path d="M193.515 7.11609V20.589C193.515 21.4291 193.515 21.8492 193.678 22.17C193.822 22.4523 194.051 22.6817 194.334 22.8255C194.655 22.989 195.075 22.989 195.915 22.989H209.385" stroke="#ABB8FF"/>
<rect x="184.5" y="40.2105" width="58" height="21" rx="7.5" fill="#020013"/>
<path d="M198.492 57.7105H198.828C199.208 57.7105 199.466 57.7496 199.602 57.8277C199.737 57.911 199.805 58.0595 199.805 58.273C199.805 58.4553 199.75 58.5933 199.641 58.6871C199.536 58.7808 199.383 58.8277 199.18 58.8277H195.578C195.333 58.8277 195.161 58.786 195.062 58.7027C194.969 58.6194 194.922 58.4761 194.922 58.273C194.922 58.0855 194.971 57.9449 195.07 57.8511C195.174 57.7574 195.328 57.7105 195.531 57.7105H197.227L198.492 55.2183L195.625 49.6011C195.281 49.6011 195.044 49.5595 194.914 49.4761C194.789 49.3928 194.727 49.247 194.727 49.0386C194.727 48.8563 194.779 48.7209 194.883 48.6324C194.987 48.5386 195.143 48.4918 195.352 48.4918H197.531C197.823 48.4918 198.018 48.5334 198.117 48.6168C198.216 48.6949 198.266 48.8355 198.266 49.0386C198.266 49.247 198.201 49.3928 198.07 49.4761C197.94 49.5595 197.701 49.6011 197.352 49.6011H197.062L199.18 53.9058L201.336 49.6011H201.031C200.672 49.6011 200.424 49.5595 200.289 49.4761C200.154 49.3928 200.086 49.247 200.086 49.0386C200.086 48.8355 200.135 48.6949 200.234 48.6168C200.333 48.5334 200.531 48.4918 200.828 48.4918H202.758C202.971 48.4918 203.128 48.5386 203.227 48.6324C203.331 48.7209 203.383 48.8563 203.383 49.0386C203.383 49.2366 203.326 49.3772 203.211 49.4605C203.096 49.5438 202.893 49.5907 202.602 49.6011L198.492 57.7105ZM210.422 52.2574C210.135 52.1636 209.857 52.0959 209.586 52.0543C209.32 52.0074 209.055 51.9839 208.789 51.9839C207.987 51.9839 207.354 52.1194 206.891 52.3902C206.427 52.661 206.195 53.0256 206.195 53.4839C206.195 53.8381 206.339 54.1298 206.625 54.3589C206.917 54.5881 207.286 54.7027 207.734 54.7027C208.396 54.7027 209.008 54.5308 209.57 54.1871C210.138 53.8381 210.422 53.4761 210.422 53.1011V52.2574ZM210.484 54.7183C210.057 55.1037 209.591 55.398 209.086 55.6011C208.586 55.8043 208.07 55.9058 207.539 55.9058C206.763 55.9058 206.135 55.6897 205.656 55.2574C205.182 54.8251 204.945 54.2626 204.945 53.5699C204.945 52.747 205.26 52.1089 205.891 51.6558C206.526 51.2027 207.417 50.9761 208.562 50.9761C208.865 50.9761 209.169 50.997 209.477 51.0386C209.784 51.0751 210.099 51.135 210.422 51.2183V51.1636C210.422 50.5647 210.279 50.122 209.992 49.8355C209.706 49.5491 209.26 49.4058 208.656 49.4058C208.25 49.4058 207.797 49.5152 207.297 49.7339C206.797 49.9527 206.466 50.0621 206.305 50.0621C206.154 50.0621 206.029 50.0022 205.93 49.8824C205.831 49.7574 205.781 49.5985 205.781 49.4058C205.781 49.0985 206.068 48.8381 206.641 48.6246C207.219 48.411 207.956 48.3043 208.852 48.3043C209.768 48.3043 210.461 48.5386 210.93 49.0074C211.398 49.4709 211.633 50.1584 211.633 51.0699V54.6089H212.016C212.385 54.6089 212.633 54.648 212.758 54.7261C212.883 54.8043 212.945 54.9449 212.945 55.148C212.945 55.3355 212.893 55.4761 212.789 55.5699C212.685 55.6636 212.529 55.7105 212.32 55.7105H211.094C210.948 55.7105 210.828 55.6662 210.734 55.5777C210.641 55.4892 210.578 55.3616 210.547 55.1949L210.484 54.7183ZM221.195 51.3589C221.195 50.6246 221.128 50.1298 220.992 49.8746C220.862 49.6142 220.635 49.4839 220.312 49.4839C219.927 49.4839 219.62 49.6506 219.391 49.9839C219.167 50.3173 219.055 50.7756 219.055 51.3589V54.6089H219.195C219.513 54.6089 219.724 54.648 219.828 54.7261C219.938 54.7991 219.992 54.9397 219.992 55.148C219.992 55.3355 219.948 55.4761 219.859 55.5699C219.771 55.6636 219.635 55.7105 219.453 55.7105H218.461C218.237 55.7105 218.083 55.6584 218 55.5543C217.922 55.4501 217.883 55.2261 217.883 54.8824V54.6558V51.3589V50.7496C217.883 50.3589 217.794 50.0517 217.617 49.8277C217.44 49.5985 217.198 49.4839 216.891 49.4839C216.656 49.4839 216.44 49.5543 216.242 49.6949C216.049 49.8303 215.883 50.0334 215.742 50.3043V54.6089H216.031C216.344 54.6089 216.555 54.648 216.664 54.7261C216.773 54.8043 216.828 54.9449 216.828 55.148C216.828 55.3616 216.784 55.51 216.695 55.5933C216.607 55.6714 216.438 55.7105 216.188 55.7105H214.109C213.906 55.7105 213.755 55.6662 213.656 55.5777C213.562 55.4839 213.516 55.3407 213.516 55.148C213.516 54.9397 213.576 54.7991 213.695 54.7261C213.82 54.648 214.06 54.6089 214.414 54.6089H214.57V49.6011H214.43C214.065 49.6011 213.815 49.5595 213.68 49.4761C213.549 49.3928 213.484 49.247 213.484 49.0386C213.484 48.8563 213.536 48.7209 213.641 48.6324C213.745 48.5386 213.901 48.4918 214.109 48.4918H215.305C215.477 48.4918 215.589 48.523 215.641 48.5855C215.698 48.6428 215.732 48.7678 215.742 48.9605C215.956 48.7313 216.185 48.5621 216.43 48.4527C216.674 48.3433 216.951 48.2886 217.258 48.2886C217.622 48.2886 217.922 48.3694 218.156 48.5308C218.396 48.6871 218.573 48.9267 218.688 49.2496C218.906 48.9214 219.159 48.6793 219.445 48.523C219.732 48.3668 220.06 48.2886 220.43 48.2886C221.102 48.2886 221.591 48.5074 221.898 48.9449C222.211 49.3824 222.367 50.0907 222.367 51.0699V54.6089H222.492C222.815 54.6089 223.031 54.648 223.141 54.7261C223.25 54.8043 223.305 54.9449 223.305 55.148C223.305 55.3355 223.258 55.4761 223.164 55.5699C223.07 55.6636 222.932 55.7105 222.75 55.7105H221.805C221.596 55.7105 221.443 55.648 221.344 55.523C221.245 55.398 221.195 55.2001 221.195 54.9293V51.3589ZM227.383 46.6089H226.055C225.549 46.6089 225.232 46.5699 225.102 46.4918C224.977 46.4084 224.914 46.26 224.914 46.0464C224.914 45.8589 224.966 45.7183 225.07 45.6246C225.18 45.5308 225.336 45.4839 225.539 45.4839H228.117C228.258 45.4839 228.367 45.5126 228.445 45.5699C228.523 45.6272 228.562 45.7053 228.562 45.8043V54.6089H231.016C231.214 54.6089 231.357 54.6532 231.445 54.7418C231.539 54.8251 231.586 54.9605 231.586 55.148C231.586 55.3616 231.542 55.51 231.453 55.5933C231.365 55.6714 231.198 55.7105 230.953 55.7105H225.188C224.984 55.7105 224.828 55.6636 224.719 55.5699C224.615 55.4761 224.562 55.3355 224.562 55.148C224.562 54.9657 224.617 54.8303 224.727 54.7418C224.836 54.6532 225 54.6089 225.219 54.6089H227.383V46.6089Z" fill="white"/>
<rect x="184.5" y="40.2105" width="58" height="21" rx="7.5" stroke="white"/>
<g clip-path="url(#clip0_26_1160)">
<path d="M134.473 13.8682L122.248 1.64315C121.544 0.939263 120.401 0.939263 119.697 1.64315L117.159 4.1814L120.38 7.40221C121.151 7.14016 122.007 7.33822 122.583 7.91412C123.162 8.49613 123.36 9.35541 123.092 10.1324L126.197 13.2344C126.974 12.9663 127.833 13.1643 128.415 13.7433C129.253 14.5812 129.253 15.9402 128.415 16.7782C127.577 17.6162 126.218 17.6162 125.377 16.7782C124.765 16.1657 124.582 15.2455 124.911 14.4441L122.016 11.5493V19.1671C123.08 19.6912 123.515 20.9771 122.988 22.0406C122.885 22.2508 122.747 22.4428 122.583 22.6073C121.745 23.4453 120.386 23.4453 119.548 22.6073C118.71 21.7694 118.71 20.4104 119.548 19.5724C119.749 19.3713 119.987 19.2129 120.249 19.1032V11.4153C119.152 10.9643 118.628 9.70888 119.082 8.61192C119.082 8.60887 119.082 8.60582 119.085 8.60277L115.91 5.42767L107.527 13.8103C106.823 14.5142 106.823 15.6569 107.527 16.3607L119.752 28.5858C120.456 29.2897 121.599 29.2897 122.303 28.5858L134.47 16.4186C135.174 15.7148 135.174 14.5721 134.47 13.8682" fill="white"/>
</g>
<g clip-path="url(#clip1_26_1160)">
<path d="M248.473 119.868L236.248 107.643C235.544 106.939 234.401 106.939 233.697 107.643L231.159 110.181L234.38 113.402C235.151 113.14 236.007 113.338 236.583 113.914C237.162 114.496 237.36 115.355 237.092 116.132L240.197 119.234C240.974 118.966 241.833 119.164 242.415 119.743C243.253 120.581 243.253 121.94 242.415 122.778C241.577 123.616 240.218 123.616 239.377 122.778C238.765 122.166 238.582 121.245 238.911 120.444L236.016 117.549V125.167C237.08 125.691 237.515 126.977 236.988 128.041C236.885 128.251 236.747 128.443 236.583 128.607C235.745 129.445 234.386 129.445 233.548 128.607C232.71 127.769 232.71 126.41 233.548 125.572C233.749 125.371 233.987 125.213 234.249 125.103V117.415C233.152 116.964 232.628 115.709 233.082 114.612C233.082 114.609 233.082 114.606 233.085 114.603L229.91 111.428L221.527 119.81C220.823 120.514 220.823 121.657 221.527 122.361L233.752 134.586C234.456 135.29 235.599 135.29 236.303 134.586L248.47 122.419C249.174 121.715 249.174 120.572 248.47 119.868" fill="white"/>
</g>
<path d="M6.73828 259.437C7.19727 259.437 7.56999 259.293 7.85645 259.003C8.1429 258.713 8.28613 258.337 8.28613 257.875C8.28613 257.422 8.13965 257.05 7.84668 256.757C7.55697 256.464 7.1875 256.317 6.73828 256.317C6.28581 256.317 5.91471 256.464 5.625 256.757C5.33854 257.046 5.19531 257.419 5.19531 257.875C5.19531 258.331 5.33854 258.705 5.625 258.998C5.91471 259.291 6.28581 259.437 6.73828 259.437ZM5.21484 256.307C5.39714 256.08 5.625 255.905 5.89844 255.785C6.17188 255.665 6.48112 255.604 6.82617 255.604C7.48047 255.604 8.02572 255.826 8.46191 256.268C8.89811 256.708 9.11621 257.253 9.11621 257.904C9.11621 258.545 8.8916 259.089 8.44238 259.535C7.99642 259.981 7.45117 260.204 6.80664 260.204C6.46484 260.204 6.16699 260.144 5.91309 260.023C5.65918 259.903 5.45085 259.721 5.28809 259.476V259.867C5.28809 259.955 5.27181 260.018 5.23926 260.057C5.20996 260.097 5.15951 260.116 5.08789 260.116H4.19434C4.06738 260.116 3.97298 260.087 3.91113 260.028C3.84928 259.97 3.81836 259.882 3.81836 259.765C3.81836 259.634 3.85579 259.546 3.93066 259.501C4.00553 259.452 4.15365 259.428 4.375 259.428H4.47754V254.428H4.38477C4.16341 254.428 4.01204 254.402 3.93066 254.349C3.84928 254.297 3.80859 254.206 3.80859 254.076C3.80859 253.959 3.84115 253.871 3.90625 253.812C3.97135 253.754 4.06738 253.724 4.19434 253.724H4.93652C5.03418 253.724 5.10417 253.741 5.14648 253.773C5.19206 253.806 5.21484 253.856 5.21484 253.925V256.307ZM11.2646 258.314C11.2646 258.724 11.3509 259.024 11.5234 259.213C11.696 259.402 11.9694 259.496 12.3438 259.496C12.6986 259.496 13.0013 259.384 13.252 259.159C13.5059 258.934 13.6328 258.653 13.6328 258.314V256.298H12.9639C12.8369 256.298 12.7441 256.272 12.6855 256.22C12.6302 256.164 12.6025 256.08 12.6025 255.966C12.6025 255.842 12.6335 255.751 12.6953 255.692C12.7572 255.634 12.8564 255.604 12.9932 255.604H14.0332C14.1569 255.604 14.2432 255.632 14.292 255.687C14.3441 255.739 14.3701 255.87 14.3701 256.078V259.428H14.5947C14.7542 259.428 14.8682 259.454 14.9365 259.506C15.0081 259.558 15.0439 259.644 15.0439 259.765C15.0439 259.882 15.0098 259.97 14.9414 260.028C14.8763 260.087 14.7803 260.116 14.6533 260.116H13.9111C13.8232 260.116 13.7549 260.098 13.7061 260.062C13.6572 260.027 13.6328 259.978 13.6328 259.916V259.584C13.3203 259.825 13.0518 259.991 12.8271 260.082C12.6058 260.17 12.3714 260.214 12.124 260.214C11.5869 260.214 11.1833 260.072 10.9131 259.789C10.6462 259.502 10.5127 259.071 10.5127 258.495V256.298H10.4102C10.1888 256.298 10.0374 256.272 9.95605 256.22C9.87467 256.168 9.83398 256.076 9.83398 255.946C9.83398 255.832 9.86491 255.748 9.92676 255.692C9.99186 255.634 10.0911 255.604 10.2246 255.604H10.9619C11.0758 255.604 11.154 255.627 11.1963 255.673C11.2419 255.718 11.2646 255.819 11.2646 255.975V258.314ZM16.3574 259.765V258.895C16.3574 258.752 16.3835 258.65 16.4355 258.588C16.4909 258.526 16.5788 258.495 16.6992 258.495C16.8327 258.495 16.9385 258.586 17.0166 258.768C17.0687 258.879 17.1159 258.962 17.1582 259.017C17.2949 259.193 17.4967 259.335 17.7637 259.442C18.0306 259.546 18.3252 259.599 18.6475 259.599C18.9925 259.599 19.2692 259.529 19.4775 259.389C19.6859 259.249 19.79 259.065 19.79 258.837C19.79 258.606 19.7054 258.441 19.5361 258.344C19.3701 258.246 19.0837 258.197 18.6768 258.197H18.4082C17.7441 258.197 17.238 258.082 16.8896 257.85C16.5413 257.619 16.3672 257.284 16.3672 256.845C16.3672 256.415 16.5365 256.081 16.875 255.844C17.2168 255.606 17.6953 255.487 18.3105 255.487C18.5612 255.487 18.8167 255.523 19.0771 255.595C19.3376 255.663 19.4743 255.697 19.4873 255.697C19.5231 255.697 19.5915 255.666 19.6924 255.604C19.7933 255.539 19.8926 255.507 19.9902 255.507C20.1009 255.507 20.1823 255.547 20.2344 255.629C20.2897 255.71 20.3174 255.832 20.3174 255.995V256.566C20.3174 256.739 20.2913 256.864 20.2393 256.942C20.1872 257.017 20.1042 257.055 19.9902 257.055C19.8926 257.055 19.7721 256.972 19.6289 256.806C19.528 256.692 19.445 256.605 19.3799 256.547C19.2074 256.387 19.0234 256.273 18.8281 256.205C18.6328 256.133 18.4033 256.098 18.1396 256.098C17.8337 256.098 17.5863 256.166 17.3975 256.303C17.2119 256.436 17.1191 256.607 17.1191 256.815C17.1191 257.02 17.2152 257.167 17.4072 257.255C17.5993 257.343 18.0127 257.393 18.6475 257.406C19.3245 257.422 19.8193 257.541 20.1318 257.763C20.4443 257.981 20.6006 258.319 20.6006 258.778C20.6006 259.218 20.4281 259.569 20.083 259.833C19.738 260.097 19.2725 260.228 18.6865 260.228C18.501 260.228 18.2943 260.21 18.0664 260.175C17.8385 260.142 17.5521 260.085 17.207 260.004C17.0931 260.079 16.9954 260.134 16.9141 260.17C16.8327 260.209 16.7643 260.228 16.709 260.228C16.5951 260.228 16.5072 260.189 16.4453 260.111C16.3867 260.03 16.3574 259.914 16.3574 259.765ZM24.043 254.198C24.043 253.847 24.0739 253.625 24.1357 253.534C24.2008 253.443 24.3376 253.397 24.5459 253.397C24.7477 253.397 24.8812 253.436 24.9463 253.515C25.0114 253.589 25.0439 253.77 25.0439 254.057C25.0439 254.336 25.013 254.511 24.9512 254.579C24.8926 254.644 24.7575 254.677 24.5459 254.677C24.3376 254.677 24.2008 254.646 24.1357 254.584C24.0739 254.522 24.043 254.393 24.043 254.198ZM24.9463 259.428H26.5137C26.6406 259.428 26.7334 259.455 26.792 259.511C26.8538 259.563 26.8848 259.647 26.8848 259.765C26.8848 259.898 26.8555 259.991 26.7969 260.043C26.7415 260.092 26.6374 260.116 26.4844 260.116H22.6953C22.5651 260.116 22.4674 260.087 22.4023 260.028C22.3372 259.97 22.3047 259.882 22.3047 259.765C22.3047 259.651 22.3389 259.566 22.4072 259.511C22.4756 259.455 22.5781 259.428 22.7148 259.428H24.2041V256.298H23.252C23.1185 256.298 23.016 256.268 22.9443 256.21C22.876 256.148 22.8418 256.06 22.8418 255.946C22.8418 255.832 22.8743 255.748 22.9395 255.692C23.0046 255.634 23.1022 255.604 23.2324 255.604H24.6631C24.751 255.604 24.8193 255.622 24.8682 255.658C24.9202 255.694 24.9463 255.743 24.9463 255.805V259.428ZM28.6816 259.428V256.298H28.5889C28.3675 256.298 28.2145 256.272 28.1299 256.22C28.0485 256.168 28.0078 256.076 28.0078 255.946C28.0078 255.826 28.042 255.739 28.1104 255.687C28.1787 255.632 28.2894 255.604 28.4424 255.604H28.6719H29.1406C29.2285 255.604 29.2969 255.622 29.3457 255.658C29.3945 255.694 29.4189 255.743 29.4189 255.805V256.137C29.6566 255.915 29.891 255.752 30.1221 255.648C30.3564 255.541 30.599 255.487 30.8496 255.487C31.3411 255.487 31.7269 255.64 32.0068 255.946C32.29 256.252 32.4316 256.675 32.4316 257.216V259.428H32.6611C32.8239 259.428 32.9411 259.455 33.0127 259.511C33.0843 259.563 33.1201 259.647 33.1201 259.765C33.1201 259.891 33.0811 259.983 33.0029 260.038C32.9281 260.09 32.793 260.116 32.5977 260.116H31.5186C31.3102 260.116 31.1768 260.092 31.1182 260.043C31.0596 259.994 31.0303 259.901 31.0303 259.765C31.0303 259.638 31.0645 259.55 31.1328 259.501C31.2012 259.452 31.3298 259.428 31.5186 259.428H31.6895V257.396C31.6895 257.016 31.6032 256.726 31.4307 256.527C31.2581 256.325 31.0075 256.224 30.6787 256.224C30.3467 256.224 30.0537 256.337 29.7998 256.561C29.5459 256.786 29.4189 257.064 29.4189 257.396V259.428H29.5898C29.7852 259.428 29.917 259.452 29.9854 259.501C30.0537 259.55 30.0879 259.638 30.0879 259.765C30.0879 259.901 30.0586 259.994 30 260.043C29.9414 260.092 29.7982 260.116 29.5703 260.116H28.6816H28.418C28.2845 260.116 28.1836 260.088 28.1152 260.033C28.0501 259.974 28.0176 259.885 28.0176 259.765C28.0176 259.634 28.055 259.546 28.1299 259.501C28.208 259.452 28.3577 259.428 28.5791 259.428H28.6816ZM34.8535 258.075C34.8796 258.544 35.0374 258.907 35.3271 259.164C35.6201 259.418 36.0189 259.545 36.5234 259.545C36.9043 259.545 37.3193 259.444 37.7686 259.242C38.2178 259.037 38.4896 258.934 38.584 258.934C38.6816 258.934 38.763 258.965 38.8281 259.027C38.8932 259.089 38.9258 259.166 38.9258 259.257C38.9258 259.351 38.8916 259.437 38.8232 259.516C38.7549 259.594 38.6458 259.67 38.4961 259.745C38.1706 259.905 37.8337 260.027 37.4854 260.111C37.1403 260.196 36.7969 260.238 36.4551 260.238C35.7129 260.238 35.1188 260.025 34.6729 259.599C34.2269 259.169 34.0039 258.601 34.0039 257.894C34.0039 257.175 34.2399 256.592 34.7119 256.146C35.1839 255.7 35.7992 255.477 36.5576 255.477C37.2445 255.477 37.8141 255.686 38.2666 256.102C38.7191 256.519 38.9453 257.024 38.9453 257.616C38.9453 257.798 38.9062 257.92 38.8281 257.982C38.7533 258.044 38.5465 258.075 38.208 258.075H38.1348H34.8535ZM34.8779 257.435H38.0566C38.0078 257.048 37.8451 256.737 37.5684 256.503C37.2949 256.265 36.958 256.146 36.5576 256.146C36.1247 256.146 35.7601 256.26 35.4639 256.488C35.1676 256.716 34.9723 257.032 34.8779 257.435ZM40.3809 259.765V258.895C40.3809 258.752 40.4069 258.65 40.459 258.588C40.5143 258.526 40.6022 258.495 40.7227 258.495C40.8561 258.495 40.9619 258.586 41.04 258.768C41.0921 258.879 41.1393 258.962 41.1816 259.017C41.3184 259.193 41.5202 259.335 41.7871 259.442C42.054 259.546 42.3486 259.599 42.6709 259.599C43.016 259.599 43.2926 259.529 43.501 259.389C43.7093 259.249 43.8135 259.065 43.8135 258.837C43.8135 258.606 43.7288 258.441 43.5596 258.344C43.3936 258.246 43.1071 258.197 42.7002 258.197H42.4316C41.7676 258.197 41.2614 258.082 40.9131 257.85C40.5648 257.619 40.3906 257.284 40.3906 256.845C40.3906 256.415 40.5599 256.081 40.8984 255.844C41.2402 255.606 41.7188 255.487 42.334 255.487C42.5846 255.487 42.8402 255.523 43.1006 255.595C43.361 255.663 43.4977 255.697 43.5107 255.697C43.5465 255.697 43.6149 255.666 43.7158 255.604C43.8167 255.539 43.916 255.507 44.0137 255.507C44.1243 255.507 44.2057 255.547 44.2578 255.629C44.3132 255.71 44.3408 255.832 44.3408 255.995V256.566C44.3408 256.739 44.3148 256.864 44.2627 256.942C44.2106 257.017 44.1276 257.055 44.0137 257.055C43.916 257.055 43.7956 256.972 43.6523 256.806C43.5514 256.692 43.4684 256.605 43.4033 256.547C43.2308 256.387 43.0469 256.273 42.8516 256.205C42.6562 256.133 42.4268 256.098 42.1631 256.098C41.8571 256.098 41.6097 256.166 41.4209 256.303C41.2354 256.436 41.1426 256.607 41.1426 256.815C41.1426 257.02 41.2386 257.167 41.4307 257.255C41.6227 257.343 42.0361 257.393 42.6709 257.406C43.348 257.422 43.8428 257.541 44.1553 257.763C44.4678 257.981 44.624 258.319 44.624 258.778C44.624 259.218 44.4515 259.569 44.1064 259.833C43.7614 260.097 43.2959 260.228 42.71 260.228C42.5244 260.228 42.3177 260.21 42.0898 260.175C41.862 260.142 41.5755 260.085 41.2305 260.004C41.1165 260.079 41.0189 260.134 40.9375 260.17C40.8561 260.209 40.7878 260.228 40.7324 260.228C40.6185 260.228 40.5306 260.189 40.4688 260.111C40.4102 260.03 40.3809 259.914 40.3809 259.765ZM46.3867 259.765V258.895C46.3867 258.752 46.4128 258.65 46.4648 258.588C46.5202 258.526 46.6081 258.495 46.7285 258.495C46.862 258.495 46.9678 258.586 47.0459 258.768C47.098 258.879 47.1452 258.962 47.1875 259.017C47.3242 259.193 47.526 259.335 47.793 259.442C48.0599 259.546 48.3545 259.599 48.6768 259.599C49.0218 259.599 49.2985 259.529 49.5068 259.389C49.7152 259.249 49.8193 259.065 49.8193 258.837C49.8193 258.606 49.7347 258.441 49.5654 258.344C49.3994 258.246 49.113 258.197 48.7061 258.197H48.4375C47.7734 258.197 47.2673 258.082 46.9189 257.85C46.5706 257.619 46.3965 257.284 46.3965 256.845C46.3965 256.415 46.5658 256.081 46.9043 255.844C47.2461 255.606 47.7246 255.487 48.3398 255.487C48.5905 255.487 48.846 255.523 49.1064 255.595C49.3669 255.663 49.5036 255.697 49.5166 255.697C49.5524 255.697 49.6208 255.666 49.7217 255.604C49.8226 255.539 49.9219 255.507 50.0195 255.507C50.1302 255.507 50.2116 255.547 50.2637 255.629C50.319 255.71 50.3467 255.832 50.3467 255.995V256.566C50.3467 256.739 50.3206 256.864 50.2686 256.942C50.2165 257.017 50.1335 257.055 50.0195 257.055C49.9219 257.055 49.8014 256.972 49.6582 256.806C49.5573 256.692 49.4743 256.605 49.4092 256.547C49.2367 256.387 49.0527 256.273 48.8574 256.205C48.6621 256.133 48.4326 256.098 48.1689 256.098C47.863 256.098 47.6156 256.166 47.4268 256.303C47.2412 256.436 47.1484 256.607 47.1484 256.815C47.1484 257.02 47.2445 257.167 47.4365 257.255C47.6286 257.343 48.042 257.393 48.6768 257.406C49.3538 257.422 49.8486 257.541 50.1611 257.763C50.4736 257.981 50.6299 258.319 50.6299 258.778C50.6299 259.218 50.4574 259.569 50.1123 259.833C49.7673 260.097 49.3018 260.228 48.7158 260.228C48.5303 260.228 48.3236 260.21 48.0957 260.175C47.8678 260.142 47.5814 260.085 47.2363 260.004C47.1224 260.079 47.0247 260.134 46.9434 260.17C46.862 260.209 46.7936 260.228 46.7383 260.228C46.6243 260.228 46.5365 260.189 46.4746 260.111C46.416 260.03 46.3867 259.914 46.3867 259.765ZM17.2705 269.314C17.2705 269.724 17.3568 270.024 17.5293 270.213C17.7018 270.402 17.9753 270.496 18.3496 270.496C18.7044 270.496 19.0072 270.384 19.2578 270.159C19.5117 269.934 19.6387 269.653 19.6387 269.314V267.298H18.9697C18.8428 267.298 18.75 267.272 18.6914 267.22C18.6361 267.164 18.6084 267.08 18.6084 266.966C18.6084 266.842 18.6393 266.751 18.7012 266.692C18.763 266.634 18.8623 266.604 18.999 266.604H20.0391C20.1628 266.604 20.249 266.632 20.2979 266.687C20.3499 266.739 20.376 266.87 20.376 267.078V270.428H20.6006C20.7601 270.428 20.874 270.454 20.9424 270.506C21.014 270.558 21.0498 270.644 21.0498 270.765C21.0498 270.882 21.0156 270.97 20.9473 271.028C20.8822 271.087 20.7861 271.116 20.6592 271.116H19.917C19.8291 271.116 19.7607 271.098 19.7119 271.062C19.6631 271.027 19.6387 270.978 19.6387 270.916V270.584C19.3262 270.825 19.0576 270.991 18.833 271.082C18.6117 271.17 18.3773 271.214 18.1299 271.214C17.5928 271.214 17.1891 271.072 16.9189 270.789C16.652 270.502 16.5186 270.071 16.5186 269.495V267.298H16.416C16.1947 267.298 16.0433 267.272 15.9619 267.22C15.8805 267.168 15.8398 267.076 15.8398 266.946C15.8398 266.832 15.8708 266.748 15.9326 266.692C15.9977 266.634 16.097 266.604 16.2305 266.604H16.9678C17.0817 266.604 17.1598 266.627 17.2021 266.673C17.2477 266.718 17.2705 266.819 17.2705 266.975V269.314ZM22.3633 270.765V269.895C22.3633 269.752 22.3893 269.65 22.4414 269.588C22.4967 269.526 22.5846 269.495 22.7051 269.495C22.8385 269.495 22.9443 269.586 23.0225 269.768C23.0745 269.879 23.1217 269.962 23.1641 270.017C23.3008 270.193 23.5026 270.335 23.7695 270.442C24.0365 270.546 24.3311 270.599 24.6533 270.599C24.9984 270.599 25.2751 270.529 25.4834 270.389C25.6917 270.249 25.7959 270.065 25.7959 269.837C25.7959 269.606 25.7113 269.441 25.542 269.344C25.376 269.246 25.0895 269.197 24.6826 269.197H24.4141C23.75 269.197 23.2438 269.082 22.8955 268.85C22.5472 268.619 22.373 268.284 22.373 267.845C22.373 267.415 22.5423 267.081 22.8809 266.844C23.2227 266.606 23.7012 266.487 24.3164 266.487C24.5671 266.487 24.8226 266.523 25.083 266.595C25.3434 266.663 25.4801 266.697 25.4932 266.697C25.529 266.697 25.5973 266.666 25.6982 266.604C25.7992 266.539 25.8984 266.507 25.9961 266.507C26.1068 266.507 26.1882 266.547 26.2402 266.629C26.2956 266.71 26.3232 266.832 26.3232 266.995V267.566C26.3232 267.739 26.2972 267.864 26.2451 267.942C26.193 268.017 26.11 268.055 25.9961 268.055C25.8984 268.055 25.778 267.972 25.6348 267.806C25.5339 267.692 25.4508 267.605 25.3857 267.547C25.2132 267.387 25.0293 267.273 24.834 267.205C24.6387 267.133 24.4092 267.098 24.1455 267.098C23.8395 267.098 23.5921 267.166 23.4033 267.303C23.2178 267.436 23.125 267.607 23.125 267.815C23.125 268.02 23.221 268.167 23.4131 268.255C23.6051 268.343 24.0186 268.393 24.6533 268.406C25.3304 268.422 25.8252 268.541 26.1377 268.763C26.4502 268.981 26.6064 269.319 26.6064 269.778C26.6064 270.218 26.4339 270.569 26.0889 270.833C25.7438 271.097 25.2783 271.228 24.6924 271.228C24.5068 271.228 24.3001 271.21 24.0723 271.175C23.8444 271.142 23.5579 271.085 23.2129 271.004C23.099 271.079 23.0013 271.134 22.9199 271.17C22.8385 271.209 22.7702 271.228 22.7148 271.228C22.6009 271.228 22.513 271.189 22.4512 271.111C22.3926 271.03 22.3633 270.914 22.3633 270.765ZM28.8477 269.075C28.8737 269.544 29.0316 269.907 29.3213 270.164C29.6143 270.418 30.013 270.545 30.5176 270.545C30.8984 270.545 31.3135 270.444 31.7627 270.242C32.2119 270.037 32.4837 269.934 32.5781 269.934C32.6758 269.934 32.7572 269.965 32.8223 270.027C32.8874 270.089 32.9199 270.166 32.9199 270.257C32.9199 270.351 32.8857 270.437 32.8174 270.516C32.749 270.594 32.64 270.67 32.4902 270.745C32.1647 270.905 31.8278 271.027 31.4795 271.111C31.1344 271.196 30.791 271.238 30.4492 271.238C29.707 271.238 29.113 271.025 28.667 270.599C28.221 270.169 27.998 269.601 27.998 268.894C27.998 268.175 28.234 267.592 28.7061 267.146C29.1781 266.7 29.7933 266.477 30.5518 266.477C31.2386 266.477 31.8083 266.686 32.2607 267.102C32.7132 267.519 32.9395 268.024 32.9395 268.616C32.9395 268.798 32.9004 268.92 32.8223 268.982C32.7474 269.044 32.5407 269.075 32.2021 269.075H32.1289H28.8477ZM28.8721 268.435H32.0508C32.002 268.048 31.8392 267.737 31.5625 267.503C31.2891 267.265 30.9521 267.146 30.5518 267.146C30.1188 267.146 29.7542 267.26 29.458 267.488C29.1618 267.716 28.9665 268.032 28.8721 268.435ZM36.0254 270.428H37.6465C37.7734 270.428 37.8662 270.455 37.9248 270.511C37.9867 270.563 38.0176 270.647 38.0176 270.765C38.0176 270.898 37.9883 270.991 37.9297 271.043C37.8743 271.092 37.7702 271.116 37.6172 271.116H34.4238C34.2969 271.116 34.2008 271.087 34.1357 271.028C34.0706 270.97 34.0381 270.882 34.0381 270.765C34.0381 270.651 34.0706 270.566 34.1357 270.511C34.2041 270.455 34.3083 270.428 34.4482 270.428H35.2979V267.298H34.9658C34.6501 267.298 34.4531 267.273 34.375 267.224C34.2969 267.172 34.2578 267.08 34.2578 266.946C34.2578 266.832 34.2887 266.748 34.3506 266.692C34.4157 266.634 34.5133 266.604 34.6436 266.604H35.7568C35.8447 266.604 35.9115 266.622 35.957 266.658C36.0026 266.691 36.0254 266.739 36.0254 266.805V267.635C36.3346 267.247 36.6569 266.959 36.9922 266.77C37.3275 266.582 37.6888 266.487 38.0762 266.487C38.3659 266.487 38.6003 266.546 38.7793 266.663C38.9583 266.78 39.0479 266.932 39.0479 267.117C39.0479 267.238 39.0023 267.345 38.9111 267.439C38.8232 267.53 38.7256 267.576 38.6182 267.576C38.5433 267.576 38.4163 267.527 38.2373 267.43C38.0615 267.329 37.9036 267.278 37.7637 267.278C37.5098 267.278 37.2412 267.369 36.958 267.552C36.6781 267.731 36.3672 268.016 36.0254 268.406V270.428Z" fill="white"/>
<path d="M201.944 257.116C201.876 257.116 201.827 257.1 201.798 257.067C201.772 257.031 201.759 256.965 201.759 256.867V256.467C201.563 256.711 201.319 256.901 201.026 257.038C200.733 257.171 200.416 257.238 200.074 257.238C199.459 257.238 198.943 257.02 198.526 256.584C198.113 256.144 197.906 255.599 197.906 254.948C197.906 254.274 198.128 253.714 198.57 253.268C199.013 252.819 199.565 252.595 200.226 252.595C200.561 252.595 200.862 252.655 201.129 252.775C201.396 252.892 201.625 253.067 201.817 253.298V251.428H201.559C201.275 251.428 201.091 251.403 201.007 251.354C200.925 251.302 200.885 251.21 200.885 251.076C200.885 250.959 200.917 250.871 200.982 250.812C201.051 250.754 201.148 250.724 201.275 250.724H202.276C202.374 250.724 202.444 250.741 202.486 250.773C202.532 250.806 202.555 250.856 202.555 250.925V256.428H202.774C202.934 256.428 203.049 256.455 203.121 256.511C203.193 256.563 203.229 256.647 203.229 256.765C203.229 256.875 203.198 256.961 203.136 257.023C203.074 257.085 202.991 257.116 202.887 257.116H201.944ZM198.746 254.924C198.746 255.373 198.891 255.741 199.181 256.027C199.47 256.314 199.838 256.457 200.284 256.457C200.733 256.457 201.103 256.309 201.393 256.013C201.682 255.713 201.827 255.334 201.827 254.875C201.827 254.422 201.682 254.05 201.393 253.757C201.106 253.464 200.737 253.317 200.284 253.317C199.825 253.317 199.454 253.465 199.171 253.762C198.888 254.058 198.746 254.445 198.746 254.924ZM204.83 255.075C204.856 255.544 205.014 255.907 205.304 256.164C205.597 256.418 205.995 256.545 206.5 256.545C206.881 256.545 207.296 256.444 207.745 256.242C208.194 256.037 208.466 255.934 208.561 255.934C208.658 255.934 208.74 255.965 208.805 256.027C208.87 256.089 208.902 256.166 208.902 256.257C208.902 256.351 208.868 256.437 208.8 256.516C208.731 256.594 208.622 256.67 208.473 256.745C208.147 256.905 207.81 257.027 207.462 257.111C207.117 257.196 206.773 257.238 206.432 257.238C205.689 257.238 205.095 257.025 204.649 256.599C204.203 256.169 203.98 255.601 203.98 254.894C203.98 254.175 204.216 253.592 204.688 253.146C205.16 252.7 205.776 252.477 206.534 252.477C207.221 252.477 207.791 252.686 208.243 253.102C208.696 253.519 208.922 254.024 208.922 254.616C208.922 254.798 208.883 254.92 208.805 254.982C208.73 255.044 208.523 255.075 208.185 255.075H208.111H204.83ZM204.854 254.435H208.033C207.984 254.048 207.822 253.737 207.545 253.503C207.271 253.265 206.935 253.146 206.534 253.146C206.101 253.146 205.737 253.26 205.44 253.488C205.144 253.716 204.949 254.032 204.854 254.435ZM210.25 253.298C210.035 253.298 209.887 253.272 209.806 253.22C209.728 253.168 209.688 253.076 209.688 252.946C209.688 252.832 209.721 252.748 209.786 252.692C209.851 252.634 209.949 252.604 210.079 252.604H211.446C211.632 252.604 211.756 252.63 211.817 252.682C211.879 252.731 211.91 252.819 211.91 252.946C211.91 253.076 211.869 253.168 211.788 253.22C211.707 253.272 211.557 253.298 211.339 253.298H211.158L212.428 256.457L213.839 253.298H213.546C213.295 253.298 213.126 253.273 213.038 253.224C212.95 253.172 212.906 253.08 212.906 252.946C212.906 252.819 212.937 252.731 212.999 252.682C213.061 252.63 213.185 252.604 213.37 252.604H214.879C215.009 252.604 215.107 252.634 215.172 252.692C215.237 252.748 215.27 252.832 215.27 252.946C215.27 253.076 215.229 253.168 215.147 253.22C215.069 253.272 214.923 253.298 214.708 253.298H214.62L213.009 256.857C212.927 257.036 212.846 257.152 212.765 257.204C212.687 257.259 212.571 257.287 212.418 257.287C212.278 257.287 212.169 257.261 212.091 257.209C212.016 257.157 211.938 257.04 211.856 256.857L210.25 253.298ZM225.831 252.878C225.991 252.878 226.106 252.905 226.178 252.961C226.253 253.016 226.29 253.104 226.29 253.224C226.29 253.338 226.256 253.425 226.188 253.483C226.119 253.539 226.017 253.566 225.88 253.566H223.902V255.197C223.902 255.731 223.971 256.083 224.107 256.252C224.247 256.421 224.485 256.506 224.82 256.506C225.117 256.506 225.471 256.419 225.885 256.247C226.298 256.074 226.554 255.988 226.651 255.988C226.743 255.988 226.819 256.021 226.881 256.086C226.946 256.151 226.979 256.231 226.979 256.325C226.979 256.432 226.938 256.527 226.856 256.608C226.778 256.686 226.643 256.763 226.451 256.838C226.132 256.965 225.844 257.057 225.587 257.116C225.333 257.175 225.094 257.204 224.869 257.204C224.488 257.204 224.168 257.144 223.907 257.023C223.65 256.9 223.458 256.717 223.331 256.476C223.266 256.363 223.219 256.227 223.189 256.071C223.163 255.915 223.15 255.674 223.15 255.349V255.197V253.566H222.32C222.184 253.566 222.084 253.54 222.022 253.488C221.961 253.433 221.93 253.345 221.93 253.224C221.93 253.091 221.972 253 222.057 252.951C222.141 252.902 222.322 252.878 222.599 252.878H223.15V251.877V251.618C223.15 251.478 223.18 251.376 223.238 251.31C223.3 251.242 223.395 251.208 223.521 251.208C223.665 251.208 223.764 251.249 223.819 251.33C223.875 251.411 223.902 251.597 223.902 251.887V252.878H225.831ZM228.854 255.075C228.88 255.544 229.037 255.907 229.327 256.164C229.62 256.418 230.019 256.545 230.523 256.545C230.904 256.545 231.319 256.444 231.769 256.242C232.218 256.037 232.49 255.934 232.584 255.934C232.682 255.934 232.763 255.965 232.828 256.027C232.893 256.089 232.926 256.166 232.926 256.257C232.926 256.351 232.892 256.437 232.823 256.516C232.755 256.594 232.646 256.67 232.496 256.745C232.171 256.905 231.834 257.027 231.485 257.111C231.14 257.196 230.797 257.238 230.455 257.238C229.713 257.238 229.119 257.025 228.673 256.599C228.227 256.169 228.004 255.601 228.004 254.894C228.004 254.175 228.24 253.592 228.712 253.146C229.184 252.7 229.799 252.477 230.558 252.477C231.244 252.477 231.814 252.686 232.267 253.102C232.719 253.519 232.945 254.024 232.945 254.616C232.945 254.798 232.906 254.92 232.828 254.982C232.753 255.044 232.547 255.075 232.208 255.075H232.135H228.854ZM228.878 254.435H232.057C232.008 254.048 231.845 253.737 231.568 253.503C231.295 253.265 230.958 253.146 230.558 253.146C230.125 253.146 229.76 253.26 229.464 253.488C229.168 253.716 228.972 254.032 228.878 254.435ZM237.594 254.958C237.415 254.899 237.241 254.857 237.071 254.831C236.905 254.802 236.739 254.787 236.573 254.787C236.072 254.787 235.676 254.872 235.387 255.041C235.097 255.21 234.952 255.438 234.952 255.724C234.952 255.946 235.042 256.128 235.221 256.271C235.403 256.415 235.634 256.486 235.914 256.486C236.327 256.486 236.71 256.379 237.062 256.164C237.416 255.946 237.594 255.72 237.594 255.485V254.958ZM237.633 256.496C237.366 256.737 237.075 256.921 236.759 257.048C236.446 257.175 236.124 257.238 235.792 257.238C235.307 257.238 234.915 257.103 234.615 256.833C234.319 256.563 234.171 256.211 234.171 255.778C234.171 255.264 234.368 254.865 234.762 254.582C235.159 254.299 235.715 254.157 236.432 254.157C236.62 254.157 236.811 254.17 237.003 254.196C237.195 254.219 237.392 254.256 237.594 254.308V254.274C237.594 253.9 237.504 253.623 237.325 253.444C237.146 253.265 236.868 253.176 236.49 253.176C236.236 253.176 235.953 253.244 235.641 253.381C235.328 253.517 235.121 253.586 235.021 253.586C234.926 253.586 234.848 253.548 234.786 253.474C234.724 253.395 234.693 253.296 234.693 253.176C234.693 252.984 234.872 252.821 235.23 252.687C235.592 252.554 236.052 252.487 236.612 252.487C237.185 252.487 237.618 252.634 237.911 252.927C238.204 253.216 238.351 253.646 238.351 254.216V256.428H238.59C238.821 256.428 238.976 256.452 239.054 256.501C239.132 256.55 239.171 256.638 239.171 256.765C239.171 256.882 239.138 256.97 239.073 257.028C239.008 257.087 238.91 257.116 238.78 257.116H238.014C237.923 257.116 237.848 257.088 237.789 257.033C237.73 256.978 237.691 256.898 237.672 256.794L237.633 256.496ZM244.327 254.396C244.327 253.937 244.285 253.628 244.2 253.469C244.119 253.306 243.977 253.224 243.775 253.224C243.535 253.224 243.342 253.329 243.199 253.537C243.059 253.745 242.989 254.032 242.989 254.396V256.428H243.077C243.276 256.428 243.408 256.452 243.473 256.501C243.541 256.546 243.575 256.634 243.575 256.765C243.575 256.882 243.548 256.97 243.492 257.028C243.437 257.087 243.352 257.116 243.238 257.116H242.618C242.478 257.116 242.382 257.084 242.33 257.018C242.281 256.953 242.257 256.813 242.257 256.599V256.457V254.396V254.016C242.257 253.771 242.201 253.579 242.091 253.439C241.98 253.296 241.829 253.224 241.637 253.224C241.49 253.224 241.355 253.268 241.231 253.356C241.111 253.441 241.007 253.568 240.919 253.737V256.428H241.1C241.295 256.428 241.427 256.452 241.495 256.501C241.563 256.55 241.598 256.638 241.598 256.765C241.598 256.898 241.57 256.991 241.515 257.043C241.459 257.092 241.354 257.116 241.197 257.116H239.898C239.771 257.116 239.677 257.088 239.615 257.033C239.557 256.974 239.527 256.885 239.527 256.765C239.527 256.634 239.565 256.546 239.64 256.501C239.718 256.452 239.868 256.428 240.089 256.428H240.187V253.298H240.099C239.871 253.298 239.715 253.272 239.63 253.22C239.549 253.168 239.508 253.076 239.508 252.946C239.508 252.832 239.54 252.748 239.605 252.692C239.671 252.634 239.768 252.604 239.898 252.604H240.646C240.753 252.604 240.823 252.624 240.855 252.663C240.891 252.699 240.912 252.777 240.919 252.897C241.052 252.754 241.196 252.648 241.349 252.58C241.502 252.512 241.674 252.477 241.866 252.477C242.094 252.477 242.281 252.528 242.428 252.629C242.577 252.726 242.688 252.876 242.76 253.078C242.896 252.873 243.054 252.722 243.233 252.624C243.412 252.526 243.618 252.477 243.849 252.477C244.269 252.477 244.575 252.614 244.767 252.888C244.962 253.161 245.06 253.604 245.06 254.216V256.428H245.138C245.34 256.428 245.475 256.452 245.543 256.501C245.611 256.55 245.646 256.638 245.646 256.765C245.646 256.882 245.616 256.97 245.558 257.028C245.499 257.087 245.413 257.116 245.299 257.116H244.708C244.578 257.116 244.482 257.077 244.42 256.999C244.358 256.921 244.327 256.797 244.327 256.628V254.396Z" fill="white"/>
<defs>
<clipPath id="clip0_26_1160">
<rect width="28" height="28" fill="white" transform="translate(107 1.11609)"/>
</clipPath>
<clipPath id="clip1_26_1160">
<rect width="28" height="28" fill="white" transform="translate(221 107.116)"/>
</clipPath>
</defs>
</svg>