<svg width="670" height="368" viewBox="0 0 670 368" fill="none" xmlns="http://www.w3.org/2000/svg">
<rect x="118.5" y="0.616211" width="438" height="366" rx="9.5" fill="#ABB8FF" fill-opacity="0.1" stroke="#ABB8FF"/>
<rect x="302.5" y="83.6162" width="367" height="208" rx="9.5" fill="#020013" stroke="#ABB8FF"/>
<path d="M172.655 35.7812C172.596 35.7904 172.55 35.7972 172.519 35.8018C172.491 35.8063 172.466 35.8086 172.443 35.8086C172.302 35.8086 172.186 35.7699 172.095 35.6924C172.008 35.6104 171.965 35.5033 171.965 35.3711C171.965 35.2617 172.004 35.166 172.081 35.084C172.159 35.002 172.27 34.9404 172.416 34.8994L174.446 34.3525C174.496 34.3389 174.544 34.3298 174.59 34.3252C174.64 34.3161 174.69 34.3115 174.74 34.3115C174.827 34.3115 174.895 34.3525 174.945 34.4346C174.995 34.512 175.021 34.6191 175.021 34.7559V42.1523H176.114C176.52 42.1523 176.777 42.1865 176.887 42.2549C176.996 42.3187 177.051 42.4417 177.051 42.624C177.051 42.7881 177.005 42.9111 176.914 42.9932C176.823 43.0752 176.686 43.1162 176.504 43.1162H172.416C172.234 43.1162 172.097 43.0752 172.006 42.9932C171.915 42.9111 171.869 42.7881 171.869 42.624C171.869 42.4417 171.924 42.3187 172.033 42.2549C172.143 42.1865 172.4 42.1523 172.806 42.1523H173.94V35.4736L172.655 35.7812ZM181.036 40.7646C181.036 41.2477 181.187 41.6396 181.487 41.9404C181.793 42.2412 182.196 42.3916 182.697 42.3916C183.203 42.3916 183.606 42.2458 183.907 41.9541C184.213 41.6624 184.365 41.2751 184.365 40.792C184.365 40.318 184.21 39.9352 183.9 39.6436C183.59 39.3473 183.189 39.1992 182.697 39.1992C182.21 39.1992 181.811 39.3451 181.501 39.6367C181.191 39.9238 181.036 40.2998 181.036 40.7646ZM181.104 36.6904C181.104 37.1416 181.253 37.5107 181.549 37.7979C181.85 38.085 182.232 38.2285 182.697 38.2285C183.167 38.2285 183.549 38.085 183.846 37.7979C184.146 37.5062 184.297 37.1325 184.297 36.6768C184.297 36.2393 184.146 35.8792 183.846 35.5967C183.549 35.3096 183.167 35.166 182.697 35.166C182.228 35.166 181.845 35.3096 181.549 35.5967C181.253 35.8792 181.104 36.2438 181.104 36.6904ZM181.33 38.6934C180.888 38.4746 180.555 38.1989 180.332 37.8662C180.109 37.529 179.997 37.137 179.997 36.6904C179.997 35.984 180.25 35.4053 180.756 34.9541C181.262 34.4984 181.909 34.2705 182.697 34.2705C183.472 34.2705 184.117 34.4984 184.632 34.9541C185.147 35.4098 185.404 35.9658 185.404 36.6221C185.404 37.1097 185.295 37.5221 185.076 37.8594C184.857 38.1966 184.518 38.4746 184.058 38.6934C184.518 38.8802 184.871 39.1559 185.117 39.5205C185.363 39.8805 185.486 40.3044 185.486 40.792C185.486 41.5439 185.227 42.1569 184.707 42.6309C184.192 43.1048 183.522 43.3418 182.697 43.3418C181.872 43.3418 181.202 43.1025 180.688 42.624C180.173 42.1455 179.915 41.5257 179.915 40.7646C179.915 40.2998 180.038 39.8874 180.284 39.5273C180.53 39.1628 180.879 38.8848 181.33 38.6934Z" fill="white"/>
<path d="M172.655 58.7812C172.596 58.7904 172.55 58.7972 172.519 58.8018C172.491 58.8063 172.466 58.8086 172.443 58.8086C172.302 58.8086 172.186 58.7699 172.095 58.6924C172.008 58.6104 171.965 58.5033 171.965 58.3711C171.965 58.2617 172.004 58.166 172.081 58.084C172.159 58.002 172.27 57.9404 172.416 57.8994L174.446 57.3525C174.496 57.3389 174.544 57.3298 174.59 57.3252C174.64 57.3161 174.69 57.3115 174.74 57.3115C174.827 57.3115 174.895 57.3525 174.945 57.4346C174.995 57.512 175.021 57.6191 175.021 57.7559V65.1523H176.114C176.52 65.1523 176.777 65.1865 176.887 65.2549C176.996 65.3187 177.051 65.4417 177.051 65.624C177.051 65.7881 177.005 65.9111 176.914 65.9932C176.823 66.0752 176.686 66.1162 176.504 66.1162H172.416C172.234 66.1162 172.097 66.0752 172.006 65.9932C171.915 65.9111 171.869 65.7881 171.869 65.624C171.869 65.4417 171.924 65.3187 172.033 65.2549C172.143 65.1865 172.4 65.1523 172.806 65.1523H173.94V58.4736L172.655 58.7812ZM184.256 61.9873C184.01 62.3018 183.739 62.5365 183.442 62.6914C183.146 62.8464 182.82 62.9238 182.465 62.9238C181.745 62.9238 181.132 62.6549 180.626 62.1172C180.125 61.5749 179.874 60.9095 179.874 60.1211C179.874 59.2917 180.116 58.6104 180.599 58.0771C181.086 57.5394 181.708 57.2705 182.465 57.2705C183.358 57.2705 184.078 57.6305 184.625 58.3506C185.172 59.0661 185.445 60.0163 185.445 61.2012C185.445 62.7643 185.044 64.013 184.242 64.9473C183.445 65.877 182.376 66.3418 181.036 66.3418C180.612 66.3418 180.33 66.3099 180.188 66.2461C180.052 66.1823 179.983 66.0638 179.983 65.8906C179.983 65.599 180.255 65.4463 180.797 65.4326C181.157 65.4235 181.442 65.3984 181.651 65.3574C182.371 65.2253 182.955 64.8675 183.401 64.2842C183.853 63.7008 184.137 62.9352 184.256 61.9873ZM184.112 60.1553C184.112 59.5902 183.962 59.1322 183.661 58.7812C183.365 58.4258 182.984 58.248 182.52 58.248C182.077 58.248 181.72 58.4144 181.446 58.7471C181.173 59.0798 181.036 59.515 181.036 60.0527C181.036 60.6087 181.18 61.0622 181.467 61.4131C181.754 61.7594 182.123 61.9326 182.574 61.9326C183.016 61.9326 183.383 61.7663 183.675 61.4336C183.966 61.0964 184.112 60.6702 184.112 60.1553Z" fill="white"/>
<path d="M171.91 89.1162C171.669 89.1162 171.489 89.0684 171.37 88.9727C171.256 88.8724 171.199 88.7197 171.199 88.5146C171.199 88.2184 171.637 87.6624 172.512 86.8467L172.71 86.6553C172.842 86.5277 173.034 86.3454 173.284 86.1084C174.861 84.6227 175.649 83.5404 175.649 82.8613C175.649 82.3737 175.51 81.9795 175.232 81.6787C174.954 81.3734 174.594 81.2207 174.152 81.2207C173.865 81.2207 173.59 81.2799 173.325 81.3984C173.065 81.5169 172.856 81.6764 172.696 81.877C172.669 81.9134 172.626 81.9749 172.566 82.0615C172.398 82.3669 172.209 82.5195 171.999 82.5195C171.835 82.5195 171.719 82.4694 171.65 82.3691C171.582 82.2689 171.548 82.0775 171.548 81.7949C171.548 81.6309 171.564 81.5124 171.596 81.4395C171.628 81.362 171.687 81.2799 171.773 81.1934C172.065 80.9108 172.425 80.6875 172.854 80.5234C173.286 80.3548 173.729 80.2705 174.18 80.2705C174.936 80.2705 175.567 80.5143 176.073 81.002C176.584 81.4896 176.839 82.0889 176.839 82.7998C176.839 83.693 176.064 84.8802 174.515 86.3613C174.118 86.7305 173.815 87.0199 173.605 87.2295L172.765 88.0361H175.889C175.907 87.8402 175.959 87.6921 176.046 87.5918C176.137 87.487 176.258 87.4346 176.408 87.4346C176.559 87.4346 176.677 87.4847 176.764 87.585C176.85 87.6852 176.894 87.8219 176.894 87.9951C176.894 88.0088 176.891 88.0339 176.887 88.0703C176.882 88.1022 176.88 88.125 176.88 88.1387L176.825 88.665C176.812 88.8063 176.771 88.918 176.702 89C176.634 89.0775 176.545 89.1162 176.436 89.1162H171.91ZM182.697 81.248C182.173 81.248 181.765 81.5579 181.474 82.1777C181.182 82.7975 181.036 83.6725 181.036 84.8027C181.036 85.9375 181.182 86.8171 181.474 87.4414C181.765 88.0612 182.173 88.3711 182.697 88.3711C183.226 88.3711 183.636 88.0612 183.928 87.4414C184.219 86.8171 184.365 85.9375 184.365 84.8027C184.365 83.6725 184.219 82.7975 183.928 82.1777C183.636 81.5579 183.226 81.248 182.697 81.248ZM182.697 89.3418C181.84 89.3418 181.159 88.9385 180.653 88.1318C180.152 87.3206 179.901 86.2109 179.901 84.8027C179.901 83.3991 180.152 82.2939 180.653 81.4873C181.159 80.6761 181.84 80.2705 182.697 80.2705C183.554 80.2705 184.235 80.6761 184.741 81.4873C185.247 82.2985 185.5 83.4036 185.5 84.8027C185.5 86.2018 185.247 87.3092 184.741 88.125C184.235 88.9362 183.554 89.3418 182.697 89.3418Z" fill="white"/>
<path d="M171.91 112.116C171.669 112.116 171.489 112.068 171.37 111.973C171.256 111.872 171.199 111.72 171.199 111.515C171.199 111.218 171.637 110.662 172.512 109.847L172.71 109.655C172.842 109.528 173.034 109.345 173.284 109.108C174.861 107.623 175.649 106.54 175.649 105.861C175.649 105.374 175.51 104.979 175.232 104.679C174.954 104.373 174.594 104.221 174.152 104.221C173.865 104.221 173.59 104.28 173.325 104.398C173.065 104.517 172.856 104.676 172.696 104.877C172.669 104.913 172.626 104.975 172.566 105.062C172.398 105.367 172.209 105.52 171.999 105.52C171.835 105.52 171.719 105.469 171.65 105.369C171.582 105.269 171.548 105.077 171.548 104.795C171.548 104.631 171.564 104.512 171.596 104.439C171.628 104.362 171.687 104.28 171.773 104.193C172.065 103.911 172.425 103.688 172.854 103.523C173.286 103.355 173.729 103.271 174.18 103.271C174.936 103.271 175.567 103.514 176.073 104.002C176.584 104.49 176.839 105.089 176.839 105.8C176.839 106.693 176.064 107.88 174.515 109.361C174.118 109.73 173.815 110.02 173.605 110.229L172.765 111.036H175.889C175.907 110.84 175.959 110.692 176.046 110.592C176.137 110.487 176.258 110.435 176.408 110.435C176.559 110.435 176.677 110.485 176.764 110.585C176.85 110.685 176.894 110.822 176.894 110.995C176.894 111.009 176.891 111.034 176.887 111.07C176.882 111.102 176.88 111.125 176.88 111.139L176.825 111.665C176.812 111.806 176.771 111.918 176.702 112C176.634 112.077 176.545 112.116 176.436 112.116H171.91ZM181.063 104.781C181.004 104.79 180.959 104.797 180.927 104.802C180.899 104.806 180.874 104.809 180.852 104.809C180.71 104.809 180.594 104.77 180.503 104.692C180.416 104.61 180.373 104.503 180.373 104.371C180.373 104.262 180.412 104.166 180.489 104.084C180.567 104.002 180.678 103.94 180.824 103.899L182.854 103.353C182.905 103.339 182.952 103.33 182.998 103.325C183.048 103.316 183.098 103.312 183.148 103.312C183.235 103.312 183.303 103.353 183.354 103.435C183.404 103.512 183.429 103.619 183.429 103.756V111.152H184.522C184.928 111.152 185.186 111.187 185.295 111.255C185.404 111.319 185.459 111.442 185.459 111.624C185.459 111.788 185.413 111.911 185.322 111.993C185.231 112.075 185.094 112.116 184.912 112.116H180.824C180.642 112.116 180.505 112.075 180.414 111.993C180.323 111.911 180.277 111.788 180.277 111.624C180.277 111.442 180.332 111.319 180.441 111.255C180.551 111.187 180.808 111.152 181.214 111.152H182.349V104.474L181.063 104.781Z" fill="white"/>
<path d="M171.91 135.116C171.669 135.116 171.489 135.068 171.37 134.973C171.256 134.872 171.199 134.72 171.199 134.515C171.199 134.218 171.637 133.662 172.512 132.847L172.71 132.655C172.842 132.528 173.034 132.345 173.284 132.108C174.861 130.623 175.649 129.54 175.649 128.861C175.649 128.374 175.51 127.979 175.232 127.679C174.954 127.373 174.594 127.221 174.152 127.221C173.865 127.221 173.59 127.28 173.325 127.398C173.065 127.517 172.856 127.676 172.696 127.877C172.669 127.913 172.626 127.975 172.566 128.062C172.398 128.367 172.209 128.52 171.999 128.52C171.835 128.52 171.719 128.469 171.65 128.369C171.582 128.269 171.548 128.077 171.548 127.795C171.548 127.631 171.564 127.512 171.596 127.439C171.628 127.362 171.687 127.28 171.773 127.193C172.065 126.911 172.425 126.688 172.854 126.523C173.286 126.355 173.729 126.271 174.18 126.271C174.936 126.271 175.567 126.514 176.073 127.002C176.584 127.49 176.839 128.089 176.839 128.8C176.839 129.693 176.064 130.88 174.515 132.361C174.118 132.73 173.815 133.02 173.605 133.229L172.765 134.036H175.889C175.907 133.84 175.959 133.692 176.046 133.592C176.137 133.487 176.258 133.435 176.408 133.435C176.559 133.435 176.677 133.485 176.764 133.585C176.85 133.685 176.894 133.822 176.894 133.995C176.894 134.009 176.891 134.034 176.887 134.07C176.882 134.102 176.88 134.125 176.88 134.139L176.825 134.665C176.812 134.806 176.771 134.918 176.702 135C176.634 135.077 176.545 135.116 176.436 135.116H171.91ZM180.318 135.116C180.077 135.116 179.897 135.068 179.778 134.973C179.664 134.872 179.607 134.72 179.607 134.515C179.607 134.218 180.045 133.662 180.92 132.847L181.118 132.655C181.25 132.528 181.442 132.345 181.692 132.108C183.269 130.623 184.058 129.54 184.058 128.861C184.058 128.374 183.919 127.979 183.641 127.679C183.363 127.373 183.003 127.221 182.561 127.221C182.273 127.221 181.998 127.28 181.733 127.398C181.474 127.517 181.264 127.676 181.104 127.877C181.077 127.913 181.034 127.975 180.975 128.062C180.806 128.367 180.617 128.52 180.407 128.52C180.243 128.52 180.127 128.469 180.059 128.369C179.99 128.269 179.956 128.077 179.956 127.795C179.956 127.631 179.972 127.512 180.004 127.439C180.036 127.362 180.095 127.28 180.182 127.193C180.473 126.911 180.833 126.688 181.262 126.523C181.695 126.355 182.137 126.271 182.588 126.271C183.344 126.271 183.976 126.514 184.481 127.002C184.992 127.49 185.247 128.089 185.247 128.8C185.247 129.693 184.472 130.88 182.923 132.361C182.526 132.73 182.223 133.02 182.014 133.229L181.173 134.036H184.297C184.315 133.84 184.368 133.692 184.454 133.592C184.545 133.487 184.666 133.435 184.816 133.435C184.967 133.435 185.085 133.485 185.172 133.585C185.258 133.685 185.302 133.822 185.302 133.995C185.302 134.009 185.299 134.034 185.295 134.07C185.29 134.102 185.288 134.125 185.288 134.139L185.233 134.665C185.22 134.806 185.179 134.918 185.11 135C185.042 135.077 184.953 135.116 184.844 135.116H180.318Z" fill="white"/>
<path d="M171.91 158.116C171.669 158.116 171.489 158.068 171.37 157.973C171.256 157.872 171.199 157.72 171.199 157.515C171.199 157.218 171.637 156.662 172.512 155.847L172.71 155.655C172.842 155.528 173.034 155.345 173.284 155.108C174.861 153.623 175.649 152.54 175.649 151.861C175.649 151.374 175.51 150.979 175.232 150.679C174.954 150.373 174.594 150.221 174.152 150.221C173.865 150.221 173.59 150.28 173.325 150.398C173.065 150.517 172.856 150.676 172.696 150.877C172.669 150.913 172.626 150.975 172.566 151.062C172.398 151.367 172.209 151.52 171.999 151.52C171.835 151.52 171.719 151.469 171.65 151.369C171.582 151.269 171.548 151.077 171.548 150.795C171.548 150.631 171.564 150.512 171.596 150.439C171.628 150.362 171.687 150.28 171.773 150.193C172.065 149.911 172.425 149.688 172.854 149.523C173.286 149.355 173.729 149.271 174.18 149.271C174.936 149.271 175.567 149.514 176.073 150.002C176.584 150.49 176.839 151.089 176.839 151.8C176.839 152.693 176.064 153.88 174.515 155.361C174.118 155.73 173.815 156.02 173.605 156.229L172.765 157.036H175.889C175.907 156.84 175.959 156.692 176.046 156.592C176.137 156.487 176.258 156.435 176.408 156.435C176.559 156.435 176.677 156.485 176.764 156.585C176.85 156.685 176.894 156.822 176.894 156.995C176.894 157.009 176.891 157.034 176.887 157.07C176.882 157.102 176.88 157.125 176.88 157.139L176.825 157.665C176.812 157.806 176.771 157.918 176.702 158C176.634 158.077 176.545 158.116 176.436 158.116H171.91ZM183.764 153.413C184.297 153.559 184.709 153.826 185.001 154.213C185.297 154.596 185.445 155.065 185.445 155.621C185.445 156.419 185.163 157.073 184.598 157.583C184.033 158.089 183.301 158.342 182.403 158.342C181.711 158.342 181.093 158.21 180.551 157.945C180.013 157.676 179.744 157.382 179.744 157.063C179.744 156.927 179.792 156.815 179.888 156.729C179.988 156.637 180.109 156.592 180.25 156.592C180.327 156.592 180.608 156.708 181.091 156.94C181.578 157.173 182.032 157.289 182.451 157.289C182.993 157.289 183.433 157.134 183.771 156.824C184.112 156.514 184.283 156.113 184.283 155.621C184.283 155.215 184.165 154.874 183.928 154.596C183.695 154.313 183.374 154.133 182.964 154.056C182.841 154.033 182.679 154.015 182.479 154.001C182.096 153.978 181.904 153.819 181.904 153.522C181.904 153.254 182.091 153.096 182.465 153.051C182.611 153.037 182.731 153.021 182.827 153.003C183.183 152.948 183.47 152.802 183.688 152.565C183.907 152.328 184.017 152.041 184.017 151.704C184.017 151.271 183.882 150.918 183.613 150.645C183.344 150.371 183.003 150.234 182.588 150.234C182.205 150.234 181.811 150.353 181.405 150.59C181.004 150.827 180.754 150.945 180.653 150.945C180.526 150.945 180.419 150.904 180.332 150.822C180.25 150.74 180.209 150.638 180.209 150.515C180.209 150.237 180.464 149.961 180.975 149.688C181.485 149.41 182.05 149.271 182.67 149.271C183.381 149.271 183.971 149.487 184.44 149.92C184.914 150.348 185.151 150.877 185.151 151.506C185.151 151.984 185.037 152.379 184.81 152.688C184.586 152.998 184.238 153.24 183.764 153.413Z" fill="white"/>
<path d="M171.91 181.116C171.669 181.116 171.489 181.068 171.37 180.973C171.256 180.872 171.199 180.72 171.199 180.515C171.199 180.218 171.637 179.662 172.512 178.847L172.71 178.655C172.842 178.528 173.034 178.345 173.284 178.108C174.861 176.623 175.649 175.54 175.649 174.861C175.649 174.374 175.51 173.979 175.232 173.679C174.954 173.373 174.594 173.221 174.152 173.221C173.865 173.221 173.59 173.28 173.325 173.398C173.065 173.517 172.856 173.676 172.696 173.877C172.669 173.913 172.626 173.975 172.566 174.062C172.398 174.367 172.209 174.52 171.999 174.52C171.835 174.52 171.719 174.469 171.65 174.369C171.582 174.269 171.548 174.077 171.548 173.795C171.548 173.631 171.564 173.512 171.596 173.439C171.628 173.362 171.687 173.28 171.773 173.193C172.065 172.911 172.425 172.688 172.854 172.523C173.286 172.355 173.729 172.271 174.18 172.271C174.936 172.271 175.567 172.514 176.073 173.002C176.584 173.49 176.839 174.089 176.839 174.8C176.839 175.693 176.064 176.88 174.515 178.361C174.118 178.73 173.815 179.02 173.605 179.229L172.765 180.036H175.889C175.907 179.84 175.959 179.692 176.046 179.592C176.137 179.487 176.258 179.435 176.408 179.435C176.559 179.435 176.677 179.485 176.764 179.585C176.85 179.685 176.894 179.822 176.894 179.995C176.894 180.009 176.891 180.034 176.887 180.07C176.882 180.102 176.88 180.125 176.88 180.139L176.825 180.665C176.812 180.806 176.771 180.918 176.702 181C176.634 181.077 176.545 181.116 176.436 181.116H171.91ZM183.271 177.965V173.33L180.681 177.965H183.271ZM182.533 181.116C182.314 181.116 182.166 181.082 182.089 181.014C182.011 180.941 181.973 180.811 181.973 180.624C181.973 180.46 182.011 180.341 182.089 180.269C182.171 180.191 182.301 180.152 182.479 180.152H183.271V179.004H180.079C179.965 179.004 179.876 178.967 179.812 178.895C179.749 178.822 179.717 178.717 179.717 178.58V178.108C179.717 177.926 179.783 177.735 179.915 177.534C179.938 177.498 179.956 177.468 179.97 177.445L182.854 172.551C182.918 172.437 182.971 172.364 183.012 172.332C183.053 172.3 183.107 172.284 183.176 172.284C183.203 172.284 183.251 172.289 183.319 172.298C183.338 172.302 183.356 172.307 183.374 172.312L184.071 172.421C184.135 172.43 184.185 172.466 184.222 172.53C184.263 172.59 184.283 172.669 184.283 172.77V177.965H184.632C184.732 177.965 184.81 177.926 184.864 177.849C184.919 177.767 184.98 177.726 185.049 177.726C185.14 177.726 185.217 177.76 185.281 177.828C185.345 177.896 185.377 177.981 185.377 178.081C185.377 178.122 185.375 178.161 185.37 178.197C185.366 178.229 185.356 178.263 185.343 178.3L185.288 178.58C185.256 178.744 185.208 178.856 185.145 178.915C185.085 178.974 184.99 179.004 184.857 179.004H184.283V180.152H184.522C184.814 180.152 185.015 180.189 185.124 180.262C185.233 180.33 185.288 180.451 185.288 180.624C185.288 180.788 185.243 180.911 185.151 180.993C185.06 181.075 184.924 181.116 184.741 181.116H182.533Z" fill="white"/>
<path d="M171.91 204.116C171.669 204.116 171.489 204.068 171.37 203.973C171.256 203.872 171.199 203.72 171.199 203.515C171.199 203.218 171.637 202.662 172.512 201.847L172.71 201.655C172.842 201.528 173.034 201.345 173.284 201.108C174.861 199.623 175.649 198.54 175.649 197.861C175.649 197.374 175.51 196.979 175.232 196.679C174.954 196.373 174.594 196.221 174.152 196.221C173.865 196.221 173.59 196.28 173.325 196.398C173.065 196.517 172.856 196.676 172.696 196.877C172.669 196.913 172.626 196.975 172.566 197.062C172.398 197.367 172.209 197.52 171.999 197.52C171.835 197.52 171.719 197.469 171.65 197.369C171.582 197.269 171.548 197.077 171.548 196.795C171.548 196.631 171.564 196.512 171.596 196.439C171.628 196.362 171.687 196.28 171.773 196.193C172.065 195.911 172.425 195.688 172.854 195.523C173.286 195.355 173.729 195.271 174.18 195.271C174.936 195.271 175.567 195.514 176.073 196.002C176.584 196.49 176.839 197.089 176.839 197.8C176.839 198.693 176.064 199.88 174.515 201.361C174.118 201.73 173.815 202.02 173.605 202.229L172.765 203.036H175.889C175.907 202.84 175.959 202.692 176.046 202.592C176.137 202.487 176.258 202.435 176.408 202.435C176.559 202.435 176.677 202.485 176.764 202.585C176.85 202.685 176.894 202.822 176.894 202.995C176.894 203.009 176.891 203.034 176.887 203.07C176.882 203.102 176.88 203.125 176.88 203.139L176.825 203.665C176.812 203.806 176.771 203.918 176.702 204C176.634 204.077 176.545 204.116 176.436 204.116H171.91ZM181.159 198.771C181.46 198.661 181.738 198.581 181.993 198.531C182.248 198.477 182.492 198.449 182.725 198.449C183.522 198.449 184.185 198.727 184.714 199.283C185.247 199.835 185.514 200.521 185.514 201.341C185.514 202.211 185.22 202.929 184.632 203.494C184.044 204.059 183.292 204.342 182.376 204.342C181.61 204.342 180.968 204.239 180.448 204.034C179.933 203.825 179.676 203.572 179.676 203.275C179.676 203.157 179.724 203.052 179.819 202.961C179.915 202.865 180.027 202.817 180.154 202.817C180.204 202.817 180.471 202.906 180.954 203.084C181.442 203.257 181.893 203.344 182.308 203.344C182.918 203.344 183.413 203.161 183.791 202.797C184.174 202.428 184.365 201.954 184.365 201.375C184.365 200.81 184.185 200.34 183.825 199.967C183.465 199.589 183.012 199.399 182.465 199.399C182.055 199.399 181.651 199.502 181.255 199.707C180.863 199.912 180.626 200.015 180.544 200.015C180.407 200.015 180.309 199.965 180.25 199.864C180.195 199.764 180.168 199.582 180.168 199.317V195.913C180.168 195.763 180.214 195.656 180.305 195.592C180.4 195.523 180.564 195.489 180.797 195.489H184.256C184.475 195.489 184.639 195.535 184.748 195.626C184.857 195.713 184.912 195.845 184.912 196.022C184.912 196.191 184.855 196.323 184.741 196.419C184.627 196.51 184.465 196.556 184.256 196.556H181.159V198.771Z" fill="white"/>
<path d="M171.91 227.116C171.669 227.116 171.489 227.068 171.37 226.973C171.256 226.872 171.199 226.72 171.199 226.515C171.199 226.218 171.637 225.662 172.512 224.847L172.71 224.655C172.842 224.528 173.034 224.345 173.284 224.108C174.861 222.623 175.649 221.54 175.649 220.861C175.649 220.374 175.51 219.979 175.232 219.679C174.954 219.373 174.594 219.221 174.152 219.221C173.865 219.221 173.59 219.28 173.325 219.398C173.065 219.517 172.856 219.676 172.696 219.877C172.669 219.913 172.626 219.975 172.566 220.062C172.398 220.367 172.209 220.52 171.999 220.52C171.835 220.52 171.719 220.469 171.65 220.369C171.582 220.269 171.548 220.077 171.548 219.795C171.548 219.631 171.564 219.512 171.596 219.439C171.628 219.362 171.687 219.28 171.773 219.193C172.065 218.911 172.425 218.688 172.854 218.523C173.286 218.355 173.729 218.271 174.18 218.271C174.936 218.271 175.567 218.514 176.073 219.002C176.584 219.49 176.839 220.089 176.839 220.8C176.839 221.693 176.064 222.88 174.515 224.361C174.118 224.73 173.815 225.02 173.605 225.229L172.765 226.036H175.889C175.907 225.84 175.959 225.692 176.046 225.592C176.137 225.487 176.258 225.435 176.408 225.435C176.559 225.435 176.677 225.485 176.764 225.585C176.85 225.685 176.894 225.822 176.894 225.995C176.894 226.009 176.891 226.034 176.887 226.07C176.882 226.102 176.88 226.125 176.88 226.139L176.825 226.665C176.812 226.806 176.771 226.918 176.702 227C176.634 227.077 176.545 227.116 176.436 227.116H171.91ZM181.228 224.457C181.228 225.018 181.376 225.476 181.672 225.831C181.968 226.182 182.349 226.357 182.813 226.357C183.251 226.357 183.609 226.191 183.887 225.858C184.169 225.526 184.311 225.09 184.311 224.553C184.311 223.997 184.165 223.546 183.873 223.199C183.586 222.853 183.215 222.68 182.759 222.68C182.317 222.68 181.95 222.846 181.658 223.179C181.371 223.511 181.228 223.938 181.228 224.457ZM181.077 222.639C181.323 222.32 181.597 222.08 181.897 221.921C182.198 221.761 182.526 221.682 182.882 221.682C183.602 221.682 184.213 221.953 184.714 222.495C185.22 223.037 185.473 223.705 185.473 224.498C185.473 225.327 185.229 226.009 184.741 226.542C184.254 227.075 183.629 227.342 182.868 227.342C181.97 227.342 181.25 226.986 180.708 226.275C180.17 225.56 179.901 224.607 179.901 223.418C179.901 221.868 180.3 220.624 181.098 219.686C181.895 218.742 182.948 218.271 184.256 218.271C184.698 218.271 184.99 218.302 185.131 218.366C185.272 218.43 185.343 218.551 185.343 218.729C185.343 219.02 185.074 219.171 184.536 219.18C184.181 219.184 183.896 219.207 183.682 219.248C182.962 219.385 182.376 219.747 181.925 220.335C181.478 220.918 181.196 221.686 181.077 222.639Z" fill="white"/>
<path d="M171.91 250.116C171.669 250.116 171.489 250.068 171.37 249.973C171.256 249.872 171.199 249.72 171.199 249.515C171.199 249.218 171.637 248.662 172.512 247.847L172.71 247.655C172.842 247.528 173.034 247.345 173.284 247.108C174.861 245.623 175.649 244.54 175.649 243.861C175.649 243.374 175.51 242.979 175.232 242.679C174.954 242.373 174.594 242.221 174.152 242.221C173.865 242.221 173.59 242.28 173.325 242.398C173.065 242.517 172.856 242.676 172.696 242.877C172.669 242.913 172.626 242.975 172.566 243.062C172.398 243.367 172.209 243.52 171.999 243.52C171.835 243.52 171.719 243.469 171.65 243.369C171.582 243.269 171.548 243.077 171.548 242.795C171.548 242.631 171.564 242.512 171.596 242.439C171.628 242.362 171.687 242.28 171.773 242.193C172.065 241.911 172.425 241.688 172.854 241.523C173.286 241.355 173.729 241.271 174.18 241.271C174.936 241.271 175.567 241.514 176.073 242.002C176.584 242.49 176.839 243.089 176.839 243.8C176.839 244.693 176.064 245.88 174.515 247.361C174.118 247.73 173.815 248.02 173.605 248.229L172.765 249.036H175.889C175.907 248.84 175.959 248.692 176.046 248.592C176.137 248.487 176.258 248.435 176.408 248.435C176.559 248.435 176.677 248.485 176.764 248.585C176.85 248.685 176.894 248.822 176.894 248.995C176.894 249.009 176.891 249.034 176.887 249.07C176.882 249.102 176.88 249.125 176.88 249.139L176.825 249.665C176.812 249.806 176.771 249.918 176.702 250C176.634 250.077 176.545 250.116 176.436 250.116H171.91ZM182.8 249.979C182.763 250.089 182.729 250.16 182.697 250.191C182.665 250.223 182.606 250.239 182.52 250.239H182.403H181.918C181.827 250.239 181.754 250.221 181.699 250.185C181.649 250.148 181.624 250.098 181.624 250.034C181.624 249.998 181.626 249.964 181.631 249.932C181.64 249.895 181.651 249.854 181.665 249.809L184.352 242.515H180.879C180.865 242.729 180.817 242.888 180.735 242.993C180.653 243.093 180.533 243.144 180.373 243.144C180.218 243.144 180.102 243.105 180.024 243.027C179.951 242.95 179.915 242.829 179.915 242.665C179.915 242.619 179.915 242.585 179.915 242.562C179.92 242.54 179.924 242.519 179.929 242.501L179.997 241.886C180.011 241.758 180.056 241.66 180.134 241.592C180.216 241.523 180.325 241.489 180.462 241.489H184.98C185.113 241.489 185.208 241.519 185.268 241.578C185.331 241.633 185.363 241.722 185.363 241.845V242.077C185.363 242.132 185.352 242.205 185.329 242.296C185.306 242.382 185.27 242.501 185.22 242.651L182.8 249.979Z" fill="white"/>
<path d="M171.91 273.116C171.669 273.116 171.489 273.068 171.37 272.973C171.256 272.872 171.199 272.72 171.199 272.515C171.199 272.218 171.637 271.662 172.512 270.847L172.71 270.655C172.842 270.528 173.034 270.345 173.284 270.108C174.861 268.623 175.649 267.54 175.649 266.861C175.649 266.374 175.51 265.979 175.232 265.679C174.954 265.373 174.594 265.221 174.152 265.221C173.865 265.221 173.59 265.28 173.325 265.398C173.065 265.517 172.856 265.676 172.696 265.877C172.669 265.913 172.626 265.975 172.566 266.062C172.398 266.367 172.209 266.52 171.999 266.52C171.835 266.52 171.719 266.469 171.65 266.369C171.582 266.269 171.548 266.077 171.548 265.795C171.548 265.631 171.564 265.512 171.596 265.439C171.628 265.362 171.687 265.28 171.773 265.193C172.065 264.911 172.425 264.688 172.854 264.523C173.286 264.355 173.729 264.271 174.18 264.271C174.936 264.271 175.567 264.514 176.073 265.002C176.584 265.49 176.839 266.089 176.839 266.8C176.839 267.693 176.064 268.88 174.515 270.361C174.118 270.73 173.815 271.02 173.605 271.229L172.765 272.036H175.889C175.907 271.84 175.959 271.692 176.046 271.592C176.137 271.487 176.258 271.435 176.408 271.435C176.559 271.435 176.677 271.485 176.764 271.585C176.85 271.685 176.894 271.822 176.894 271.995C176.894 272.009 176.891 272.034 176.887 272.07C176.882 272.102 176.88 272.125 176.88 272.139L176.825 272.665C176.812 272.806 176.771 272.918 176.702 273C176.634 273.077 176.545 273.116 176.436 273.116H171.91ZM181.036 270.765C181.036 271.248 181.187 271.64 181.487 271.94C181.793 272.241 182.196 272.392 182.697 272.392C183.203 272.392 183.606 272.246 183.907 271.954C184.213 271.662 184.365 271.275 184.365 270.792C184.365 270.318 184.21 269.935 183.9 269.644C183.59 269.347 183.189 269.199 182.697 269.199C182.21 269.199 181.811 269.345 181.501 269.637C181.191 269.924 181.036 270.3 181.036 270.765ZM181.104 266.69C181.104 267.142 181.253 267.511 181.549 267.798C181.85 268.085 182.232 268.229 182.697 268.229C183.167 268.229 183.549 268.085 183.846 267.798C184.146 267.506 184.297 267.132 184.297 266.677C184.297 266.239 184.146 265.879 183.846 265.597C183.549 265.31 183.167 265.166 182.697 265.166C182.228 265.166 181.845 265.31 181.549 265.597C181.253 265.879 181.104 266.244 181.104 266.69ZM181.33 268.693C180.888 268.475 180.555 268.199 180.332 267.866C180.109 267.529 179.997 267.137 179.997 266.69C179.997 265.984 180.25 265.405 180.756 264.954C181.262 264.498 181.909 264.271 182.697 264.271C183.472 264.271 184.117 264.498 184.632 264.954C185.147 265.41 185.404 265.966 185.404 266.622C185.404 267.11 185.295 267.522 185.076 267.859C184.857 268.197 184.518 268.475 184.058 268.693C184.518 268.88 184.871 269.156 185.117 269.521C185.363 269.881 185.486 270.304 185.486 270.792C185.486 271.544 185.227 272.157 184.707 272.631C184.192 273.105 183.522 273.342 182.697 273.342C181.872 273.342 181.202 273.103 180.688 272.624C180.173 272.146 179.915 271.526 179.915 270.765C179.915 270.3 180.038 269.887 180.284 269.527C180.53 269.163 180.879 268.885 181.33 268.693Z" fill="white"/>
<path d="M171.91 296.116C171.669 296.116 171.489 296.068 171.37 295.973C171.256 295.872 171.199 295.72 171.199 295.515C171.199 295.218 171.637 294.662 172.512 293.847L172.71 293.655C172.842 293.528 173.034 293.345 173.284 293.108C174.861 291.623 175.649 290.54 175.649 289.861C175.649 289.374 175.51 288.979 175.232 288.679C174.954 288.373 174.594 288.221 174.152 288.221C173.865 288.221 173.59 288.28 173.325 288.398C173.065 288.517 172.856 288.676 172.696 288.877C172.669 288.913 172.626 288.975 172.566 289.062C172.398 289.367 172.209 289.52 171.999 289.52C171.835 289.52 171.719 289.469 171.65 289.369C171.582 289.269 171.548 289.077 171.548 288.795C171.548 288.631 171.564 288.512 171.596 288.439C171.628 288.362 171.687 288.28 171.773 288.193C172.065 287.911 172.425 287.688 172.854 287.523C173.286 287.355 173.729 287.271 174.18 287.271C174.936 287.271 175.567 287.514 176.073 288.002C176.584 288.49 176.839 289.089 176.839 289.8C176.839 290.693 176.064 291.88 174.515 293.361C174.118 293.73 173.815 294.02 173.605 294.229L172.765 295.036H175.889C175.907 294.84 175.959 294.692 176.046 294.592C176.137 294.487 176.258 294.435 176.408 294.435C176.559 294.435 176.677 294.485 176.764 294.585C176.85 294.685 176.894 294.822 176.894 294.995C176.894 295.009 176.891 295.034 176.887 295.07C176.882 295.102 176.88 295.125 176.88 295.139L176.825 295.665C176.812 295.806 176.771 295.918 176.702 296C176.634 296.077 176.545 296.116 176.436 296.116H171.91ZM184.256 291.987C184.01 292.302 183.739 292.536 183.442 292.691C183.146 292.846 182.82 292.924 182.465 292.924C181.745 292.924 181.132 292.655 180.626 292.117C180.125 291.575 179.874 290.91 179.874 290.121C179.874 289.292 180.116 288.61 180.599 288.077C181.086 287.539 181.708 287.271 182.465 287.271C183.358 287.271 184.078 287.631 184.625 288.351C185.172 289.066 185.445 290.016 185.445 291.201C185.445 292.764 185.044 294.013 184.242 294.947C183.445 295.877 182.376 296.342 181.036 296.342C180.612 296.342 180.33 296.31 180.188 296.246C180.052 296.182 179.983 296.064 179.983 295.891C179.983 295.599 180.255 295.446 180.797 295.433C181.157 295.424 181.442 295.398 181.651 295.357C182.371 295.225 182.955 294.868 183.401 294.284C183.853 293.701 184.137 292.935 184.256 291.987ZM184.112 290.155C184.112 289.59 183.962 289.132 183.661 288.781C183.365 288.426 182.984 288.248 182.52 288.248C182.077 288.248 181.72 288.414 181.446 288.747C181.173 289.08 181.036 289.515 181.036 290.053C181.036 290.609 181.18 291.062 181.467 291.413C181.754 291.759 182.123 291.933 182.574 291.933C183.016 291.933 183.383 291.766 183.675 291.434C183.966 291.096 184.112 290.67 184.112 290.155Z" fill="white"/>
<path d="M175.355 314.413C175.889 314.559 176.301 314.826 176.593 315.213C176.889 315.596 177.037 316.065 177.037 316.621C177.037 317.419 176.755 318.073 176.189 318.583C175.624 319.089 174.893 319.342 173.995 319.342C173.302 319.342 172.685 319.21 172.143 318.945C171.605 318.676 171.336 318.382 171.336 318.063C171.336 317.927 171.384 317.815 171.479 317.729C171.58 317.637 171.701 317.592 171.842 317.592C171.919 317.592 172.2 317.708 172.683 317.94C173.17 318.173 173.624 318.289 174.043 318.289C174.585 318.289 175.025 318.134 175.362 317.824C175.704 317.514 175.875 317.113 175.875 316.621C175.875 316.215 175.757 315.874 175.52 315.596C175.287 315.313 174.966 315.133 174.556 315.056C174.433 315.033 174.271 315.015 174.07 315.001C173.688 314.978 173.496 314.819 173.496 314.522C173.496 314.254 173.683 314.096 174.057 314.051C174.202 314.037 174.323 314.021 174.419 314.003C174.774 313.948 175.062 313.802 175.28 313.565C175.499 313.328 175.608 313.041 175.608 312.704C175.608 312.271 175.474 311.918 175.205 311.645C174.936 311.371 174.594 311.234 174.18 311.234C173.797 311.234 173.403 311.353 172.997 311.59C172.596 311.827 172.345 311.945 172.245 311.945C172.118 311.945 172.01 311.904 171.924 311.822C171.842 311.74 171.801 311.638 171.801 311.515C171.801 311.237 172.056 310.961 172.566 310.688C173.077 310.41 173.642 310.271 174.262 310.271C174.973 310.271 175.563 310.487 176.032 310.92C176.506 311.348 176.743 311.877 176.743 312.506C176.743 312.984 176.629 313.379 176.401 313.688C176.178 313.998 175.829 314.24 175.355 314.413ZM182.697 311.248C182.173 311.248 181.765 311.558 181.474 312.178C181.182 312.798 181.036 313.673 181.036 314.803C181.036 315.938 181.182 316.817 181.474 317.441C181.765 318.061 182.173 318.371 182.697 318.371C183.226 318.371 183.636 318.061 183.928 317.441C184.219 316.817 184.365 315.938 184.365 314.803C184.365 313.673 184.219 312.798 183.928 312.178C183.636 311.558 183.226 311.248 182.697 311.248ZM182.697 319.342C181.84 319.342 181.159 318.938 180.653 318.132C180.152 317.321 179.901 316.211 179.901 314.803C179.901 313.399 180.152 312.294 180.653 311.487C181.159 310.676 181.84 310.271 182.697 310.271C183.554 310.271 184.235 310.676 184.741 311.487C185.247 312.299 185.5 313.404 185.5 314.803C185.5 316.202 185.247 317.309 184.741 318.125C184.235 318.936 183.554 319.342 182.697 319.342Z" fill="white"/>
<path d="M175.355 337.413C175.889 337.559 176.301 337.826 176.593 338.213C176.889 338.596 177.037 339.065 177.037 339.621C177.037 340.419 176.755 341.073 176.189 341.583C175.624 342.089 174.893 342.342 173.995 342.342C173.302 342.342 172.685 342.21 172.143 341.945C171.605 341.676 171.336 341.382 171.336 341.063C171.336 340.927 171.384 340.815 171.479 340.729C171.58 340.637 171.701 340.592 171.842 340.592C171.919 340.592 172.2 340.708 172.683 340.94C173.17 341.173 173.624 341.289 174.043 341.289C174.585 341.289 175.025 341.134 175.362 340.824C175.704 340.514 175.875 340.113 175.875 339.621C175.875 339.215 175.757 338.874 175.52 338.596C175.287 338.313 174.966 338.133 174.556 338.056C174.433 338.033 174.271 338.015 174.07 338.001C173.688 337.978 173.496 337.819 173.496 337.522C173.496 337.254 173.683 337.096 174.057 337.051C174.202 337.037 174.323 337.021 174.419 337.003C174.774 336.948 175.062 336.802 175.28 336.565C175.499 336.328 175.608 336.041 175.608 335.704C175.608 335.271 175.474 334.918 175.205 334.645C174.936 334.371 174.594 334.234 174.18 334.234C173.797 334.234 173.403 334.353 172.997 334.59C172.596 334.827 172.345 334.945 172.245 334.945C172.118 334.945 172.01 334.904 171.924 334.822C171.842 334.74 171.801 334.638 171.801 334.515C171.801 334.237 172.056 333.961 172.566 333.688C173.077 333.41 173.642 333.271 174.262 333.271C174.973 333.271 175.563 333.487 176.032 333.92C176.506 334.348 176.743 334.877 176.743 335.506C176.743 335.984 176.629 336.379 176.401 336.688C176.178 336.998 175.829 337.24 175.355 337.413ZM181.063 334.781C181.004 334.79 180.959 334.797 180.927 334.802C180.899 334.806 180.874 334.809 180.852 334.809C180.71 334.809 180.594 334.77 180.503 334.692C180.416 334.61 180.373 334.503 180.373 334.371C180.373 334.262 180.412 334.166 180.489 334.084C180.567 334.002 180.678 333.94 180.824 333.899L182.854 333.353C182.905 333.339 182.952 333.33 182.998 333.325C183.048 333.316 183.098 333.312 183.148 333.312C183.235 333.312 183.303 333.353 183.354 333.435C183.404 333.512 183.429 333.619 183.429 333.756V341.152H184.522C184.928 341.152 185.186 341.187 185.295 341.255C185.404 341.319 185.459 341.442 185.459 341.624C185.459 341.788 185.413 341.911 185.322 341.993C185.231 342.075 185.094 342.116 184.912 342.116H180.824C180.642 342.116 180.505 342.075 180.414 341.993C180.323 341.911 180.277 341.788 180.277 341.624C180.277 341.442 180.332 341.319 180.441 341.255C180.551 341.187 180.808 341.152 181.214 341.152H182.349V334.474L181.063 334.781Z" fill="white"/>
<path opacity="0.5" d="M210.5 21.1162L210 342.116" stroke="#ABB8FF"/>
<path opacity="0.5" d="M232.5 21.1162L232 342.116" stroke="#ABB8FF"/>
<path opacity="0.5" d="M255.5 21.1162L255 342.116" stroke="#ABB8FF"/>
<path opacity="0.5" d="M279 53.1162L279 342.116" stroke="#ABB8FF"/>
<circle cx="117.5" cy="181.616" r="8.5" fill="#ABB8FF"/>
<path d="M0.333333 182.116C0.333333 183.589 1.52724 184.783 3 184.783C4.47276 184.783 5.66667 183.589 5.66667 182.116C5.66667 180.643 4.47276 179.45 3 179.45C1.52724 179.45 0.333333 180.643 0.333333 182.116ZM3 182.616H118V181.616H3V182.616Z" fill="#ABB8FF"/>
</svg>
