<svg width="557" height="496" viewBox="0 0 557 496" fill="none" xmlns="http://www.w3.org/2000/svg">
<rect x="118.5" y="0.616211" width="438" height="494" rx="9.5" fill="#ABB8FF" fill-opacity="0.1" stroke="#ABB8FF"/>
<path d="M172.751 37.7705C173.052 37.6611 173.33 37.5814 173.585 37.5312C173.84 37.4766 174.084 37.4492 174.316 37.4492C175.114 37.4492 175.777 37.7272 176.306 38.2832C176.839 38.8346 177.105 39.5205 177.105 40.3408C177.105 41.2113 176.812 41.929 176.224 42.4941C175.636 43.0592 174.884 43.3418 173.968 43.3418C173.202 43.3418 172.56 43.2393 172.04 43.0342C171.525 42.8245 171.268 42.5716 171.268 42.2754C171.268 42.1569 171.315 42.0521 171.411 41.9609C171.507 41.8652 171.618 41.8174 171.746 41.8174C171.796 41.8174 172.063 41.9062 172.546 42.084C173.034 42.2572 173.485 42.3438 173.899 42.3438C174.51 42.3438 175.005 42.1615 175.383 41.7969C175.766 41.4277 175.957 40.9538 175.957 40.375C175.957 39.8099 175.777 39.3405 175.417 38.9668C175.057 38.5885 174.604 38.3994 174.057 38.3994C173.646 38.3994 173.243 38.502 172.847 38.707C172.455 38.9121 172.218 39.0146 172.136 39.0146C171.999 39.0146 171.901 38.9645 171.842 38.8643C171.787 38.764 171.76 38.5817 171.76 38.3174V34.9131C171.76 34.7627 171.805 34.6556 171.896 34.5918C171.992 34.5234 172.156 34.4893 172.389 34.4893H175.848C176.066 34.4893 176.23 34.5348 176.34 34.626C176.449 34.7126 176.504 34.8447 176.504 35.0225C176.504 35.1911 176.447 35.3232 176.333 35.4189C176.219 35.5101 176.057 35.5557 175.848 35.5557H172.751V37.7705ZM183.271 39.9648V35.3301L180.681 39.9648H183.271ZM182.533 43.1162C182.314 43.1162 182.166 43.082 182.089 43.0137C182.011 42.9408 181.973 42.8109 181.973 42.624C181.973 42.46 182.011 42.3415 182.089 42.2686C182.171 42.1911 182.301 42.1523 182.479 42.1523H183.271V41.0039H180.079C179.965 41.0039 179.876 40.9674 179.812 40.8945C179.749 40.8216 179.717 40.7168 179.717 40.5801V40.1084C179.717 39.9261 179.783 39.7347 179.915 39.5342C179.938 39.4977 179.956 39.4681 179.97 39.4453L182.854 34.5508C182.918 34.4368 182.971 34.3639 183.012 34.332C183.053 34.3001 183.107 34.2842 183.176 34.2842C183.203 34.2842 183.251 34.2887 183.319 34.2979C183.338 34.3024 183.356 34.307 183.374 34.3115L184.071 34.4209C184.135 34.43 184.185 34.4665 184.222 34.5303C184.263 34.5895 184.283 34.6693 184.283 34.7695V39.9648H184.632C184.732 39.9648 184.81 39.9261 184.864 39.8486C184.919 39.7666 184.98 39.7256 185.049 39.7256C185.14 39.7256 185.217 39.7598 185.281 39.8281C185.345 39.8965 185.377 39.9808 185.377 40.0811C185.377 40.1221 185.375 40.1608 185.37 40.1973C185.366 40.2292 185.356 40.2633 185.343 40.2998L185.288 40.5801C185.256 40.7441 185.208 40.8558 185.145 40.915C185.085 40.9743 184.99 41.0039 184.857 41.0039H184.283V42.1523H184.522C184.814 42.1523 185.015 42.1888 185.124 42.2617C185.233 42.3301 185.288 42.4508 185.288 42.624C185.288 42.7881 185.243 42.9111 185.151 42.9932C185.06 43.0752 184.924 43.1162 184.741 43.1162H182.533Z" fill="white"/>
<path d="M172.751 60.7705C173.052 60.6611 173.33 60.5814 173.585 60.5312C173.84 60.4766 174.084 60.4492 174.316 60.4492C175.114 60.4492 175.777 60.7272 176.306 61.2832C176.839 61.8346 177.105 62.5205 177.105 63.3408C177.105 64.2113 176.812 64.929 176.224 65.4941C175.636 66.0592 174.884 66.3418 173.968 66.3418C173.202 66.3418 172.56 66.2393 172.04 66.0342C171.525 65.8245 171.268 65.5716 171.268 65.2754C171.268 65.1569 171.315 65.0521 171.411 64.9609C171.507 64.8652 171.618 64.8174 171.746 64.8174C171.796 64.8174 172.063 64.9062 172.546 65.084C173.034 65.2572 173.485 65.3438 173.899 65.3438C174.51 65.3438 175.005 65.1615 175.383 64.7969C175.766 64.4277 175.957 63.9538 175.957 63.375C175.957 62.8099 175.777 62.3405 175.417 61.9668C175.057 61.5885 174.604 61.3994 174.057 61.3994C173.646 61.3994 173.243 61.502 172.847 61.707C172.455 61.9121 172.218 62.0146 172.136 62.0146C171.999 62.0146 171.901 61.9645 171.842 61.8643C171.787 61.764 171.76 61.5817 171.76 61.3174V57.9131C171.76 57.7627 171.805 57.6556 171.896 57.5918C171.992 57.5234 172.156 57.4893 172.389 57.4893H175.848C176.066 57.4893 176.23 57.5348 176.34 57.626C176.449 57.7126 176.504 57.8447 176.504 58.0225C176.504 58.1911 176.447 58.3232 176.333 58.4189C176.219 58.5101 176.057 58.5557 175.848 58.5557H172.751V60.7705ZM181.159 60.7705C181.46 60.6611 181.738 60.5814 181.993 60.5312C182.248 60.4766 182.492 60.4492 182.725 60.4492C183.522 60.4492 184.185 60.7272 184.714 61.2832C185.247 61.8346 185.514 62.5205 185.514 63.3408C185.514 64.2113 185.22 64.929 184.632 65.4941C184.044 66.0592 183.292 66.3418 182.376 66.3418C181.61 66.3418 180.968 66.2393 180.448 66.0342C179.933 65.8245 179.676 65.5716 179.676 65.2754C179.676 65.1569 179.724 65.0521 179.819 64.9609C179.915 64.8652 180.027 64.8174 180.154 64.8174C180.204 64.8174 180.471 64.9062 180.954 65.084C181.442 65.2572 181.893 65.3438 182.308 65.3438C182.918 65.3438 183.413 65.1615 183.791 64.7969C184.174 64.4277 184.365 63.9538 184.365 63.375C184.365 62.8099 184.185 62.3405 183.825 61.9668C183.465 61.5885 183.012 61.3994 182.465 61.3994C182.055 61.3994 181.651 61.502 181.255 61.707C180.863 61.9121 180.626 62.0146 180.544 62.0146C180.407 62.0146 180.309 61.9645 180.25 61.8643C180.195 61.764 180.168 61.5817 180.168 61.3174V57.9131C180.168 57.7627 180.214 57.6556 180.305 57.5918C180.4 57.5234 180.564 57.4893 180.797 57.4893H184.256C184.475 57.4893 184.639 57.5348 184.748 57.626C184.857 57.7126 184.912 57.8447 184.912 58.0225C184.912 58.1911 184.855 58.3232 184.741 58.4189C184.627 58.5101 184.465 58.5557 184.256 58.5557H181.159V60.7705Z" fill="white"/>
<path d="M172.751 83.7705C173.052 83.6611 173.33 83.5814 173.585 83.5312C173.84 83.4766 174.084 83.4492 174.316 83.4492C175.114 83.4492 175.777 83.7272 176.306 84.2832C176.839 84.8346 177.105 85.5205 177.105 86.3408C177.105 87.2113 176.812 87.929 176.224 88.4941C175.636 89.0592 174.884 89.3418 173.968 89.3418C173.202 89.3418 172.56 89.2393 172.04 89.0342C171.525 88.8245 171.268 88.5716 171.268 88.2754C171.268 88.1569 171.315 88.0521 171.411 87.9609C171.507 87.8652 171.618 87.8174 171.746 87.8174C171.796 87.8174 172.063 87.9062 172.546 88.084C173.034 88.2572 173.485 88.3438 173.899 88.3438C174.51 88.3438 175.005 88.1615 175.383 87.7969C175.766 87.4277 175.957 86.9538 175.957 86.375C175.957 85.8099 175.777 85.3405 175.417 84.9668C175.057 84.5885 174.604 84.3994 174.057 84.3994C173.646 84.3994 173.243 84.502 172.847 84.707C172.455 84.9121 172.218 85.0146 172.136 85.0146C171.999 85.0146 171.901 84.9645 171.842 84.8643C171.787 84.764 171.76 84.5817 171.76 84.3174V80.9131C171.76 80.7627 171.805 80.6556 171.896 80.5918C171.992 80.5234 172.156 80.4893 172.389 80.4893H175.848C176.066 80.4893 176.23 80.5348 176.34 80.626C176.449 80.7126 176.504 80.8447 176.504 81.0225C176.504 81.1911 176.447 81.3232 176.333 81.4189C176.219 81.5101 176.057 81.5557 175.848 81.5557H172.751V83.7705ZM181.228 86.457C181.228 87.0176 181.376 87.4756 181.672 87.8311C181.968 88.182 182.349 88.3574 182.813 88.3574C183.251 88.3574 183.609 88.1911 183.887 87.8584C184.169 87.5257 184.311 87.0905 184.311 86.5527C184.311 85.9967 184.165 85.5456 183.873 85.1992C183.586 84.8529 183.215 84.6797 182.759 84.6797C182.317 84.6797 181.95 84.846 181.658 85.1787C181.371 85.5114 181.228 85.9375 181.228 86.457ZM181.077 84.6387C181.323 84.3197 181.597 84.0804 181.897 83.9209C182.198 83.7614 182.526 83.6816 182.882 83.6816C183.602 83.6816 184.213 83.9528 184.714 84.4951C185.22 85.0374 185.473 85.7051 185.473 86.498C185.473 87.3275 185.229 88.0088 184.741 88.542C184.254 89.0752 183.629 89.3418 182.868 89.3418C181.97 89.3418 181.25 88.9863 180.708 88.2754C180.17 87.5599 179.901 86.6074 179.901 85.418C179.901 83.8685 180.3 82.6243 181.098 81.6855C181.895 80.7422 182.948 80.2705 184.256 80.2705C184.698 80.2705 184.99 80.3024 185.131 80.3662C185.272 80.43 185.343 80.5508 185.343 80.7285C185.343 81.0202 185.074 81.1706 184.536 81.1797C184.181 81.1842 183.896 81.207 183.682 81.248C182.962 81.3848 182.376 81.7471 181.925 82.335C181.478 82.9183 181.196 83.6862 181.077 84.6387Z" fill="white"/>
<path d="M172.751 106.771C173.052 106.661 173.33 106.581 173.585 106.531C173.84 106.477 174.084 106.449 174.316 106.449C175.114 106.449 175.777 106.727 176.306 107.283C176.839 107.835 177.105 108.521 177.105 109.341C177.105 110.211 176.812 110.929 176.224 111.494C175.636 112.059 174.884 112.342 173.968 112.342C173.202 112.342 172.56 112.239 172.04 112.034C171.525 111.825 171.268 111.572 171.268 111.275C171.268 111.157 171.315 111.052 171.411 110.961C171.507 110.865 171.618 110.817 171.746 110.817C171.796 110.817 172.063 110.906 172.546 111.084C173.034 111.257 173.485 111.344 173.899 111.344C174.51 111.344 175.005 111.161 175.383 110.797C175.766 110.428 175.957 109.954 175.957 109.375C175.957 108.81 175.777 108.34 175.417 107.967C175.057 107.589 174.604 107.399 174.057 107.399C173.646 107.399 173.243 107.502 172.847 107.707C172.455 107.912 172.218 108.015 172.136 108.015C171.999 108.015 171.901 107.965 171.842 107.864C171.787 107.764 171.76 107.582 171.76 107.317V103.913C171.76 103.763 171.805 103.656 171.896 103.592C171.992 103.523 172.156 103.489 172.389 103.489H175.848C176.066 103.489 176.23 103.535 176.34 103.626C176.449 103.713 176.504 103.845 176.504 104.022C176.504 104.191 176.447 104.323 176.333 104.419C176.219 104.51 176.057 104.556 175.848 104.556H172.751V106.771ZM182.8 111.979C182.763 112.089 182.729 112.16 182.697 112.191C182.665 112.223 182.606 112.239 182.52 112.239H182.403H181.918C181.827 112.239 181.754 112.221 181.699 112.185C181.649 112.148 181.624 112.098 181.624 112.034C181.624 111.998 181.626 111.964 181.631 111.932C181.64 111.895 181.651 111.854 181.665 111.809L184.352 104.515H180.879C180.865 104.729 180.817 104.888 180.735 104.993C180.653 105.093 180.533 105.144 180.373 105.144C180.218 105.144 180.102 105.105 180.024 105.027C179.951 104.95 179.915 104.829 179.915 104.665C179.915 104.619 179.915 104.585 179.915 104.562C179.92 104.54 179.924 104.519 179.929 104.501L179.997 103.886C180.011 103.758 180.056 103.66 180.134 103.592C180.216 103.523 180.325 103.489 180.462 103.489H184.98C185.113 103.489 185.208 103.519 185.268 103.578C185.331 103.633 185.363 103.722 185.363 103.845V104.077C185.363 104.132 185.352 104.205 185.329 104.296C185.306 104.382 185.27 104.501 185.22 104.651L182.8 111.979Z" fill="white"/>
<path d="M172.751 129.771C173.052 129.661 173.33 129.581 173.585 129.531C173.84 129.477 174.084 129.449 174.316 129.449C175.114 129.449 175.777 129.727 176.306 130.283C176.839 130.835 177.105 131.521 177.105 132.341C177.105 133.211 176.812 133.929 176.224 134.494C175.636 135.059 174.884 135.342 173.968 135.342C173.202 135.342 172.56 135.239 172.04 135.034C171.525 134.825 171.268 134.572 171.268 134.275C171.268 134.157 171.315 134.052 171.411 133.961C171.507 133.865 171.618 133.817 171.746 133.817C171.796 133.817 172.063 133.906 172.546 134.084C173.034 134.257 173.485 134.344 173.899 134.344C174.51 134.344 175.005 134.161 175.383 133.797C175.766 133.428 175.957 132.954 175.957 132.375C175.957 131.81 175.777 131.34 175.417 130.967C175.057 130.589 174.604 130.399 174.057 130.399C173.646 130.399 173.243 130.502 172.847 130.707C172.455 130.912 172.218 131.015 172.136 131.015C171.999 131.015 171.901 130.965 171.842 130.864C171.787 130.764 171.76 130.582 171.76 130.317V126.913C171.76 126.763 171.805 126.656 171.896 126.592C171.992 126.523 172.156 126.489 172.389 126.489H175.848C176.066 126.489 176.23 126.535 176.34 126.626C176.449 126.713 176.504 126.845 176.504 127.022C176.504 127.191 176.447 127.323 176.333 127.419C176.219 127.51 176.057 127.556 175.848 127.556H172.751V129.771ZM181.036 132.765C181.036 133.248 181.187 133.64 181.487 133.94C181.793 134.241 182.196 134.392 182.697 134.392C183.203 134.392 183.606 134.246 183.907 133.954C184.213 133.662 184.365 133.275 184.365 132.792C184.365 132.318 184.21 131.935 183.9 131.644C183.59 131.347 183.189 131.199 182.697 131.199C182.21 131.199 181.811 131.345 181.501 131.637C181.191 131.924 181.036 132.3 181.036 132.765ZM181.104 128.69C181.104 129.142 181.253 129.511 181.549 129.798C181.85 130.085 182.232 130.229 182.697 130.229C183.167 130.229 183.549 130.085 183.846 129.798C184.146 129.506 184.297 129.132 184.297 128.677C184.297 128.239 184.146 127.879 183.846 127.597C183.549 127.31 183.167 127.166 182.697 127.166C182.228 127.166 181.845 127.31 181.549 127.597C181.253 127.879 181.104 128.244 181.104 128.69ZM181.33 130.693C180.888 130.475 180.555 130.199 180.332 129.866C180.109 129.529 179.997 129.137 179.997 128.69C179.997 127.984 180.25 127.405 180.756 126.954C181.262 126.498 181.909 126.271 182.697 126.271C183.472 126.271 184.117 126.498 184.632 126.954C185.147 127.41 185.404 127.966 185.404 128.622C185.404 129.11 185.295 129.522 185.076 129.859C184.857 130.197 184.518 130.475 184.058 130.693C184.518 130.88 184.871 131.156 185.117 131.521C185.363 131.881 185.486 132.304 185.486 132.792C185.486 133.544 185.227 134.157 184.707 134.631C184.192 135.105 183.522 135.342 182.697 135.342C181.872 135.342 181.202 135.103 180.688 134.624C180.173 134.146 179.915 133.526 179.915 132.765C179.915 132.3 180.038 131.887 180.284 131.527C180.53 131.163 180.879 130.885 181.33 130.693Z" fill="white"/>
<path d="M172.751 152.771C173.052 152.661 173.33 152.581 173.585 152.531C173.84 152.477 174.084 152.449 174.316 152.449C175.114 152.449 175.777 152.727 176.306 153.283C176.839 153.835 177.105 154.521 177.105 155.341C177.105 156.211 176.812 156.929 176.224 157.494C175.636 158.059 174.884 158.342 173.968 158.342C173.202 158.342 172.56 158.239 172.04 158.034C171.525 157.825 171.268 157.572 171.268 157.275C171.268 157.157 171.315 157.052 171.411 156.961C171.507 156.865 171.618 156.817 171.746 156.817C171.796 156.817 172.063 156.906 172.546 157.084C173.034 157.257 173.485 157.344 173.899 157.344C174.51 157.344 175.005 157.161 175.383 156.797C175.766 156.428 175.957 155.954 175.957 155.375C175.957 154.81 175.777 154.34 175.417 153.967C175.057 153.589 174.604 153.399 174.057 153.399C173.646 153.399 173.243 153.502 172.847 153.707C172.455 153.912 172.218 154.015 172.136 154.015C171.999 154.015 171.901 153.965 171.842 153.864C171.787 153.764 171.76 153.582 171.76 153.317V149.913C171.76 149.763 171.805 149.656 171.896 149.592C171.992 149.523 172.156 149.489 172.389 149.489H175.848C176.066 149.489 176.23 149.535 176.34 149.626C176.449 149.713 176.504 149.845 176.504 150.022C176.504 150.191 176.447 150.323 176.333 150.419C176.219 150.51 176.057 150.556 175.848 150.556H172.751V152.771ZM184.256 153.987C184.01 154.302 183.739 154.536 183.442 154.691C183.146 154.846 182.82 154.924 182.465 154.924C181.745 154.924 181.132 154.655 180.626 154.117C180.125 153.575 179.874 152.91 179.874 152.121C179.874 151.292 180.116 150.61 180.599 150.077C181.086 149.539 181.708 149.271 182.465 149.271C183.358 149.271 184.078 149.631 184.625 150.351C185.172 151.066 185.445 152.016 185.445 153.201C185.445 154.764 185.044 156.013 184.242 156.947C183.445 157.877 182.376 158.342 181.036 158.342C180.612 158.342 180.33 158.31 180.188 158.246C180.052 158.182 179.983 158.064 179.983 157.891C179.983 157.599 180.255 157.446 180.797 157.433C181.157 157.424 181.442 157.398 181.651 157.357C182.371 157.225 182.955 156.868 183.401 156.284C183.853 155.701 184.137 154.935 184.256 153.987ZM184.112 152.155C184.112 151.59 183.962 151.132 183.661 150.781C183.365 150.426 182.984 150.248 182.52 150.248C182.077 150.248 181.72 150.414 181.446 150.747C181.173 151.08 181.036 151.515 181.036 152.053C181.036 152.609 181.18 153.062 181.467 153.413C181.754 153.759 182.123 153.933 182.574 153.933C183.016 153.933 183.383 153.766 183.675 153.434C183.966 153.096 184.112 152.67 184.112 152.155Z" fill="white"/>
<path d="M172.819 178.457C172.819 179.018 172.967 179.476 173.264 179.831C173.56 180.182 173.94 180.357 174.405 180.357C174.843 180.357 175.201 180.191 175.479 179.858C175.761 179.526 175.902 179.09 175.902 178.553C175.902 177.997 175.757 177.546 175.465 177.199C175.178 176.853 174.806 176.68 174.351 176.68C173.909 176.68 173.542 176.846 173.25 177.179C172.963 177.511 172.819 177.938 172.819 178.457ZM172.669 176.639C172.915 176.32 173.188 176.08 173.489 175.921C173.79 175.761 174.118 175.682 174.474 175.682C175.194 175.682 175.804 175.953 176.306 176.495C176.812 177.037 177.064 177.705 177.064 178.498C177.064 179.327 176.821 180.009 176.333 180.542C175.845 181.075 175.221 181.342 174.46 181.342C173.562 181.342 172.842 180.986 172.3 180.275C171.762 179.56 171.493 178.607 171.493 177.418C171.493 175.868 171.892 174.624 172.689 173.686C173.487 172.742 174.54 172.271 175.848 172.271C176.29 172.271 176.581 172.302 176.723 172.366C176.864 172.43 176.935 172.551 176.935 172.729C176.935 173.02 176.666 173.171 176.128 173.18C175.772 173.184 175.488 173.207 175.273 173.248C174.553 173.385 173.968 173.747 173.517 174.335C173.07 174.918 172.787 175.686 172.669 176.639ZM182.697 173.248C182.173 173.248 181.765 173.558 181.474 174.178C181.182 174.798 181.036 175.673 181.036 176.803C181.036 177.938 181.182 178.817 181.474 179.441C181.765 180.061 182.173 180.371 182.697 180.371C183.226 180.371 183.636 180.061 183.928 179.441C184.219 178.817 184.365 177.938 184.365 176.803C184.365 175.673 184.219 174.798 183.928 174.178C183.636 173.558 183.226 173.248 182.697 173.248ZM182.697 181.342C181.84 181.342 181.159 180.938 180.653 180.132C180.152 179.321 179.901 178.211 179.901 176.803C179.901 175.399 180.152 174.294 180.653 173.487C181.159 172.676 181.84 172.271 182.697 172.271C183.554 172.271 184.235 172.676 184.741 173.487C185.247 174.299 185.5 175.404 185.5 176.803C185.5 178.202 185.247 179.309 184.741 180.125C184.235 180.936 183.554 181.342 182.697 181.342Z" fill="white"/>
<path d="M172.819 201.457C172.819 202.018 172.967 202.476 173.264 202.831C173.56 203.182 173.94 203.357 174.405 203.357C174.843 203.357 175.201 203.191 175.479 202.858C175.761 202.526 175.902 202.09 175.902 201.553C175.902 200.997 175.757 200.546 175.465 200.199C175.178 199.853 174.806 199.68 174.351 199.68C173.909 199.68 173.542 199.846 173.25 200.179C172.963 200.511 172.819 200.938 172.819 201.457ZM172.669 199.639C172.915 199.32 173.188 199.08 173.489 198.921C173.79 198.761 174.118 198.682 174.474 198.682C175.194 198.682 175.804 198.953 176.306 199.495C176.812 200.037 177.064 200.705 177.064 201.498C177.064 202.327 176.821 203.009 176.333 203.542C175.845 204.075 175.221 204.342 174.46 204.342C173.562 204.342 172.842 203.986 172.3 203.275C171.762 202.56 171.493 201.607 171.493 200.418C171.493 198.868 171.892 197.624 172.689 196.686C173.487 195.742 174.54 195.271 175.848 195.271C176.29 195.271 176.581 195.302 176.723 195.366C176.864 195.43 176.935 195.551 176.935 195.729C176.935 196.02 176.666 196.171 176.128 196.18C175.772 196.184 175.488 196.207 175.273 196.248C174.553 196.385 173.968 196.747 173.517 197.335C173.07 197.918 172.787 198.686 172.669 199.639ZM181.063 196.781C181.004 196.79 180.959 196.797 180.927 196.802C180.899 196.806 180.874 196.809 180.852 196.809C180.71 196.809 180.594 196.77 180.503 196.692C180.416 196.61 180.373 196.503 180.373 196.371C180.373 196.262 180.412 196.166 180.489 196.084C180.567 196.002 180.678 195.94 180.824 195.899L182.854 195.353C182.905 195.339 182.952 195.33 182.998 195.325C183.048 195.316 183.098 195.312 183.148 195.312C183.235 195.312 183.303 195.353 183.354 195.435C183.404 195.512 183.429 195.619 183.429 195.756V203.152H184.522C184.928 203.152 185.186 203.187 185.295 203.255C185.404 203.319 185.459 203.442 185.459 203.624C185.459 203.788 185.413 203.911 185.322 203.993C185.231 204.075 185.094 204.116 184.912 204.116H180.824C180.642 204.116 180.505 204.075 180.414 203.993C180.323 203.911 180.277 203.788 180.277 203.624C180.277 203.442 180.332 203.319 180.441 203.255C180.551 203.187 180.808 203.152 181.214 203.152H182.349V196.474L181.063 196.781Z" fill="white"/>
<path d="M172.819 224.457C172.819 225.018 172.967 225.476 173.264 225.831C173.56 226.182 173.94 226.357 174.405 226.357C174.843 226.357 175.201 226.191 175.479 225.858C175.761 225.526 175.902 225.09 175.902 224.553C175.902 223.997 175.757 223.546 175.465 223.199C175.178 222.853 174.806 222.68 174.351 222.68C173.909 222.68 173.542 222.846 173.25 223.179C172.963 223.511 172.819 223.938 172.819 224.457ZM172.669 222.639C172.915 222.32 173.188 222.08 173.489 221.921C173.79 221.761 174.118 221.682 174.474 221.682C175.194 221.682 175.804 221.953 176.306 222.495C176.812 223.037 177.064 223.705 177.064 224.498C177.064 225.327 176.821 226.009 176.333 226.542C175.845 227.075 175.221 227.342 174.46 227.342C173.562 227.342 172.842 226.986 172.3 226.275C171.762 225.56 171.493 224.607 171.493 223.418C171.493 221.868 171.892 220.624 172.689 219.686C173.487 218.742 174.54 218.271 175.848 218.271C176.29 218.271 176.581 218.302 176.723 218.366C176.864 218.43 176.935 218.551 176.935 218.729C176.935 219.02 176.666 219.171 176.128 219.18C175.772 219.184 175.488 219.207 175.273 219.248C174.553 219.385 173.968 219.747 173.517 220.335C173.07 220.918 172.787 221.686 172.669 222.639ZM180.318 227.116C180.077 227.116 179.897 227.068 179.778 226.973C179.664 226.872 179.607 226.72 179.607 226.515C179.607 226.218 180.045 225.662 180.92 224.847L181.118 224.655C181.25 224.528 181.442 224.345 181.692 224.108C183.269 222.623 184.058 221.54 184.058 220.861C184.058 220.374 183.919 219.979 183.641 219.679C183.363 219.373 183.003 219.221 182.561 219.221C182.273 219.221 181.998 219.28 181.733 219.398C181.474 219.517 181.264 219.676 181.104 219.877C181.077 219.913 181.034 219.975 180.975 220.062C180.806 220.367 180.617 220.52 180.407 220.52C180.243 220.52 180.127 220.469 180.059 220.369C179.99 220.269 179.956 220.077 179.956 219.795C179.956 219.631 179.972 219.512 180.004 219.439C180.036 219.362 180.095 219.28 180.182 219.193C180.473 218.911 180.833 218.688 181.262 218.523C181.695 218.355 182.137 218.271 182.588 218.271C183.344 218.271 183.976 218.514 184.481 219.002C184.992 219.49 185.247 220.089 185.247 220.8C185.247 221.693 184.472 222.88 182.923 224.361C182.526 224.73 182.223 225.02 182.014 225.229L181.173 226.036H184.297C184.315 225.84 184.368 225.692 184.454 225.592C184.545 225.487 184.666 225.435 184.816 225.435C184.967 225.435 185.085 225.485 185.172 225.585C185.258 225.685 185.302 225.822 185.302 225.995C185.302 226.009 185.299 226.034 185.295 226.07C185.29 226.102 185.288 226.125 185.288 226.139L185.233 226.665C185.22 226.806 185.179 226.918 185.11 227C185.042 227.077 184.953 227.116 184.844 227.116H180.318Z" fill="white"/>
<path d="M172.819 247.457C172.819 248.018 172.967 248.476 173.264 248.831C173.56 249.182 173.94 249.357 174.405 249.357C174.843 249.357 175.201 249.191 175.479 248.858C175.761 248.526 175.902 248.09 175.902 247.553C175.902 246.997 175.757 246.546 175.465 246.199C175.178 245.853 174.806 245.68 174.351 245.68C173.909 245.68 173.542 245.846 173.25 246.179C172.963 246.511 172.819 246.938 172.819 247.457ZM172.669 245.639C172.915 245.32 173.188 245.08 173.489 244.921C173.79 244.761 174.118 244.682 174.474 244.682C175.194 244.682 175.804 244.953 176.306 245.495C176.812 246.037 177.064 246.705 177.064 247.498C177.064 248.327 176.821 249.009 176.333 249.542C175.845 250.075 175.221 250.342 174.46 250.342C173.562 250.342 172.842 249.986 172.3 249.275C171.762 248.56 171.493 247.607 171.493 246.418C171.493 244.868 171.892 243.624 172.689 242.686C173.487 241.742 174.54 241.271 175.848 241.271C176.29 241.271 176.581 241.302 176.723 241.366C176.864 241.43 176.935 241.551 176.935 241.729C176.935 242.02 176.666 242.171 176.128 242.18C175.772 242.184 175.488 242.207 175.273 242.248C174.553 242.385 173.968 242.747 173.517 243.335C173.07 243.918 172.787 244.686 172.669 245.639ZM183.764 245.413C184.297 245.559 184.709 245.826 185.001 246.213C185.297 246.596 185.445 247.065 185.445 247.621C185.445 248.419 185.163 249.073 184.598 249.583C184.033 250.089 183.301 250.342 182.403 250.342C181.711 250.342 181.093 250.21 180.551 249.945C180.013 249.676 179.744 249.382 179.744 249.063C179.744 248.927 179.792 248.815 179.888 248.729C179.988 248.637 180.109 248.592 180.25 248.592C180.327 248.592 180.608 248.708 181.091 248.94C181.578 249.173 182.032 249.289 182.451 249.289C182.993 249.289 183.433 249.134 183.771 248.824C184.112 248.514 184.283 248.113 184.283 247.621C184.283 247.215 184.165 246.874 183.928 246.596C183.695 246.313 183.374 246.133 182.964 246.056C182.841 246.033 182.679 246.015 182.479 246.001C182.096 245.978 181.904 245.819 181.904 245.522C181.904 245.254 182.091 245.096 182.465 245.051C182.611 245.037 182.731 245.021 182.827 245.003C183.183 244.948 183.47 244.802 183.688 244.565C183.907 244.328 184.017 244.041 184.017 243.704C184.017 243.271 183.882 242.918 183.613 242.645C183.344 242.371 183.003 242.234 182.588 242.234C182.205 242.234 181.811 242.353 181.405 242.59C181.004 242.827 180.754 242.945 180.653 242.945C180.526 242.945 180.419 242.904 180.332 242.822C180.25 242.74 180.209 242.638 180.209 242.515C180.209 242.237 180.464 241.961 180.975 241.688C181.485 241.41 182.05 241.271 182.67 241.271C183.381 241.271 183.971 241.487 184.44 241.92C184.914 242.348 185.151 242.877 185.151 243.506C185.151 243.984 185.037 244.379 184.81 244.688C184.586 244.998 184.238 245.24 183.764 245.413Z" fill="white"/>
<path d="M172.819 270.457C172.819 271.018 172.967 271.476 173.264 271.831C173.56 272.182 173.94 272.357 174.405 272.357C174.843 272.357 175.201 272.191 175.479 271.858C175.761 271.526 175.902 271.09 175.902 270.553C175.902 269.997 175.757 269.546 175.465 269.199C175.178 268.853 174.806 268.68 174.351 268.68C173.909 268.68 173.542 268.846 173.25 269.179C172.963 269.511 172.819 269.938 172.819 270.457ZM172.669 268.639C172.915 268.32 173.188 268.08 173.489 267.921C173.79 267.761 174.118 267.682 174.474 267.682C175.194 267.682 175.804 267.953 176.306 268.495C176.812 269.037 177.064 269.705 177.064 270.498C177.064 271.327 176.821 272.009 176.333 272.542C175.845 273.075 175.221 273.342 174.46 273.342C173.562 273.342 172.842 272.986 172.3 272.275C171.762 271.56 171.493 270.607 171.493 269.418C171.493 267.868 171.892 266.624 172.689 265.686C173.487 264.742 174.54 264.271 175.848 264.271C176.29 264.271 176.581 264.302 176.723 264.366C176.864 264.43 176.935 264.551 176.935 264.729C176.935 265.02 176.666 265.171 176.128 265.18C175.772 265.184 175.488 265.207 175.273 265.248C174.553 265.385 173.968 265.747 173.517 266.335C173.07 266.918 172.787 267.686 172.669 268.639ZM183.271 269.965V265.33L180.681 269.965H183.271ZM182.533 273.116C182.314 273.116 182.166 273.082 182.089 273.014C182.011 272.941 181.973 272.811 181.973 272.624C181.973 272.46 182.011 272.341 182.089 272.269C182.171 272.191 182.301 272.152 182.479 272.152H183.271V271.004H180.079C179.965 271.004 179.876 270.967 179.812 270.895C179.749 270.822 179.717 270.717 179.717 270.58V270.108C179.717 269.926 179.783 269.735 179.915 269.534C179.938 269.498 179.956 269.468 179.97 269.445L182.854 264.551C182.918 264.437 182.971 264.364 183.012 264.332C183.053 264.3 183.107 264.284 183.176 264.284C183.203 264.284 183.251 264.289 183.319 264.298C183.338 264.302 183.356 264.307 183.374 264.312L184.071 264.421C184.135 264.43 184.185 264.466 184.222 264.53C184.263 264.59 184.283 264.669 184.283 264.77V269.965H184.632C184.732 269.965 184.81 269.926 184.864 269.849C184.919 269.767 184.98 269.726 185.049 269.726C185.14 269.726 185.217 269.76 185.281 269.828C185.345 269.896 185.377 269.981 185.377 270.081C185.377 270.122 185.375 270.161 185.37 270.197C185.366 270.229 185.356 270.263 185.343 270.3L185.288 270.58C185.256 270.744 185.208 270.856 185.145 270.915C185.085 270.974 184.99 271.004 184.857 271.004H184.283V272.152H184.522C184.814 272.152 185.015 272.189 185.124 272.262C185.233 272.33 185.288 272.451 185.288 272.624C185.288 272.788 185.243 272.911 185.151 272.993C185.06 273.075 184.924 273.116 184.741 273.116H182.533Z" fill="white"/>
<path d="M172.819 293.457C172.819 294.018 172.967 294.476 173.264 294.831C173.56 295.182 173.94 295.357 174.405 295.357C174.843 295.357 175.201 295.191 175.479 294.858C175.761 294.526 175.902 294.09 175.902 293.553C175.902 292.997 175.757 292.546 175.465 292.199C175.178 291.853 174.806 291.68 174.351 291.68C173.909 291.68 173.542 291.846 173.25 292.179C172.963 292.511 172.819 292.938 172.819 293.457ZM172.669 291.639C172.915 291.32 173.188 291.08 173.489 290.921C173.79 290.761 174.118 290.682 174.474 290.682C175.194 290.682 175.804 290.953 176.306 291.495C176.812 292.037 177.064 292.705 177.064 293.498C177.064 294.327 176.821 295.009 176.333 295.542C175.845 296.075 175.221 296.342 174.46 296.342C173.562 296.342 172.842 295.986 172.3 295.275C171.762 294.56 171.493 293.607 171.493 292.418C171.493 290.868 171.892 289.624 172.689 288.686C173.487 287.742 174.54 287.271 175.848 287.271C176.29 287.271 176.581 287.302 176.723 287.366C176.864 287.43 176.935 287.551 176.935 287.729C176.935 288.02 176.666 288.171 176.128 288.18C175.772 288.184 175.488 288.207 175.273 288.248C174.553 288.385 173.968 288.747 173.517 289.335C173.07 289.918 172.787 290.686 172.669 291.639ZM181.159 290.771C181.46 290.661 181.738 290.581 181.993 290.531C182.248 290.477 182.492 290.449 182.725 290.449C183.522 290.449 184.185 290.727 184.714 291.283C185.247 291.835 185.514 292.521 185.514 293.341C185.514 294.211 185.22 294.929 184.632 295.494C184.044 296.059 183.292 296.342 182.376 296.342C181.61 296.342 180.968 296.239 180.448 296.034C179.933 295.825 179.676 295.572 179.676 295.275C179.676 295.157 179.724 295.052 179.819 294.961C179.915 294.865 180.027 294.817 180.154 294.817C180.204 294.817 180.471 294.906 180.954 295.084C181.442 295.257 181.893 295.344 182.308 295.344C182.918 295.344 183.413 295.161 183.791 294.797C184.174 294.428 184.365 293.954 184.365 293.375C184.365 292.81 184.185 292.34 183.825 291.967C183.465 291.589 183.012 291.399 182.465 291.399C182.055 291.399 181.651 291.502 181.255 291.707C180.863 291.912 180.626 292.015 180.544 292.015C180.407 292.015 180.309 291.965 180.25 291.864C180.195 291.764 180.168 291.582 180.168 291.317V287.913C180.168 287.763 180.214 287.656 180.305 287.592C180.4 287.523 180.564 287.489 180.797 287.489H184.256C184.475 287.489 184.639 287.535 184.748 287.626C184.857 287.713 184.912 287.845 184.912 288.022C184.912 288.191 184.855 288.323 184.741 288.419C184.627 288.51 184.465 288.556 184.256 288.556H181.159V290.771Z" fill="white"/>
<path d="M172.819 316.457C172.819 317.018 172.967 317.476 173.264 317.831C173.56 318.182 173.94 318.357 174.405 318.357C174.843 318.357 175.201 318.191 175.479 317.858C175.761 317.526 175.902 317.09 175.902 316.553C175.902 315.997 175.757 315.546 175.465 315.199C175.178 314.853 174.806 314.68 174.351 314.68C173.909 314.68 173.542 314.846 173.25 315.179C172.963 315.511 172.819 315.938 172.819 316.457ZM172.669 314.639C172.915 314.32 173.188 314.08 173.489 313.921C173.79 313.761 174.118 313.682 174.474 313.682C175.194 313.682 175.804 313.953 176.306 314.495C176.812 315.037 177.064 315.705 177.064 316.498C177.064 317.327 176.821 318.009 176.333 318.542C175.845 319.075 175.221 319.342 174.46 319.342C173.562 319.342 172.842 318.986 172.3 318.275C171.762 317.56 171.493 316.607 171.493 315.418C171.493 313.868 171.892 312.624 172.689 311.686C173.487 310.742 174.54 310.271 175.848 310.271C176.29 310.271 176.581 310.302 176.723 310.366C176.864 310.43 176.935 310.551 176.935 310.729C176.935 311.02 176.666 311.171 176.128 311.18C175.772 311.184 175.488 311.207 175.273 311.248C174.553 311.385 173.968 311.747 173.517 312.335C173.07 312.918 172.787 313.686 172.669 314.639ZM181.228 316.457C181.228 317.018 181.376 317.476 181.672 317.831C181.968 318.182 182.349 318.357 182.813 318.357C183.251 318.357 183.609 318.191 183.887 317.858C184.169 317.526 184.311 317.09 184.311 316.553C184.311 315.997 184.165 315.546 183.873 315.199C183.586 314.853 183.215 314.68 182.759 314.68C182.317 314.68 181.95 314.846 181.658 315.179C181.371 315.511 181.228 315.938 181.228 316.457ZM181.077 314.639C181.323 314.32 181.597 314.08 181.897 313.921C182.198 313.761 182.526 313.682 182.882 313.682C183.602 313.682 184.213 313.953 184.714 314.495C185.22 315.037 185.473 315.705 185.473 316.498C185.473 317.327 185.229 318.009 184.741 318.542C184.254 319.075 183.629 319.342 182.868 319.342C181.97 319.342 181.25 318.986 180.708 318.275C180.17 317.56 179.901 316.607 179.901 315.418C179.901 313.868 180.3 312.624 181.098 311.686C181.895 310.742 182.948 310.271 184.256 310.271C184.698 310.271 184.99 310.302 185.131 310.366C185.272 310.43 185.343 310.551 185.343 310.729C185.343 311.02 185.074 311.171 184.536 311.18C184.181 311.184 183.896 311.207 183.682 311.248C182.962 311.385 182.376 311.747 181.925 312.335C181.478 312.918 181.196 313.686 181.077 314.639Z" fill="white"/>
<path d="M172.819 339.457C172.819 340.018 172.967 340.476 173.264 340.831C173.56 341.182 173.94 341.357 174.405 341.357C174.843 341.357 175.201 341.191 175.479 340.858C175.761 340.526 175.902 340.09 175.902 339.553C175.902 338.997 175.757 338.546 175.465 338.199C175.178 337.853 174.806 337.68 174.351 337.68C173.909 337.68 173.542 337.846 173.25 338.179C172.963 338.511 172.819 338.938 172.819 339.457ZM172.669 337.639C172.915 337.32 173.188 337.08 173.489 336.921C173.79 336.761 174.118 336.682 174.474 336.682C175.194 336.682 175.804 336.953 176.306 337.495C176.812 338.037 177.064 338.705 177.064 339.498C177.064 340.327 176.821 341.009 176.333 341.542C175.845 342.075 175.221 342.342 174.46 342.342C173.562 342.342 172.842 341.986 172.3 341.275C171.762 340.56 171.493 339.607 171.493 338.418C171.493 336.868 171.892 335.624 172.689 334.686C173.487 333.742 174.54 333.271 175.848 333.271C176.29 333.271 176.581 333.302 176.723 333.366C176.864 333.43 176.935 333.551 176.935 333.729C176.935 334.02 176.666 334.171 176.128 334.18C175.772 334.184 175.488 334.207 175.273 334.248C174.553 334.385 173.968 334.747 173.517 335.335C173.07 335.918 172.787 336.686 172.669 337.639ZM182.8 341.979C182.763 342.089 182.729 342.16 182.697 342.191C182.665 342.223 182.606 342.239 182.52 342.239H182.403H181.918C181.827 342.239 181.754 342.221 181.699 342.185C181.649 342.148 181.624 342.098 181.624 342.034C181.624 341.998 181.626 341.964 181.631 341.932C181.64 341.895 181.651 341.854 181.665 341.809L184.352 334.515H180.879C180.865 334.729 180.817 334.888 180.735 334.993C180.653 335.093 180.533 335.144 180.373 335.144C180.218 335.144 180.102 335.105 180.024 335.027C179.951 334.95 179.915 334.829 179.915 334.665C179.915 334.619 179.915 334.585 179.915 334.562C179.92 334.54 179.924 334.519 179.929 334.501L179.997 333.886C180.011 333.758 180.056 333.66 180.134 333.592C180.216 333.523 180.325 333.489 180.462 333.489H184.98C185.113 333.489 185.208 333.519 185.268 333.578C185.331 333.633 185.363 333.722 185.363 333.845V334.077C185.363 334.132 185.352 334.205 185.329 334.296C185.306 334.382 185.27 334.501 185.22 334.651L182.8 341.979Z" fill="white"/>
<path d="M172.819 362.457C172.819 363.018 172.967 363.476 173.264 363.831C173.56 364.182 173.94 364.357 174.405 364.357C174.843 364.357 175.201 364.191 175.479 363.858C175.761 363.526 175.902 363.09 175.902 362.553C175.902 361.997 175.757 361.546 175.465 361.199C175.178 360.853 174.806 360.68 174.351 360.68C173.909 360.68 173.542 360.846 173.25 361.179C172.963 361.511 172.819 361.938 172.819 362.457ZM172.669 360.639C172.915 360.32 173.188 360.08 173.489 359.921C173.79 359.761 174.118 359.682 174.474 359.682C175.194 359.682 175.804 359.953 176.306 360.495C176.812 361.037 177.064 361.705 177.064 362.498C177.064 363.327 176.821 364.009 176.333 364.542C175.845 365.075 175.221 365.342 174.46 365.342C173.562 365.342 172.842 364.986 172.3 364.275C171.762 363.56 171.493 362.607 171.493 361.418C171.493 359.868 171.892 358.624 172.689 357.686C173.487 356.742 174.54 356.271 175.848 356.271C176.29 356.271 176.581 356.302 176.723 356.366C176.864 356.43 176.935 356.551 176.935 356.729C176.935 357.02 176.666 357.171 176.128 357.18C175.772 357.184 175.488 357.207 175.273 357.248C174.553 357.385 173.968 357.747 173.517 358.335C173.07 358.918 172.787 359.686 172.669 360.639ZM181.036 362.765C181.036 363.248 181.187 363.64 181.487 363.94C181.793 364.241 182.196 364.392 182.697 364.392C183.203 364.392 183.606 364.246 183.907 363.954C184.213 363.662 184.365 363.275 184.365 362.792C184.365 362.318 184.21 361.935 183.9 361.644C183.59 361.347 183.189 361.199 182.697 361.199C182.21 361.199 181.811 361.345 181.501 361.637C181.191 361.924 181.036 362.3 181.036 362.765ZM181.104 358.69C181.104 359.142 181.253 359.511 181.549 359.798C181.85 360.085 182.232 360.229 182.697 360.229C183.167 360.229 183.549 360.085 183.846 359.798C184.146 359.506 184.297 359.132 184.297 358.677C184.297 358.239 184.146 357.879 183.846 357.597C183.549 357.31 183.167 357.166 182.697 357.166C182.228 357.166 181.845 357.31 181.549 357.597C181.253 357.879 181.104 358.244 181.104 358.69ZM181.33 360.693C180.888 360.475 180.555 360.199 180.332 359.866C180.109 359.529 179.997 359.137 179.997 358.69C179.997 357.984 180.25 357.405 180.756 356.954C181.262 356.498 181.909 356.271 182.697 356.271C183.472 356.271 184.117 356.498 184.632 356.954C185.147 357.41 185.404 357.966 185.404 358.622C185.404 359.11 185.295 359.522 185.076 359.859C184.857 360.197 184.518 360.475 184.058 360.693C184.518 360.88 184.871 361.156 185.117 361.521C185.363 361.881 185.486 362.304 185.486 362.792C185.486 363.544 185.227 364.157 184.707 364.631C184.192 365.105 183.522 365.342 182.697 365.342C181.872 365.342 181.202 365.103 180.688 364.624C180.173 364.146 179.915 363.526 179.915 362.765C179.915 362.3 180.038 361.887 180.284 361.527C180.53 361.163 180.879 360.885 181.33 360.693Z" fill="white"/>
<path d="M172.819 385.457C172.819 386.018 172.967 386.476 173.264 386.831C173.56 387.182 173.94 387.357 174.405 387.357C174.843 387.357 175.201 387.191 175.479 386.858C175.761 386.526 175.902 386.09 175.902 385.553C175.902 384.997 175.757 384.546 175.465 384.199C175.178 383.853 174.806 383.68 174.351 383.68C173.909 383.68 173.542 383.846 173.25 384.179C172.963 384.511 172.819 384.938 172.819 385.457ZM172.669 383.639C172.915 383.32 173.188 383.08 173.489 382.921C173.79 382.761 174.118 382.682 174.474 382.682C175.194 382.682 175.804 382.953 176.306 383.495C176.812 384.037 177.064 384.705 177.064 385.498C177.064 386.327 176.821 387.009 176.333 387.542C175.845 388.075 175.221 388.342 174.46 388.342C173.562 388.342 172.842 387.986 172.3 387.275C171.762 386.56 171.493 385.607 171.493 384.418C171.493 382.868 171.892 381.624 172.689 380.686C173.487 379.742 174.54 379.271 175.848 379.271C176.29 379.271 176.581 379.302 176.723 379.366C176.864 379.43 176.935 379.551 176.935 379.729C176.935 380.02 176.666 380.171 176.128 380.18C175.772 380.184 175.488 380.207 175.273 380.248C174.553 380.385 173.968 380.747 173.517 381.335C173.07 381.918 172.787 382.686 172.669 383.639ZM184.256 383.987C184.01 384.302 183.739 384.536 183.442 384.691C183.146 384.846 182.82 384.924 182.465 384.924C181.745 384.924 181.132 384.655 180.626 384.117C180.125 383.575 179.874 382.91 179.874 382.121C179.874 381.292 180.116 380.61 180.599 380.077C181.086 379.539 181.708 379.271 182.465 379.271C183.358 379.271 184.078 379.631 184.625 380.351C185.172 381.066 185.445 382.016 185.445 383.201C185.445 384.764 185.044 386.013 184.242 386.947C183.445 387.877 182.376 388.342 181.036 388.342C180.612 388.342 180.33 388.31 180.188 388.246C180.052 388.182 179.983 388.064 179.983 387.891C179.983 387.599 180.255 387.446 180.797 387.433C181.157 387.424 181.442 387.398 181.651 387.357C182.371 387.225 182.955 386.868 183.401 386.284C183.853 385.701 184.137 384.935 184.256 383.987ZM184.112 382.155C184.112 381.59 183.962 381.132 183.661 380.781C183.365 380.426 182.984 380.248 182.52 380.248C182.077 380.248 181.72 380.414 181.446 380.747C181.173 381.08 181.036 381.515 181.036 382.053C181.036 382.609 181.18 383.062 181.467 383.413C181.754 383.759 182.123 383.933 182.574 383.933C183.016 383.933 183.383 383.766 183.675 383.434C183.966 383.096 184.112 382.67 184.112 382.155Z" fill="white"/>
<path d="M174.392 410.979C174.355 411.089 174.321 411.16 174.289 411.191C174.257 411.223 174.198 411.239 174.111 411.239H173.995H173.51C173.419 411.239 173.346 411.221 173.291 411.185C173.241 411.148 173.216 411.098 173.216 411.034C173.216 410.998 173.218 410.964 173.223 410.932C173.232 410.895 173.243 410.854 173.257 410.809L175.943 403.515H172.471C172.457 403.729 172.409 403.888 172.327 403.993C172.245 404.093 172.124 404.144 171.965 404.144C171.81 404.144 171.694 404.105 171.616 404.027C171.543 403.95 171.507 403.829 171.507 403.665C171.507 403.619 171.507 403.585 171.507 403.562C171.511 403.54 171.516 403.519 171.521 403.501L171.589 402.886C171.603 402.758 171.648 402.66 171.726 402.592C171.808 402.523 171.917 402.489 172.054 402.489H176.572C176.704 402.489 176.8 402.519 176.859 402.578C176.923 402.633 176.955 402.722 176.955 402.845V403.077C176.955 403.132 176.944 403.205 176.921 403.296C176.898 403.382 176.862 403.501 176.812 403.651L174.392 410.979ZM182.697 403.248C182.173 403.248 181.765 403.558 181.474 404.178C181.182 404.798 181.036 405.673 181.036 406.803C181.036 407.938 181.182 408.817 181.474 409.441C181.765 410.061 182.173 410.371 182.697 410.371C183.226 410.371 183.636 410.061 183.928 409.441C184.219 408.817 184.365 407.938 184.365 406.803C184.365 405.673 184.219 404.798 183.928 404.178C183.636 403.558 183.226 403.248 182.697 403.248ZM182.697 411.342C181.84 411.342 181.159 410.938 180.653 410.132C180.152 409.321 179.901 408.211 179.901 406.803C179.901 405.399 180.152 404.294 180.653 403.487C181.159 402.676 181.84 402.271 182.697 402.271C183.554 402.271 184.235 402.676 184.741 403.487C185.247 404.299 185.5 405.404 185.5 406.803C185.5 408.202 185.247 409.309 184.741 410.125C184.235 410.936 183.554 411.342 182.697 411.342Z" fill="white"/>
<path d="M174.392 433.979C174.355 434.089 174.321 434.16 174.289 434.191C174.257 434.223 174.198 434.239 174.111 434.239H173.995H173.51C173.419 434.239 173.346 434.221 173.291 434.185C173.241 434.148 173.216 434.098 173.216 434.034C173.216 433.998 173.218 433.964 173.223 433.932C173.232 433.895 173.243 433.854 173.257 433.809L175.943 426.515H172.471C172.457 426.729 172.409 426.888 172.327 426.993C172.245 427.093 172.124 427.144 171.965 427.144C171.81 427.144 171.694 427.105 171.616 427.027C171.543 426.95 171.507 426.829 171.507 426.665C171.507 426.619 171.507 426.585 171.507 426.562C171.511 426.54 171.516 426.519 171.521 426.501L171.589 425.886C171.603 425.758 171.648 425.66 171.726 425.592C171.808 425.523 171.917 425.489 172.054 425.489H176.572C176.704 425.489 176.8 425.519 176.859 425.578C176.923 425.633 176.955 425.722 176.955 425.845V426.077C176.955 426.132 176.944 426.205 176.921 426.296C176.898 426.382 176.862 426.501 176.812 426.651L174.392 433.979ZM181.063 426.781C181.004 426.79 180.959 426.797 180.927 426.802C180.899 426.806 180.874 426.809 180.852 426.809C180.71 426.809 180.594 426.77 180.503 426.692C180.416 426.61 180.373 426.503 180.373 426.371C180.373 426.262 180.412 426.166 180.489 426.084C180.567 426.002 180.678 425.94 180.824 425.899L182.854 425.353C182.905 425.339 182.952 425.33 182.998 425.325C183.048 425.316 183.098 425.312 183.148 425.312C183.235 425.312 183.303 425.353 183.354 425.435C183.404 425.512 183.429 425.619 183.429 425.756V433.152H184.522C184.928 433.152 185.186 433.187 185.295 433.255C185.404 433.319 185.459 433.442 185.459 433.624C185.459 433.788 185.413 433.911 185.322 433.993C185.231 434.075 185.094 434.116 184.912 434.116H180.824C180.642 434.116 180.505 434.075 180.414 433.993C180.323 433.911 180.277 433.788 180.277 433.624C180.277 433.442 180.332 433.319 180.441 433.255C180.551 433.187 180.808 433.152 181.214 433.152H182.349V426.474L181.063 426.781Z" fill="white"/>
<path d="M174.392 456.979C174.355 457.089 174.321 457.16 174.289 457.191C174.257 457.223 174.198 457.239 174.111 457.239H173.995H173.51C173.419 457.239 173.346 457.221 173.291 457.185C173.241 457.148 173.216 457.098 173.216 457.034C173.216 456.998 173.218 456.964 173.223 456.932C173.232 456.895 173.243 456.854 173.257 456.809L175.943 449.515H172.471C172.457 449.729 172.409 449.888 172.327 449.993C172.245 450.093 172.124 450.144 171.965 450.144C171.81 450.144 171.694 450.105 171.616 450.027C171.543 449.95 171.507 449.829 171.507 449.665C171.507 449.619 171.507 449.585 171.507 449.562C171.511 449.54 171.516 449.519 171.521 449.501L171.589 448.886C171.603 448.758 171.648 448.66 171.726 448.592C171.808 448.523 171.917 448.489 172.054 448.489H176.572C176.704 448.489 176.8 448.519 176.859 448.578C176.923 448.633 176.955 448.722 176.955 448.845V449.077C176.955 449.132 176.944 449.205 176.921 449.296C176.898 449.382 176.862 449.501 176.812 449.651L174.392 456.979ZM180.318 457.116C180.077 457.116 179.897 457.068 179.778 456.973C179.664 456.872 179.607 456.72 179.607 456.515C179.607 456.218 180.045 455.662 180.92 454.847L181.118 454.655C181.25 454.528 181.442 454.345 181.692 454.108C183.269 452.623 184.058 451.54 184.058 450.861C184.058 450.374 183.919 449.979 183.641 449.679C183.363 449.373 183.003 449.221 182.561 449.221C182.273 449.221 181.998 449.28 181.733 449.398C181.474 449.517 181.264 449.676 181.104 449.877C181.077 449.913 181.034 449.975 180.975 450.062C180.806 450.367 180.617 450.52 180.407 450.52C180.243 450.52 180.127 450.469 180.059 450.369C179.99 450.269 179.956 450.077 179.956 449.795C179.956 449.631 179.972 449.512 180.004 449.439C180.036 449.362 180.095 449.28 180.182 449.193C180.473 448.911 180.833 448.688 181.262 448.523C181.695 448.355 182.137 448.271 182.588 448.271C183.344 448.271 183.976 448.514 184.481 449.002C184.992 449.49 185.247 450.089 185.247 450.8C185.247 451.693 184.472 452.88 182.923 454.361C182.526 454.73 182.223 455.02 182.014 455.229L181.173 456.036H184.297C184.315 455.84 184.368 455.692 184.454 455.592C184.545 455.487 184.666 455.435 184.816 455.435C184.967 455.435 185.085 455.485 185.172 455.585C185.258 455.685 185.302 455.822 185.302 455.995C185.302 456.009 185.299 456.034 185.295 456.07C185.29 456.102 185.288 456.125 185.288 456.139L185.233 456.665C185.22 456.806 185.179 456.918 185.11 457C185.042 457.077 184.953 457.116 184.844 457.116H180.318Z" fill="white"/>
<path opacity="0.5" d="M210.5 21.1162L209.941 457" stroke="#ABB8FF"/>
<path opacity="0.5" d="M232.5 21.1162L231.941 457" stroke="#ABB8FF"/>
<path opacity="0.5" d="M255.5 21.1162L254.941 457" stroke="#ABB8FF"/>
<circle cx="117.5" cy="218.616" r="8.5" fill="#ABB8FF"/>
<path d="M0.333333 219.116C0.333333 220.589 1.52724 221.783 3 221.783C4.47276 221.783 5.66667 220.589 5.66667 219.116C5.66667 217.643 4.47276 216.45 3 216.45C1.52724 216.45 0.333333 217.643 0.333333 219.116ZM3 219.616H118V218.616H3V219.616Z" fill="#ABB8FF"/>
</svg>
