<?xml version="1.0" standalone="no"?>
<!DOCTYPE svg PUBLIC "-//W3C//DTD SVG 20010904//EN"
 "http://www.w3.org/TR/2001/REC-SVG-20010904/DTD/svg10.dtd">
<svg version="1.0" xmlns="http://www.w3.org/2000/svg"
 width="66.000000pt" height="66.000000pt" viewBox="0 0 66.000000 66.000000"
 preserveAspectRatio="xMidYMid meet">

<g transform="translate(0.000000,66.000000) scale(0.100000,-0.100000)"
fill="#000000" stroke="none">
<path d="M424 572 c-16 -15 -45 -38 -64 -52 -19 -13 -46 -36 -60 -50 -14 -14
-41 -37 -60 -50 -51 -36 -81 -68 -70 -75 6 -3 10 -1 10 4 0 6 6 11 14 11 7 0
31 17 52 38 22 20 55 48 74 62 19 14 52 42 74 62 21 21 45 38 52 38 8 0 14 5
14 10 0 6 16 10 35 10 51 0 85 -36 85 -90 0 -33 -7 -47 -40 -81 -22 -23 -40
-46 -40 -51 0 -6 -13 -22 -28 -36 -15 -15 -39 -43 -52 -62 -13 -19 -32 -42
-42 -51 -18 -17 -25 -49 -10 -49 5 0 15 12 23 27 8 15 35 49 62 76 26 27 47
53 47 59 0 5 17 26 38 47 51 51 62 73 62 130 0 67 -33 101 -100 101 -38 0 -53
-5 -76 -28z"/>
<path d="M451 544 c-23 -27 -18 -83 9 -105 32 -24 44 -24 75 3 30 26 35 84 8
104 -24 18 -75 17 -92 -2z"/>
<path d="M315 404 c-44 -42 -96 -89 -115 -103 -39 -29 -100 -88 -100 -96 0
-20 38 6 107 73 44 44 96 90 114 103 60 41 107 99 82 99 -5 0 -44 -34 -88 -76z"/>
<path d="M232 244 c-96 -98 -172 -182 -170 -190 2 -9 78 61 193 176 128 128
183 190 170 189 -12 0 -90 -71 -193 -175z"/>
<path d="M387 318 c-42 -46 -85 -94 -94 -108 -10 -14 -32 -40 -50 -58 -35 -34
-41 -52 -20 -52 7 0 20 12 29 28 9 15 40 52 70 83 30 30 65 71 78 90 13 19 37
46 52 61 15 14 28 29 28 32 0 17 -23 -2 -93 -76z"/>
</g>
</svg>
