<?xml version="1.0" standalone="no"?>
<!DOCTYPE svg PUBLIC "-//W3C//DTD SVG 20010904//EN"
 "http://www.w3.org/TR/2001/REC-SVG-20010904/DTD/svg10.dtd">
<svg version="1.0" xmlns="http://www.w3.org/2000/svg"
 width="225.000000pt" height="225.000000pt" viewBox="0 0 225.000000 225.000000"
 preserveAspectRatio="xMidYMid meet">

<g transform="translate(0.000000,225.000000) scale(0.100000,-0.100000)"
fill="#000000" stroke="none">
<path d="M540 1664 c-46 -9 -124 -36 -171 -60 -73 -36 -109 -71 -109 -105 0
-25 4 -29 29 -29 17 0 52 15 83 35 150 99 358 99 505 0 l52 -35 3 27 c2 19 10
29 28 33 23 6 20 9 -39 48 -36 23 -94 52 -130 63 -64 20 -200 32 -251 23z"/>
<path d="M1493 1651 c-79 -22 -116 -39 -183 -84 -43 -30 -44 -31 -20 -37 18
-4 26 -14 28 -33 l3 -27 52 35 c147 99 358 99 504 0 31 -21 64 -35 83 -35 27
0 30 3 30 29 0 22 -9 37 -37 59 -123 96 -309 134 -460 93z"/>
<path d="M970 1460 c0 -19 13 -50 32 -77 49 -72 69 -138 79 -253 10 -132 37
-218 91 -301 39 -60 42 -62 48 -39 5 20 12 25 36 25 l30 0 -34 48 c-51 71 -73
139 -83 257 -11 133 -38 221 -92 302 -35 53 -47 63 -74 66 -31 3 -33 1 -33
-28z"/>
<path d="M1208 1473 c-8 -10 -25 -33 -38 -51 l-23 -34 19 -54 c17 -51 34 -71
34 -41 0 8 18 42 40 76 24 37 40 74 40 91 0 26 -4 30 -28 30 -16 0 -36 -8 -44
-17z"/>
<path d="M189 1450 c-70 -92 -104 -199 -104 -325 0 -99 14 -162 56 -246 41
-82 75 -119 110 -119 26 0 29 3 29 31 0 17 -11 45 -25 63 -13 17 -37 59 -52
92 -25 54 -27 69 -27 179 0 110 2 125 27 179 15 33 39 75 53 93 l25 33 -30 0
c-25 0 -30 4 -33 28 l-3 27 -26 -35z"/>
<path d="M2030 1458 c0 -24 -4 -28 -29 -28 l-30 0 35 -51 c98 -146 98 -364 -1
-508 -21 -31 -35 -62 -35 -81 0 -29 2 -31 33 -28 27 3 39 13 73 65 23 34 52
92 65 130 54 159 17 376 -85 498 l-25 30 -1 -27z"/>
<path d="M560 1125 l0 -90 57 3 c75 5 95 22 25 22 -51 0 -52 1 -52 30 0 29 2
30 45 30 25 0 45 5 45 10 0 6 -20 10 -45 10 -41 0 -45 2 -45 25 0 23 3 25 52
25 70 0 50 17 -25 22 l-57 3 0 -90z"/>
<path d="M732 1166 c11 -28 27 -69 34 -91 23 -67 47 -56 84 40 18 44 34 85 36
91 3 6 -2 11 -10 11 -10 0 -25 -27 -42 -74 -15 -40 -30 -73 -33 -73 -4 0 -19
33 -34 73 -16 44 -33 74 -41 74 -12 0 -10 -10 6 -51z"/>
<path d="M1420 1207 c-50 -25 -63 -105 -24 -148 41 -46 132 -28 152 30 29 84
-50 157 -128 118z m84 -28 c36 -29 36 -80 -1 -109 -48 -37 -103 -8 -103 55 0
43 25 71 66 74 6 1 23 -8 38 -20z"/>
<path d="M1772 1204 c-13 -9 -22 -26 -22 -40 0 -20 8 -28 38 -40 75 -30 89
-47 49 -65 -20 -9 -32 -8 -57 4 -29 15 -31 15 -28 -1 2 -10 18 -21 40 -26 46
-11 88 12 88 48 0 29 -14 41 -65 58 -47 16 -55 34 -22 49 18 8 30 8 46 0 12
-7 26 -9 33 -5 13 8 -28 33 -57 34 -11 0 -31 -7 -43 -16z"/>
<path d="M380 1125 l0 -85 53 0 c67 0 99 28 99 85 0 57 -32 85 -99 85 l-53 0
0 -85z m114 43 c36 -51 7 -108 -55 -108 l-39 0 0 65 0 65 39 0 c30 0 44 -6 55
-22z"/>
<path d="M1590 1120 c0 -53 4 -90 10 -90 6 0 10 18 10 40 l0 40 43 0 c49 0 67
13 67 50 0 38 -18 50 -77 50 l-53 0 0 -90z m104 55 c11 -29 -5 -45 -45 -45
-37 0 -39 2 -39 30 0 28 2 30 39 30 25 0 41 -5 45 -15z"/>
<path d="M1050 956 c0 -8 -19 -43 -42 -78 l-43 -63 29 0 c24 0 31 -5 36 -25 6
-24 7 -23 39 24 l33 48 -18 54 c-17 51 -34 71 -34 40z"/>
<path d="M320 750 c0 -26 -4 -30 -27 -30 l-28 -1 30 -25 c84 -70 200 -109 330
-109 120 0 203 25 298 89 52 34 62 46 65 74 3 30 1 32 -28 32 -19 0 -51 -14
-83 -35 -147 -100 -357 -99 -504 0 l-53 36 0 -31z"/>
<path d="M1262 748 c3 -28 13 -40 65 -74 34 -23 92 -52 130 -65 159 -55 376
-18 498 85 l30 25 -27 1 c-24 0 -28 4 -28 30 l0 31 -52 -36 c-148 -99 -358
-100 -505 0 -32 21 -64 35 -83 35 -29 0 -31 -2 -28 -32z"/>
</g>
</svg>
