<?xml version="1.0" encoding="UTF-8" standalone="no"?>
<!DOCTYPE svg PUBLIC "-//W3C//DTD SVG 1.1//EN"
 "http://www.w3.org/Graphics/SVG/1.1/DTD/svg11.dtd">
<!-- Generated by graphviz version 9.0.0 (20230911.1827)
 -->
<!-- Pages: 1 -->
<svg width="969pt" height="258pt"
 viewBox="0.00 0.00 969.00 257.75" xmlns="http://www.w3.org/2000/svg" xmlns:xlink="http://www.w3.org/1999/xlink">
<g id="graph0" class="graph" transform="scale(1 1) rotate(0) translate(36 221.75)">
<polygon fill="white" stroke="none" points="-36,36 -36,-221.75 933,-221.75 933,36 -36,36"/>
<!-- starbake_product -->
<g id="node1" class="node">
<title>starbake_product</title>
<polygon fill="#008b00" stroke="none" points="705.25,-148 705.25,-185.75 759.5,-185.75 759.5,-148 705.25,-148"/>
<polygon fill="none" stroke="black" points="705.25,-148 705.25,-185.75 759.5,-185.75 759.5,-148 705.25,-148"/>
<text text-anchor="start" x="716.25" y="-161.45" font-family="Arial" font-size="14.00" fill="white">Table</text>
<polygon fill="none" stroke="black" points="759.5,-148 759.5,-185.75 889.5,-185.75 889.5,-148 759.5,-148"/>
<text text-anchor="start" x="770.5" y="-161.45" font-family="Arial" font-size="14.00">starbake.product  </text>
</g>
<!-- kpi_product_summary -->
<g id="node2" class="node">
<title>kpi_product_summary</title>
<polygon fill="#00008b" stroke="none" points="342.12,-74 342.12,-111.75 391.88,-111.75 391.88,-74 342.12,-74"/>
<polygon fill="none" stroke="black" points="342.12,-74 342.12,-111.75 391.88,-111.75 391.88,-74 342.12,-74"/>
<text text-anchor="start" x="353.12" y="-87.45" font-family="Arial" font-size="14.00" fill="white">Task</text>
<polygon fill="none" stroke="black" points="391.88,-74 391.88,-111.75 551.88,-111.75 551.88,-74 391.88,-74"/>
<text text-anchor="start" x="402.88" y="-87.45" font-family="Arial" font-size="14.00">kpi.product_summary  </text>
</g>
<!-- starbake_product&#45;&gt;kpi_product_summary -->
<g id="edge3" class="edge">
<title>starbake_product&#45;&gt;kpi_product_summary</title>
<path fill="none" stroke="black" d="M707.56,-148.01C658.84,-137.66 598.26,-124.79 547.89,-114.09"/>
<polygon fill="black" stroke="black" points="548.64,-110.67 538.13,-112.02 547.18,-117.52 548.64,-110.67"/>
</g>
<!-- kpi_order_summary -->
<g id="node5" class="node">
<title>kpi_order_summary</title>
<polygon fill="#00008b" stroke="none" points="0,-37 0,-74.75 49.75,-74.75 49.75,-37 0,-37"/>
<polygon fill="none" stroke="black" points="0,-37 0,-74.75 49.75,-74.75 49.75,-37 0,-37"/>
<text text-anchor="start" x="11" y="-50.45" font-family="Arial" font-size="14.00" fill="white">Task</text>
<polygon fill="none" stroke="black" points="49.75,-37 49.75,-74.75 196.25,-74.75 196.25,-37 49.75,-37"/>
<text text-anchor="start" x="60.75" y="-50.45" font-family="Arial" font-size="14.00">kpi.order_summary  </text>
</g>
<!-- kpi_product_summary&#45;&gt;kpi_order_summary -->
<g id="edge1" class="edge">
<title>kpi_product_summary&#45;&gt;kpi_order_summary</title>
<path fill="none" stroke="black" d="M342.4,-81.82C299.79,-77.28 250.43,-72.01 207.35,-67.42"/>
<polygon fill="black" stroke="black" points="207.79,-63.95 197.47,-66.37 207.04,-70.91 207.79,-63.95"/>
</g>
<!-- starbake_order_line -->
<g id="node3" class="node">
<title>starbake_order_line</title>
<polygon fill="#008b00" stroke="none" points="697.75,0 697.75,-37.75 752,-37.75 752,0 697.75,0"/>
<polygon fill="none" stroke="black" points="697.75,0 697.75,-37.75 752,-37.75 752,0 697.75,0"/>
<text text-anchor="start" x="708.75" y="-13.45" font-family="Arial" font-size="14.00" fill="white">Table</text>
<polygon fill="none" stroke="black" points="752,0 752,-37.75 897,-37.75 897,0 752,0"/>
<text text-anchor="start" x="763" y="-13.45" font-family="Arial" font-size="14.00">starbake.order_line  </text>
</g>
<!-- starbake_order_line&#45;&gt;kpi_product_summary -->
<g id="edge4" class="edge">
<title>starbake_order_line&#45;&gt;kpi_product_summary</title>
<path fill="none" stroke="black" d="M707.56,-37.74C658.84,-48.09 598.26,-60.96 547.89,-71.66"/>
<polygon fill="black" stroke="black" points="547.18,-68.23 538.13,-73.73 548.64,-75.08 547.18,-68.23"/>
</g>
<!-- kpi_revenue_summary -->
<g id="node4" class="node">
<title>kpi_revenue_summary</title>
<polygon fill="#00008b" stroke="none" points="340.25,0 340.25,-37.75 390,-37.75 390,0 340.25,0"/>
<polygon fill="none" stroke="black" points="340.25,0 340.25,-37.75 390,-37.75 390,0 340.25,0"/>
<text text-anchor="start" x="351.25" y="-13.45" font-family="Arial" font-size="14.00" fill="white">Task</text>
<polygon fill="none" stroke="black" points="390,0 390,-37.75 553.75,-37.75 553.75,0 390,0"/>
<text text-anchor="start" x="401" y="-13.45" font-family="Arial" font-size="14.00">kpi.revenue_summary  </text>
</g>
<!-- starbake_order_line&#45;&gt;kpi_revenue_summary -->
<g id="edge7" class="edge">
<title>starbake_order_line&#45;&gt;kpi_revenue_summary</title>
<path fill="none" stroke="black" d="M697.94,-18.88C656.57,-18.88 608.11,-18.88 564.94,-18.88"/>
<polygon fill="black" stroke="black" points="565.01,-15.38 555.01,-18.88 565.01,-22.38 565.01,-15.38"/>
</g>
<!-- kpi_revenue_summary&#45;&gt;kpi_order_summary -->
<g id="edge2" class="edge">
<title>kpi_revenue_summary&#45;&gt;kpi_order_summary</title>
<path fill="none" stroke="black" d="M340.51,-30.13C298.34,-34.63 249.8,-39.8 207.35,-44.33"/>
<polygon fill="black" stroke="black" points="207.21,-40.83 197.63,-45.37 207.95,-47.79 207.21,-40.83"/>
</g>
<!-- starbake_order -->
<g id="node6" class="node">
<title>starbake_order</title>
<polygon fill="#008b00" stroke="none" points="712,-74 712,-111.75 766.25,-111.75 766.25,-74 712,-74"/>
<polygon fill="none" stroke="black" points="712,-74 712,-111.75 766.25,-111.75 766.25,-74 712,-74"/>
<text text-anchor="start" x="723" y="-87.45" font-family="Arial" font-size="14.00" fill="white">Table</text>
<polygon fill="none" stroke="black" points="766.25,-74 766.25,-111.75 882.75,-111.75 882.75,-74 766.25,-74"/>
<text text-anchor="start" x="777.25" y="-87.45" font-family="Arial" font-size="14.00">starbake.order  </text>
</g>
<!-- starbake_order&#45;&gt;kpi_product_summary -->
<g id="edge5" class="edge">
<title>starbake_order&#45;&gt;kpi_product_summary</title>
<path fill="none" stroke="black" d="M712.04,-92.88C667.3,-92.88 611.66,-92.88 563.02,-92.88"/>
<polygon fill="black" stroke="black" points="563.3,-89.38 553.3,-92.88 563.3,-96.38 563.3,-89.38"/>
</g>
<!-- starbake_order&#45;&gt;kpi_revenue_summary -->
<g id="edge6" class="edge">
<title>starbake_order&#45;&gt;kpi_revenue_summary</title>
<path fill="none" stroke="black" d="M712.04,-74.96C662.61,-64.46 599.88,-51.14 547.97,-40.11"/>
<polygon fill="black" stroke="black" points="548.71,-36.69 538.2,-38.04 547.26,-43.54 548.71,-36.69"/>
</g>
</g>
</svg>
