<?xml version="1.0" encoding="UTF-8" standalone="no"?>
<!DOCTYPE svg PUBLIC "-//W3C//DTD SVG 1.1//EN"
        "http://www.w3.org/Graphics/SVG/1.1/DTD/svg11.dtd">
<!-- Generated by graphviz version 9.0.0 (20230911.1827)
 -->
<!-- Pages: 1 -->
<svg width="969pt" height="258pt"
     viewBox="0.00 0.00 969.00 257.75" xmlns="http://www.w3.org/2000/svg" xmlns:xlink="http://www.w3.org/1999/xlink">
    <g id="graph0" class="graph" transform="scale(1 1) rotate(0) translate(36 221.75)">
        <polygon fill="white" stroke="none" points="-36,36 -36,-221.75 933,-221.75 933,36 -36,36"/>
        <!-- starbake_product -->
        <g id="node1" class="node">
            <title>starbake_product</title>
            <polygon fill="#008b00" stroke="none" points="7.5,-148 7.5,-185.75 61.75,-185.75 61.75,-148 7.5,-148"/>
            <polygon fill="none" stroke="black" points="7.5,-148 7.5,-185.75 61.75,-185.75 61.75,-148 7.5,-148"/>
            <text text-anchor="start" x="18.5" y="-161.45" font-family="Arial" font-size="14.00" fill="white">Table</text>
            <polygon fill="none" stroke="black" points="61.75,-148 61.75,-185.75 191.75,-185.75 191.75,-148 61.75,-148"/>
            <text text-anchor="start" x="72.75" y="-161.45" font-family="Arial" font-size="14.00">starbake.product  </text>
        </g>
        <!-- kpi_product_summary -->
        <g id="node2" class="node">
            <title>kpi_product_summary</title>
            <polygon fill="#00008b" stroke="none" points="345.12,-74 345.12,-111.75 394.88,-111.75 394.88,-74 345.12,-74"/>
            <polygon fill="none" stroke="black" points="345.12,-74 345.12,-111.75 394.88,-111.75 394.88,-74 345.12,-74"/>
            <text text-anchor="start" x="356.12" y="-87.45" font-family="Arial" font-size="14.00" fill="white">Task</text>
            <polygon fill="none" stroke="black" points="394.88,-74 394.88,-111.75 554.88,-111.75 554.88,-74 394.88,-74"/>
            <text text-anchor="start" x="405.88" y="-87.45" font-family="Arial" font-size="14.00">kpi.product_summary  </text>
        </g>
        <!-- starbake_product&#45;&gt;kpi_product_summary -->
        <g id="edge3" class="edge">
            <title>starbake_product&#45;&gt;kpi_product_summary</title>
            <path fill="none" stroke="black" d="M189.44,-148.01C238.16,-137.66 298.74,-124.79 349.11,-114.09"/>
            <polygon fill="black" stroke="black" points="349.82,-117.52 358.87,-112.02 348.36,-110.67 349.82,-117.52"/>
        </g>
        <!-- kpi_order_summary -->
        <g id="node5" class="node">
            <title>kpi_order_summary</title>
            <polygon fill="#00008b" stroke="none" points="700.75,-37 700.75,-74.75 750.5,-74.75 750.5,-37 700.75,-37"/>
            <polygon fill="none" stroke="black" points="700.75,-37 700.75,-74.75 750.5,-74.75 750.5,-37 700.75,-37"/>
            <text text-anchor="start" x="711.75" y="-50.45" font-family="Arial" font-size="14.00" fill="white">Task</text>
            <polygon fill="none" stroke="black" points="750.5,-37 750.5,-74.75 897,-74.75 897,-37 750.5,-37"/>
            <text text-anchor="start" x="761.5" y="-50.45" font-family="Arial" font-size="14.00">kpi.order_summary  </text>
        </g>
        <!-- kpi_product_summary&#45;&gt;kpi_order_summary -->
        <g id="edge1" class="edge">
            <title>kpi_product_summary&#45;&gt;kpi_order_summary</title>
            <path fill="none" stroke="black" d="M554.6,-81.82C597.21,-77.28 646.57,-72.01 689.65,-67.42"/>
            <polygon fill="black" stroke="black" points="689.96,-70.91 699.53,-66.37 689.21,-63.95 689.96,-70.91"/>
        </g>
        <!-- starbake_order_line -->
        <g id="node3" class="node">
            <title>starbake_order_line</title>
            <polygon fill="#008b00" stroke="none" points="0,0 0,-37.75 54.25,-37.75 54.25,0 0,0"/>
            <polygon fill="none" stroke="black" points="0,0 0,-37.75 54.25,-37.75 54.25,0 0,0"/>
            <text text-anchor="start" x="11" y="-13.45" font-family="Arial" font-size="14.00" fill="white">Table</text>
            <polygon fill="none" stroke="black" points="54.25,0 54.25,-37.75 199.25,-37.75 199.25,0 54.25,0"/>
            <text text-anchor="start" x="65.25" y="-13.45" font-family="Arial" font-size="14.00">starbake.order_line  </text>
        </g>
        <!-- starbake_order_line&#45;&gt;kpi_product_summary -->
        <g id="edge4" class="edge">
            <title>starbake_order_line&#45;&gt;kpi_product_summary</title>
            <path fill="none" stroke="black" d="M189.44,-37.74C238.16,-48.09 298.74,-60.96 349.11,-71.66"/>
            <polygon fill="black" stroke="black" points="348.36,-75.08 358.87,-73.73 349.82,-68.23 348.36,-75.08"/>
        </g>
        <!-- kpi_revenue_summary -->
        <g id="node4" class="node">
            <title>kpi_revenue_summary</title>
            <polygon fill="#00008b" stroke="none" points="343.25,0 343.25,-37.75 393,-37.75 393,0 343.25,0"/>
            <polygon fill="none" stroke="black" points="343.25,0 343.25,-37.75 393,-37.75 393,0 343.25,0"/>
            <text text-anchor="start" x="354.25" y="-13.45" font-family="Arial" font-size="14.00" fill="white">Task</text>
            <polygon fill="none" stroke="black" points="393,0 393,-37.75 556.75,-37.75 556.75,0 393,0"/>
            <text text-anchor="start" x="404" y="-13.45" font-family="Arial" font-size="14.00">kpi.revenue_summary  </text>
        </g>
        <!-- starbake_order_line&#45;&gt;kpi_revenue_summary -->
        <g id="edge7" class="edge">
            <title>starbake_order_line&#45;&gt;kpi_revenue_summary</title>
            <path fill="none" stroke="black" d="M199.06,-18.88C240.43,-18.88 288.89,-18.88 332.06,-18.88"/>
            <polygon fill="black" stroke="black" points="331.99,-22.38 341.99,-18.88 331.99,-15.38 331.99,-22.38"/>
        </g>
        <!-- kpi_revenue_summary&#45;&gt;kpi_order_summary -->
        <g id="edge2" class="edge">
            <title>kpi_revenue_summary&#45;&gt;kpi_order_summary</title>
            <path fill="none" stroke="black" d="M556.49,-30.13C598.66,-34.63 647.2,-39.8 689.65,-44.33"/>
            <polygon fill="black" stroke="black" points="689.05,-47.79 699.37,-45.37 689.79,-40.83 689.05,-47.79"/>
        </g>
        <!-- starbake_order -->
        <g id="node6" class="node">
            <title>starbake_order</title>
            <polygon fill="#008b00" stroke="none" points="14.25,-74 14.25,-111.75 68.5,-111.75 68.5,-74 14.25,-74"/>
            <polygon fill="none" stroke="black" points="14.25,-74 14.25,-111.75 68.5,-111.75 68.5,-74 14.25,-74"/>
            <text text-anchor="start" x="25.25" y="-87.45" font-family="Arial" font-size="14.00" fill="white">Table</text>
            <polygon fill="none" stroke="black" points="68.5,-74 68.5,-111.75 185,-111.75 185,-74 68.5,-74"/>
            <text text-anchor="start" x="79.5" y="-87.45" font-family="Arial" font-size="14.00">starbake.order  </text>
        </g>
        <!-- starbake_order&#45;&gt;kpi_product_summary -->
        <g id="edge5" class="edge">
            <title>starbake_order&#45;&gt;kpi_product_summary</title>
            <path fill="none" stroke="black" d="M184.96,-92.88C229.7,-92.88 285.34,-92.88 333.98,-92.88"/>
            <polygon fill="black" stroke="black" points="333.7,-96.38 343.7,-92.88 333.7,-89.38 333.7,-96.38"/>
        </g>
        <!-- starbake_order&#45;&gt;kpi_revenue_summary -->
        <g id="edge6" class="edge">
            <title>starbake_order&#45;&gt;kpi_revenue_summary</title>
            <path fill="none" stroke="black" d="M184.96,-74.96C234.39,-64.46 297.12,-51.14 349.03,-40.11"/>
            <polygon fill="black" stroke="black" points="349.74,-43.54 358.8,-38.04 348.29,-36.69 349.74,-43.54"/>
        </g>
    </g>
</svg>
