<?xml version="1.0" standalone="no"?>
<!DOCTYPE svg PUBLIC "-//W3C//DTD SVG 20010904//EN"
 "http://www.w3.org/TR/2001/REC-SVG-20010904/DTD/svg10.dtd">
<svg version="1.0" xmlns="http://www.w3.org/2000/svg"
 width="150.000000pt" height="150.000000pt" viewBox="0 0 150.000000 150.000000"
 preserveAspectRatio="xMidYMid meet">

<g transform="translate(0.000000,150.000000) scale(0.100000,-0.100000)"
fill="#000000" stroke="none">
<path d="M138 984 c-49 -26 -62 -66 -66 -204 -4 -145 7 -200 48 -242 26 -25
35 -28 100 -28 45 0 82 6 101 16 35 18 59 67 59 119 l0 36 -47 -3 c-47 -3 -48
-4 -51 -38 -4 -43 -18 -60 -48 -60 -45 0 -58 39 -58 175 0 99 3 127 17 148 33
51 87 27 87 -37 0 -25 3 -26 51 -26 l52 0 -7 43 c-7 48 -32 86 -67 104 -33 17
-138 16 -171 -3z"/>
<path d="M675 930 c38 -38 71 -70 72 -70 7 0 -10 57 -24 78 -17 28 -71 62 -98
62 -15 0 -2 -17 50 -70z"/>
<path d="M1248 993 l-78 -4 0 -239 0 -240 135 0 135 0 0 40 0 40 -85 0 -85 0
0 71 0 72 75 -6 75 -7 0 45 0 45 -75 -7 -75 -6 0 62 0 61 80 0 80 0 0 40 0 40
-52 -2 c-29 -1 -88 -4 -130 -5z"/>
<path d="M810 893 l0 -99 45 -44 45 -44 0 107 0 107 40 0 c57 0 77 -24 85
-104 8 -68 -1 -169 -16 -197 -6 -12 1 -25 25 -48 l33 -32 21 26 c30 38 45 126
39 226 -6 94 -22 143 -57 174 -19 17 -39 20 -141 23 l-119 4 0 -99z"/>
<path d="M438 914 c-8 -18 -12 -77 -13 -164 0 -111 4 -141 18 -168 27 -49 71
-72 140 -72 93 0 142 34 160 111 5 21 -2 34 -43 74 l-50 49 0 -47 c0 -26 -7
-63 -14 -82 -13 -29 -20 -35 -45 -35 -53 0 -66 34 -67 173 l-1 119 -36 36 -36
36 -13 -30z"/>
<path d="M810 545 c0 -34 1 -35 37 -35 l37 0 -34 35 c-19 19 -35 35 -37 35 -2
0 -3 -16 -3 -35z"/>
</g>
</svg>
