<?xml version="1.0" encoding="UTF-8" standalone="no"?><!DOCTYPE svg PUBLIC "-//W3C//DTD SVG 1.1//EN" "http://www.w3.org/Graphics/SVG/1.1/DTD/svg11.dtd"><!-- Generated by graphviz version 2.40.1 (20161225.0304)
 --><!-- Title: %0 Pages: 1 --><svg xmlns="http://www.w3.org/2000/svg" xmlns:xlink="http://www.w3.org/1999/xlink" width="1431pt" height="258pt" viewBox="0.00 0.00 1431.00 258.00">
<g id="graph0" class="graph" transform="scale(1 1) rotate(0) translate(36 222)">
<title>%0</title>
<polygon fill="#ffffff" stroke="transparent" points="-36,36 -36,-222 1395,-222 1395,36 -36,36"/>
<!-- Products_ProductProfitability -->
<g id="node1" class="node">
<title>Products_ProductProfitability</title>
<polygon fill="#00008b" stroke="transparent" points="822,-74 822,-112 1040,-112 1040,-74 822,-74"/>
<polygon fill="none" stroke="#000000" points="822,-74 822,-112 1040,-112 1040,-74 822,-74"/>
<text text-anchor="start" x="832.601" y="-89.4" font-family="Arial" font-weight="bold" font-size="14.00" fill="#ffffff"> Products.ProductProfitability  </text>
</g>
<!-- starbake_Products -->
<g id="node2" class="node">
<title>starbake_Products</title>
<polygon fill="#ffffff" stroke="transparent" points="1197.5,-74 1197.5,-112 1352.5,-112 1352.5,-74 1197.5,-74"/>
<polygon fill="none" stroke="#000000" points="1197.5,-74 1197.5,-112 1352.5,-112 1352.5,-74 1197.5,-74"/>
<text text-anchor="start" x="1208.0996" y="-89.4" font-family="Arial" font-weight="bold" font-size="14.00" fill="#000000"> starbake.Products  </text>
</g>
<!-- Products_ProductProfitability&#45;&gt;starbake_Products -->
<g id="edge2" class="edge">
<title>Products_ProductProfitability-&gt;starbake_Products</title>
<path fill="none" stroke="#000000" d="M1040.1575,-93C1087.452,-93 1142.0822,-93 1186.6929,-93"/>
<polygon fill="#000000" stroke="#000000" points="1186.9271,-96.5001 1196.9271,-93 1186.927,-89.5001 1186.9271,-96.5001"/>
</g>
<!-- starbake_Ingredients -->
<g id="node3" class="node">
<title>starbake_Ingredients</title>
<polygon fill="#ffffff" stroke="transparent" points="1190.5,0 1190.5,-38 1359.5,-38 1359.5,0 1190.5,0"/>
<polygon fill="none" stroke="#000000" points="1190.5,0 1190.5,-38 1359.5,-38 1359.5,0 1190.5,0"/>
<text text-anchor="start" x="1201.0954" y="-15.4" font-family="Arial" font-weight="bold" font-size="14.00" fill="#000000"> starbake.Ingredients  </text>
</g>
<!-- Products_ProductProfitability&#45;&gt;starbake_Ingredients -->
<g id="edge3" class="edge">
<title>Products_ProductProfitability-&gt;starbake_Ingredients</title>
<path fill="none" stroke="#000000" d="M1019.4598,-73.9432C1068.6584,-63.3443 1129.8883,-50.1536 1180.0211,-39.3535"/>
<polygon fill="#000000" stroke="#000000" points="1180.8543,-42.7544 1189.8929,-37.2269 1179.38,-35.9114 1180.8543,-42.7544"/>
</g>
<!-- starbake_Orders -->
<g id="node6" class="node">
<title>starbake_Orders</title>
<polygon fill="#ffffff" stroke="transparent" points="1203.5,-148 1203.5,-186 1346.5,-186 1346.5,-148 1203.5,-148"/>
<polygon fill="none" stroke="#000000" points="1203.5,-148 1203.5,-186 1346.5,-186 1346.5,-148 1203.5,-148"/>
<text text-anchor="start" x="1214.3289" y="-163.4" font-family="Arial" font-weight="bold" font-size="14.00" fill="#000000"> starbake.Orders  </text>
</g>
<!-- Products_ProductProfitability&#45;&gt;starbake_Orders -->
<g id="edge1" class="edge">
<title>Products_ProductProfitability-&gt;starbake_Orders</title>
<path fill="none" stroke="#000000" d="M1019.4598,-112.0568C1072.9627,-123.5829 1140.6941,-138.1743 1192.9089,-149.4229"/>
<polygon fill="#000000" stroke="#000000" points="1192.2903,-152.8698 1202.8032,-151.5544 1193.7646,-146.0268 1192.2903,-152.8698"/>
</g>
<!-- Products_ProductPerformance -->
<g id="node4" class="node">
<title>Products_ProductPerformance</title>
<polygon fill="#00008b" stroke="transparent" points="816,-148 816,-186 1046,-186 1046,-148 816,-148"/>
<polygon fill="none" stroke="#000000" points="816,-148 816,-186 1046,-186 1046,-148 816,-148"/>
<text text-anchor="start" x="826.7616" y="-163.4" font-family="Arial" font-weight="bold" font-size="14.00" fill="#ffffff"> Products.ProductPerformance  </text>
</g>
<!-- Products_ProductPerformance&#45;&gt;starbake_Products -->
<g id="edge5" class="edge">
<title>Products_ProductPerformance-&gt;starbake_Products</title>
<path fill="none" stroke="#000000" d="M1019.4598,-147.9432C1070.8947,-136.8626 1135.4795,-122.9491 1186.7865,-111.8961"/>
<polygon fill="#000000" stroke="#000000" points="1187.8244,-115.2529 1196.863,-109.7253 1186.3501,-108.4098 1187.8244,-115.2529"/>
</g>
<!-- Products_ProductPerformance&#45;&gt;starbake_Orders -->
<g id="edge4" class="edge">
<title>Products_ProductPerformance-&gt;starbake_Orders</title>
<path fill="none" stroke="#000000" d="M1046.3361,-167C1094.3434,-167 1148.9659,-167 1192.7279,-167"/>
<polygon fill="#000000" stroke="#000000" points="1192.7485,-170.5001 1202.7485,-167 1192.7484,-163.5001 1192.7485,-170.5001"/>
</g>
<!-- Products_TopSellingProfitableProducts -->
<g id="node5" class="node">
<title>Products_TopSellingProfitableProducts</title>
<polygon fill="#00008b" stroke="transparent" points="0,-111 0,-149 282,-149 282,-111 0,-111"/>
<polygon fill="none" stroke="#000000" points="0,-111 0,-149 282,-149 282,-111 0,-111"/>
<text text-anchor="start" x="10.7006" y="-126.4" font-family="Arial" font-weight="bold" font-size="14.00" fill="#ffffff"> Products.TopSellingProfitableProducts  </text>
</g>
<!-- Products_MostProfitableProducts -->
<g id="node7" class="node">
<title>Products_MostProfitableProducts</title>
<polygon fill="#00008b" stroke="transparent" points="426,-74 426,-112 672,-112 672,-74 426,-74"/>
<polygon fill="none" stroke="#000000" points="426,-74 426,-112 672,-112 672,-74 426,-74"/>
<text text-anchor="start" x="436.5947" y="-89.4" font-family="Arial" font-weight="bold" font-size="14.00" fill="#ffffff"> Products.MostProfitableProducts  </text>
</g>
<!-- Products_TopSellingProfitableProducts&#45;&gt;Products_MostProfitableProducts -->
<g id="edge7" class="edge">
<title>Products_TopSellingProfitableProducts-&gt;Products_MostProfitableProducts</title>
<path fill="none" stroke="#000000" d="M282.2676,-117.189C325.5384,-113.2649 372.9807,-108.9625 415.7021,-105.0883"/>
<polygon fill="#000000" stroke="#000000" points="416.2383,-108.5541 425.8813,-104.1652 415.606,-101.5827 416.2383,-108.5541"/>
</g>
<!-- Products_TopSellingProducts -->
<g id="node8" class="node">
<title>Products_TopSellingProducts</title>
<polygon fill="#00008b" stroke="transparent" points="438,-148 438,-186 661,-186 661,-148 438,-148"/>
<polygon fill="none" stroke="#000000" points="438,-148 438,-186 661,-186 661,-148 438,-148"/>
<text text-anchor="start" x="448.7616" y="-163.4" font-family="Arial" font-weight="bold" font-size="14.00" fill="#ffffff"> Products.TopSellingProducts  </text>
</g>
<!-- Products_TopSellingProfitableProducts&#45;&gt;Products_TopSellingProducts -->
<g id="edge6" class="edge">
<title>Products_TopSellingProfitableProducts-&gt;Products_TopSellingProducts</title>
<path fill="none" stroke="#000000" d="M282.2676,-142.811C329.467,-147.0914 381.6296,-151.8218 427.2148,-155.9558"/>
<polygon fill="#000000" stroke="#000000" points="427.1645,-159.4655 437.4398,-156.883 427.7968,-152.4941 427.1645,-159.4655"/>
</g>
<!-- Products_MostProfitableProducts&#45;&gt;Products_ProductProfitability -->
<g id="edge8" class="edge">
<title>Products_MostProfitableProducts-&gt;Products_ProductProfitability</title>
<path fill="none" stroke="#000000" d="M672.2333,-93C716.9389,-93 767.3354,-93 811.6961,-93"/>
<polygon fill="#000000" stroke="#000000" points="811.9471,-96.5001 821.9471,-93 811.947,-89.5001 811.9471,-96.5001"/>
</g>
<!-- Products_TopSellingProducts&#45;&gt;Products_ProductPerformance -->
<g id="edge9" class="edge">
<title>Products_TopSellingProducts-&gt;Products_ProductPerformance</title>
<path fill="none" stroke="#000000" d="M660.5171,-167C705.9613,-167 758.7119,-167 805.4972,-167"/>
<polygon fill="#000000" stroke="#000000" points="805.6942,-170.5001 815.6942,-167 805.6942,-163.5001 805.6942,-170.5001"/>
</g>
</g>
</svg>