<svg width="552" height="368" viewBox="0 0 552 368" fill="none" xmlns="http://www.w3.org/2000/svg">
<rect x="0.5" y="0.616211" width="438" height="366" rx="9.5" fill="#ABB8FF" fill-opacity="0.1" stroke="#ABB8FF"/>
<rect x="184.5" y="83.6162" width="367" height="208" rx="9.5" fill="#020013" stroke="#ABB8FF"/>
<path d="M54.6553 35.7812C54.596 35.7904 54.5505 35.7972 54.5186 35.8018C54.4912 35.8063 54.4661 35.8086 54.4434 35.8086C54.3021 35.8086 54.1859 35.7699 54.0947 35.6924C54.0081 35.6104 53.9648 35.5033 53.9648 35.3711C53.9648 35.2617 54.0036 35.166 54.0811 35.084C54.1585 35.002 54.2702 34.9404 54.416 34.8994L56.4463 34.3525C56.4964 34.3389 56.5443 34.3298 56.5898 34.3252C56.64 34.3161 56.6901 34.3115 56.7402 34.3115C56.8268 34.3115 56.8952 34.3525 56.9453 34.4346C56.9954 34.512 57.0205 34.6191 57.0205 34.7559V42.1523H58.1143C58.5199 42.1523 58.7773 42.1865 58.8867 42.2549C58.9961 42.3187 59.0508 42.4417 59.0508 42.624C59.0508 42.7881 59.0052 42.9111 58.9141 42.9932C58.8229 43.0752 58.6862 43.1162 58.5039 43.1162H54.416C54.2337 43.1162 54.097 43.0752 54.0059 42.9932C53.9147 42.9111 53.8691 42.7881 53.8691 42.624C53.8691 42.4417 53.9238 42.3187 54.0332 42.2549C54.1426 42.1865 54.4001 42.1523 54.8057 42.1523H55.9404V35.4736L54.6553 35.7812ZM63.0361 40.7646C63.0361 41.2477 63.1865 41.6396 63.4873 41.9404C63.7926 42.2412 64.196 42.3916 64.6973 42.3916C65.2031 42.3916 65.6064 42.2458 65.9072 41.9541C66.2126 41.6624 66.3652 41.2751 66.3652 40.792C66.3652 40.318 66.2103 39.9352 65.9004 39.6436C65.5905 39.3473 65.1895 39.1992 64.6973 39.1992C64.2096 39.1992 63.8109 39.3451 63.501 39.6367C63.1911 39.9238 63.0361 40.2998 63.0361 40.7646ZM63.1045 36.6904C63.1045 37.1416 63.2526 37.5107 63.5488 37.7979C63.8496 38.085 64.2324 38.2285 64.6973 38.2285C65.1667 38.2285 65.5495 38.085 65.8457 37.7979C66.1465 37.5062 66.2969 37.1325 66.2969 36.6768C66.2969 36.2393 66.1465 35.8792 65.8457 35.5967C65.5495 35.3096 65.1667 35.166 64.6973 35.166C64.2279 35.166 63.8451 35.3096 63.5488 35.5967C63.2526 35.8792 63.1045 36.2438 63.1045 36.6904ZM63.3301 38.6934C62.888 38.4746 62.5553 38.1989 62.332 37.8662C62.1087 37.529 61.9971 37.137 61.9971 36.6904C61.9971 35.984 62.25 35.4053 62.7559 34.9541C63.2617 34.4984 63.9089 34.2705 64.6973 34.2705C65.472 34.2705 66.1169 34.4984 66.6318 34.9541C67.1468 35.4098 67.4043 35.9658 67.4043 36.6221C67.4043 37.1097 67.2949 37.5221 67.0762 37.8594C66.8574 38.1966 66.5179 38.4746 66.0576 38.6934C66.5179 38.8802 66.8711 39.1559 67.1172 39.5205C67.3633 39.8805 67.4863 40.3044 67.4863 40.792C67.4863 41.5439 67.2266 42.1569 66.707 42.6309C66.1921 43.1048 65.5221 43.3418 64.6973 43.3418C63.8724 43.3418 63.2025 43.1025 62.6875 42.624C62.1725 42.1455 61.915 41.5257 61.915 40.7646C61.915 40.2998 62.0381 39.8874 62.2842 39.5273C62.5303 39.1628 62.8789 38.8848 63.3301 38.6934Z" fill="white"/>
<path d="M54.6553 58.7812C54.596 58.7904 54.5505 58.7972 54.5186 58.8018C54.4912 58.8063 54.4661 58.8086 54.4434 58.8086C54.3021 58.8086 54.1859 58.7699 54.0947 58.6924C54.0081 58.6104 53.9648 58.5033 53.9648 58.3711C53.9648 58.2617 54.0036 58.166 54.0811 58.084C54.1585 58.002 54.2702 57.9404 54.416 57.8994L56.4463 57.3525C56.4964 57.3389 56.5443 57.3298 56.5898 57.3252C56.64 57.3161 56.6901 57.3115 56.7402 57.3115C56.8268 57.3115 56.8952 57.3525 56.9453 57.4346C56.9954 57.512 57.0205 57.6191 57.0205 57.7559V65.1523H58.1143C58.5199 65.1523 58.7773 65.1865 58.8867 65.2549C58.9961 65.3187 59.0508 65.4417 59.0508 65.624C59.0508 65.7881 59.0052 65.9111 58.9141 65.9932C58.8229 66.0752 58.6862 66.1162 58.5039 66.1162H54.416C54.2337 66.1162 54.097 66.0752 54.0059 65.9932C53.9147 65.9111 53.8691 65.7881 53.8691 65.624C53.8691 65.4417 53.9238 65.3187 54.0332 65.2549C54.1426 65.1865 54.4001 65.1523 54.8057 65.1523H55.9404V58.4736L54.6553 58.7812ZM66.2559 61.9873C66.0098 62.3018 65.7386 62.5365 65.4424 62.6914C65.1462 62.8464 64.8203 62.9238 64.4648 62.9238C63.7448 62.9238 63.1318 62.6549 62.626 62.1172C62.1247 61.5749 61.874 60.9095 61.874 60.1211C61.874 59.2917 62.1156 58.6104 62.5986 58.0771C63.0863 57.5394 63.7083 57.2705 64.4648 57.2705C65.3581 57.2705 66.0781 57.6305 66.625 58.3506C67.1719 59.0661 67.4453 60.0163 67.4453 61.2012C67.4453 62.7643 67.0443 64.013 66.2422 64.9473C65.4447 65.877 64.376 66.3418 63.0361 66.3418C62.6123 66.3418 62.3298 66.3099 62.1885 66.2461C62.0518 66.1823 61.9834 66.0638 61.9834 65.8906C61.9834 65.599 62.2546 65.4463 62.7969 65.4326C63.1569 65.4235 63.4417 65.3984 63.6514 65.3574C64.3714 65.2253 64.9548 64.8675 65.4014 64.2842C65.8525 63.7008 66.1374 62.9352 66.2559 61.9873ZM66.1123 60.1553C66.1123 59.5902 65.9619 59.1322 65.6611 58.7812C65.3649 58.4258 64.9844 58.248 64.5195 58.248C64.0775 58.248 63.7197 58.4144 63.4463 58.7471C63.1729 59.0798 63.0361 59.515 63.0361 60.0527C63.0361 60.6087 63.1797 61.0622 63.4668 61.4131C63.7539 61.7594 64.123 61.9326 64.5742 61.9326C65.0163 61.9326 65.3831 61.7663 65.6748 61.4336C65.9665 61.0964 66.1123 60.6702 66.1123 60.1553Z" fill="white"/>
<path d="M53.9102 89.1162C53.6686 89.1162 53.4886 89.0684 53.3701 88.9727C53.2562 88.8724 53.1992 88.7197 53.1992 88.5146C53.1992 88.2184 53.6367 87.6624 54.5117 86.8467L54.71 86.6553C54.8421 86.5277 55.0335 86.3454 55.2842 86.1084C56.861 84.6227 57.6494 83.5404 57.6494 82.8613C57.6494 82.3737 57.5104 81.9795 57.2324 81.6787C56.9544 81.3734 56.5944 81.2207 56.1523 81.2207C55.8652 81.2207 55.5895 81.2799 55.3252 81.3984C55.0654 81.5169 54.8558 81.6764 54.6963 81.877C54.6689 81.9134 54.6257 81.9749 54.5664 82.0615C54.3978 82.3669 54.2087 82.5195 53.999 82.5195C53.835 82.5195 53.7188 82.4694 53.6504 82.3691C53.582 82.2689 53.5479 82.0775 53.5479 81.7949C53.5479 81.6309 53.5638 81.5124 53.5957 81.4395C53.6276 81.362 53.6868 81.2799 53.7734 81.1934C54.0651 80.9108 54.4251 80.6875 54.8535 80.5234C55.2865 80.3548 55.7285 80.2705 56.1797 80.2705C56.9362 80.2705 57.5674 80.5143 58.0732 81.002C58.5837 81.4896 58.8389 82.0889 58.8389 82.7998C58.8389 83.693 58.0641 84.8802 56.5146 86.3613C56.1182 86.7305 55.8151 87.0199 55.6055 87.2295L54.7646 88.0361H57.8887C57.9069 87.8402 57.9593 87.6921 58.0459 87.5918C58.137 87.487 58.2578 87.4346 58.4082 87.4346C58.5586 87.4346 58.6771 87.4847 58.7637 87.585C58.8503 87.6852 58.8936 87.8219 58.8936 87.9951C58.8936 88.0088 58.8913 88.0339 58.8867 88.0703C58.8822 88.1022 58.8799 88.125 58.8799 88.1387L58.8252 88.665C58.8115 88.8063 58.7705 88.918 58.7021 89C58.6338 89.0775 58.5449 89.1162 58.4355 89.1162H53.9102ZM64.6973 81.248C64.1732 81.248 63.7653 81.5579 63.4736 82.1777C63.182 82.7975 63.0361 83.6725 63.0361 84.8027C63.0361 85.9375 63.182 86.8171 63.4736 87.4414C63.7653 88.0612 64.1732 88.3711 64.6973 88.3711C65.2259 88.3711 65.6361 88.0612 65.9277 87.4414C66.2194 86.8171 66.3652 85.9375 66.3652 84.8027C66.3652 83.6725 66.2194 82.7975 65.9277 82.1777C65.6361 81.5579 65.2259 81.248 64.6973 81.248ZM64.6973 89.3418C63.8405 89.3418 63.1592 88.9385 62.6533 88.1318C62.152 87.3206 61.9014 86.2109 61.9014 84.8027C61.9014 83.3991 62.152 82.2939 62.6533 81.4873C63.1592 80.6761 63.8405 80.2705 64.6973 80.2705C65.554 80.2705 66.2354 80.6761 66.7412 81.4873C67.2471 82.2985 67.5 83.4036 67.5 84.8027C67.5 86.2018 67.2471 87.3092 66.7412 88.125C66.2354 88.9362 65.554 89.3418 64.6973 89.3418Z" fill="white"/>
<path d="M53.9102 112.116C53.6686 112.116 53.4886 112.068 53.3701 111.973C53.2562 111.872 53.1992 111.72 53.1992 111.515C53.1992 111.218 53.6367 110.662 54.5117 109.847L54.71 109.655C54.8421 109.528 55.0335 109.345 55.2842 109.108C56.861 107.623 57.6494 106.54 57.6494 105.861C57.6494 105.374 57.5104 104.979 57.2324 104.679C56.9544 104.373 56.5944 104.221 56.1523 104.221C55.8652 104.221 55.5895 104.28 55.3252 104.398C55.0654 104.517 54.8558 104.676 54.6963 104.877C54.6689 104.913 54.6257 104.975 54.5664 105.062C54.3978 105.367 54.2087 105.52 53.999 105.52C53.835 105.52 53.7188 105.469 53.6504 105.369C53.582 105.269 53.5479 105.077 53.5479 104.795C53.5479 104.631 53.5638 104.512 53.5957 104.439C53.6276 104.362 53.6868 104.28 53.7734 104.193C54.0651 103.911 54.4251 103.688 54.8535 103.523C55.2865 103.355 55.7285 103.271 56.1797 103.271C56.9362 103.271 57.5674 103.514 58.0732 104.002C58.5837 104.49 58.8389 105.089 58.8389 105.8C58.8389 106.693 58.0641 107.88 56.5146 109.361C56.1182 109.73 55.8151 110.02 55.6055 110.229L54.7646 111.036H57.8887C57.9069 110.84 57.9593 110.692 58.0459 110.592C58.137 110.487 58.2578 110.435 58.4082 110.435C58.5586 110.435 58.6771 110.485 58.7637 110.585C58.8503 110.685 58.8936 110.822 58.8936 110.995C58.8936 111.009 58.8913 111.034 58.8867 111.07C58.8822 111.102 58.8799 111.125 58.8799 111.139L58.8252 111.665C58.8115 111.806 58.7705 111.918 58.7021 112C58.6338 112.077 58.5449 112.116 58.4355 112.116H53.9102ZM63.0635 104.781C63.0042 104.79 62.9587 104.797 62.9268 104.802C62.8994 104.806 62.8743 104.809 62.8516 104.809C62.7103 104.809 62.5941 104.77 62.5029 104.692C62.4163 104.61 62.373 104.503 62.373 104.371C62.373 104.262 62.4118 104.166 62.4893 104.084C62.5667 104.002 62.6784 103.94 62.8242 103.899L64.8545 103.353C64.9046 103.339 64.9525 103.33 64.998 103.325C65.0482 103.316 65.0983 103.312 65.1484 103.312C65.235 103.312 65.3034 103.353 65.3535 103.435C65.4036 103.512 65.4287 103.619 65.4287 103.756V111.152H66.5225C66.9281 111.152 67.1855 111.187 67.2949 111.255C67.4043 111.319 67.459 111.442 67.459 111.624C67.459 111.788 67.4134 111.911 67.3223 111.993C67.2311 112.075 67.0944 112.116 66.9121 112.116H62.8242C62.6419 112.116 62.5052 112.075 62.4141 111.993C62.3229 111.911 62.2773 111.788 62.2773 111.624C62.2773 111.442 62.332 111.319 62.4414 111.255C62.5508 111.187 62.8083 111.152 63.2139 111.152H64.3486V104.474L63.0635 104.781Z" fill="white"/>
<path d="M53.9102 135.116C53.6686 135.116 53.4886 135.068 53.3701 134.973C53.2562 134.872 53.1992 134.72 53.1992 134.515C53.1992 134.218 53.6367 133.662 54.5117 132.847L54.71 132.655C54.8421 132.528 55.0335 132.345 55.2842 132.108C56.861 130.623 57.6494 129.54 57.6494 128.861C57.6494 128.374 57.5104 127.979 57.2324 127.679C56.9544 127.373 56.5944 127.221 56.1523 127.221C55.8652 127.221 55.5895 127.28 55.3252 127.398C55.0654 127.517 54.8558 127.676 54.6963 127.877C54.6689 127.913 54.6257 127.975 54.5664 128.062C54.3978 128.367 54.2087 128.52 53.999 128.52C53.835 128.52 53.7188 128.469 53.6504 128.369C53.582 128.269 53.5479 128.077 53.5479 127.795C53.5479 127.631 53.5638 127.512 53.5957 127.439C53.6276 127.362 53.6868 127.28 53.7734 127.193C54.0651 126.911 54.4251 126.688 54.8535 126.523C55.2865 126.355 55.7285 126.271 56.1797 126.271C56.9362 126.271 57.5674 126.514 58.0732 127.002C58.5837 127.49 58.8389 128.089 58.8389 128.8C58.8389 129.693 58.0641 130.88 56.5146 132.361C56.1182 132.73 55.8151 133.02 55.6055 133.229L54.7646 134.036H57.8887C57.9069 133.84 57.9593 133.692 58.0459 133.592C58.137 133.487 58.2578 133.435 58.4082 133.435C58.5586 133.435 58.6771 133.485 58.7637 133.585C58.8503 133.685 58.8936 133.822 58.8936 133.995C58.8936 134.009 58.8913 134.034 58.8867 134.07C58.8822 134.102 58.8799 134.125 58.8799 134.139L58.8252 134.665C58.8115 134.806 58.7705 134.918 58.7021 135C58.6338 135.077 58.5449 135.116 58.4355 135.116H53.9102ZM62.3184 135.116C62.0768 135.116 61.8968 135.068 61.7783 134.973C61.6644 134.872 61.6074 134.72 61.6074 134.515C61.6074 134.218 62.0449 133.662 62.9199 132.847L63.1182 132.655C63.2503 132.528 63.4417 132.345 63.6924 132.108C65.2692 130.623 66.0576 129.54 66.0576 128.861C66.0576 128.374 65.9186 127.979 65.6406 127.679C65.3626 127.373 65.0026 127.221 64.5605 127.221C64.2734 127.221 63.9977 127.28 63.7334 127.398C63.4736 127.517 63.264 127.676 63.1045 127.877C63.0771 127.913 63.0339 127.975 62.9746 128.062C62.806 128.367 62.6169 128.52 62.4072 128.52C62.2432 128.52 62.127 128.469 62.0586 128.369C61.9902 128.269 61.9561 128.077 61.9561 127.795C61.9561 127.631 61.972 127.512 62.0039 127.439C62.0358 127.362 62.0951 127.28 62.1816 127.193C62.4733 126.911 62.8333 126.688 63.2617 126.523C63.6947 126.355 64.1367 126.271 64.5879 126.271C65.3444 126.271 65.9756 126.514 66.4814 127.002C66.9919 127.49 67.2471 128.089 67.2471 128.8C67.2471 129.693 66.4723 130.88 64.9229 132.361C64.5264 132.73 64.2233 133.02 64.0137 133.229L63.1729 134.036H66.2969C66.3151 133.84 66.3675 133.692 66.4541 133.592C66.5452 133.487 66.666 133.435 66.8164 133.435C66.9668 133.435 67.0853 133.485 67.1719 133.585C67.2585 133.685 67.3018 133.822 67.3018 133.995C67.3018 134.009 67.2995 134.034 67.2949 134.07C67.2904 134.102 67.2881 134.125 67.2881 134.139L67.2334 134.665C67.2197 134.806 67.1787 134.918 67.1104 135C67.042 135.077 66.9531 135.116 66.8438 135.116H62.3184Z" fill="white"/>
<path d="M53.9102 158.116C53.6686 158.116 53.4886 158.068 53.3701 157.973C53.2562 157.872 53.1992 157.72 53.1992 157.515C53.1992 157.218 53.6367 156.662 54.5117 155.847L54.71 155.655C54.8421 155.528 55.0335 155.345 55.2842 155.108C56.861 153.623 57.6494 152.54 57.6494 151.861C57.6494 151.374 57.5104 150.979 57.2324 150.679C56.9544 150.373 56.5944 150.221 56.1523 150.221C55.8652 150.221 55.5895 150.28 55.3252 150.398C55.0654 150.517 54.8558 150.676 54.6963 150.877C54.6689 150.913 54.6257 150.975 54.5664 151.062C54.3978 151.367 54.2087 151.52 53.999 151.52C53.835 151.52 53.7188 151.469 53.6504 151.369C53.582 151.269 53.5479 151.077 53.5479 150.795C53.5479 150.631 53.5638 150.512 53.5957 150.439C53.6276 150.362 53.6868 150.28 53.7734 150.193C54.0651 149.911 54.4251 149.688 54.8535 149.523C55.2865 149.355 55.7285 149.271 56.1797 149.271C56.9362 149.271 57.5674 149.514 58.0732 150.002C58.5837 150.49 58.8389 151.089 58.8389 151.8C58.8389 152.693 58.0641 153.88 56.5146 155.361C56.1182 155.73 55.8151 156.02 55.6055 156.229L54.7646 157.036H57.8887C57.9069 156.84 57.9593 156.692 58.0459 156.592C58.137 156.487 58.2578 156.435 58.4082 156.435C58.5586 156.435 58.6771 156.485 58.7637 156.585C58.8503 156.685 58.8936 156.822 58.8936 156.995C58.8936 157.009 58.8913 157.034 58.8867 157.07C58.8822 157.102 58.8799 157.125 58.8799 157.139L58.8252 157.665C58.8115 157.806 58.7705 157.918 58.7021 158C58.6338 158.077 58.5449 158.116 58.4355 158.116H53.9102ZM65.7637 153.413C66.2969 153.559 66.7093 153.826 67.001 154.213C67.2972 154.596 67.4453 155.065 67.4453 155.621C67.4453 156.419 67.1628 157.073 66.5977 157.583C66.0326 158.089 65.3011 158.342 64.4033 158.342C63.7106 158.342 63.0931 158.21 62.5508 157.945C62.013 157.676 61.7441 157.382 61.7441 157.063C61.7441 156.927 61.792 156.815 61.8877 156.729C61.988 156.637 62.1087 156.592 62.25 156.592C62.3275 156.592 62.6077 156.708 63.0908 156.94C63.5785 157.173 64.0319 157.289 64.4512 157.289C64.9935 157.289 65.4333 157.134 65.7705 156.824C66.1123 156.514 66.2832 156.113 66.2832 155.621C66.2832 155.215 66.1647 154.874 65.9277 154.596C65.6953 154.313 65.374 154.133 64.9639 154.056C64.8408 154.033 64.679 154.015 64.4785 154.001C64.0957 153.978 63.9043 153.819 63.9043 153.522C63.9043 153.254 64.0911 153.096 64.4648 153.051C64.6107 153.037 64.7314 153.021 64.8271 153.003C65.1826 152.948 65.4697 152.802 65.6885 152.565C65.9072 152.328 66.0166 152.041 66.0166 151.704C66.0166 151.271 65.8822 150.918 65.6133 150.645C65.3444 150.371 65.0026 150.234 64.5879 150.234C64.2051 150.234 63.8109 150.353 63.4053 150.59C63.0042 150.827 62.7536 150.945 62.6533 150.945C62.5257 150.945 62.4186 150.904 62.332 150.822C62.25 150.74 62.209 150.638 62.209 150.515C62.209 150.237 62.4642 149.961 62.9746 149.688C63.485 149.41 64.0501 149.271 64.6699 149.271C65.3809 149.271 65.971 149.487 66.4404 149.92C66.9144 150.348 67.1514 150.877 67.1514 151.506C67.1514 151.984 67.0374 152.379 66.8096 152.688C66.5863 152.998 66.2376 153.24 65.7637 153.413Z" fill="white"/>
<path d="M53.9102 181.116C53.6686 181.116 53.4886 181.068 53.3701 180.973C53.2562 180.872 53.1992 180.72 53.1992 180.515C53.1992 180.218 53.6367 179.662 54.5117 178.847L54.71 178.655C54.8421 178.528 55.0335 178.345 55.2842 178.108C56.861 176.623 57.6494 175.54 57.6494 174.861C57.6494 174.374 57.5104 173.979 57.2324 173.679C56.9544 173.373 56.5944 173.221 56.1523 173.221C55.8652 173.221 55.5895 173.28 55.3252 173.398C55.0654 173.517 54.8558 173.676 54.6963 173.877C54.6689 173.913 54.6257 173.975 54.5664 174.062C54.3978 174.367 54.2087 174.52 53.999 174.52C53.835 174.52 53.7188 174.469 53.6504 174.369C53.582 174.269 53.5479 174.077 53.5479 173.795C53.5479 173.631 53.5638 173.512 53.5957 173.439C53.6276 173.362 53.6868 173.28 53.7734 173.193C54.0651 172.911 54.4251 172.688 54.8535 172.523C55.2865 172.355 55.7285 172.271 56.1797 172.271C56.9362 172.271 57.5674 172.514 58.0732 173.002C58.5837 173.49 58.8389 174.089 58.8389 174.8C58.8389 175.693 58.0641 176.88 56.5146 178.361C56.1182 178.73 55.8151 179.02 55.6055 179.229L54.7646 180.036H57.8887C57.9069 179.84 57.9593 179.692 58.0459 179.592C58.137 179.487 58.2578 179.435 58.4082 179.435C58.5586 179.435 58.6771 179.485 58.7637 179.585C58.8503 179.685 58.8936 179.822 58.8936 179.995C58.8936 180.009 58.8913 180.034 58.8867 180.07C58.8822 180.102 58.8799 180.125 58.8799 180.139L58.8252 180.665C58.8115 180.806 58.7705 180.918 58.7021 181C58.6338 181.077 58.5449 181.116 58.4355 181.116H53.9102ZM65.2715 177.965V173.33L62.6807 177.965H65.2715ZM64.5332 181.116C64.3145 181.116 64.1663 181.082 64.0889 181.014C64.0114 180.941 63.9727 180.811 63.9727 180.624C63.9727 180.46 64.0114 180.341 64.0889 180.269C64.1709 180.191 64.3008 180.152 64.4785 180.152H65.2715V179.004H62.0791C61.9652 179.004 61.8763 178.967 61.8125 178.895C61.7487 178.822 61.7168 178.717 61.7168 178.58V178.108C61.7168 177.926 61.7829 177.735 61.915 177.534C61.9378 177.498 61.9561 177.468 61.9697 177.445L64.8545 172.551C64.9183 172.437 64.9707 172.364 65.0117 172.332C65.0527 172.3 65.1074 172.284 65.1758 172.284C65.2031 172.284 65.251 172.289 65.3193 172.298C65.3376 172.302 65.3558 172.307 65.374 172.312L66.0713 172.421C66.1351 172.43 66.1852 172.466 66.2217 172.53C66.2627 172.59 66.2832 172.669 66.2832 172.77V177.965H66.6318C66.7321 177.965 66.8096 177.926 66.8643 177.849C66.9189 177.767 66.9805 177.726 67.0488 177.726C67.14 177.726 67.2174 177.76 67.2812 177.828C67.3451 177.896 67.377 177.981 67.377 178.081C67.377 178.122 67.3747 178.161 67.3701 178.197C67.3656 178.229 67.3564 178.263 67.3428 178.3L67.2881 178.58C67.2562 178.744 67.2083 178.856 67.1445 178.915C67.0853 178.974 66.9896 179.004 66.8574 179.004H66.2832V180.152H66.5225C66.8141 180.152 67.0146 180.189 67.124 180.262C67.2334 180.33 67.2881 180.451 67.2881 180.624C67.2881 180.788 67.2425 180.911 67.1514 180.993C67.0602 181.075 66.9235 181.116 66.7412 181.116H64.5332Z" fill="white"/>
<path d="M53.9102 204.116C53.6686 204.116 53.4886 204.068 53.3701 203.973C53.2562 203.872 53.1992 203.72 53.1992 203.515C53.1992 203.218 53.6367 202.662 54.5117 201.847L54.71 201.655C54.8421 201.528 55.0335 201.345 55.2842 201.108C56.861 199.623 57.6494 198.54 57.6494 197.861C57.6494 197.374 57.5104 196.979 57.2324 196.679C56.9544 196.373 56.5944 196.221 56.1523 196.221C55.8652 196.221 55.5895 196.28 55.3252 196.398C55.0654 196.517 54.8558 196.676 54.6963 196.877C54.6689 196.913 54.6257 196.975 54.5664 197.062C54.3978 197.367 54.2087 197.52 53.999 197.52C53.835 197.52 53.7188 197.469 53.6504 197.369C53.582 197.269 53.5479 197.077 53.5479 196.795C53.5479 196.631 53.5638 196.512 53.5957 196.439C53.6276 196.362 53.6868 196.28 53.7734 196.193C54.0651 195.911 54.4251 195.688 54.8535 195.523C55.2865 195.355 55.7285 195.271 56.1797 195.271C56.9362 195.271 57.5674 195.514 58.0732 196.002C58.5837 196.49 58.8389 197.089 58.8389 197.8C58.8389 198.693 58.0641 199.88 56.5146 201.361C56.1182 201.73 55.8151 202.02 55.6055 202.229L54.7646 203.036H57.8887C57.9069 202.84 57.9593 202.692 58.0459 202.592C58.137 202.487 58.2578 202.435 58.4082 202.435C58.5586 202.435 58.6771 202.485 58.7637 202.585C58.8503 202.685 58.8936 202.822 58.8936 202.995C58.8936 203.009 58.8913 203.034 58.8867 203.07C58.8822 203.102 58.8799 203.125 58.8799 203.139L58.8252 203.665C58.8115 203.806 58.7705 203.918 58.7021 204C58.6338 204.077 58.5449 204.116 58.4355 204.116H53.9102ZM63.1592 198.771C63.46 198.661 63.738 198.581 63.9932 198.531C64.2484 198.477 64.4922 198.449 64.7246 198.449C65.5221 198.449 66.1852 198.727 66.7139 199.283C67.2471 199.835 67.5137 200.521 67.5137 201.341C67.5137 202.211 67.2197 202.929 66.6318 203.494C66.0439 204.059 65.292 204.342 64.376 204.342C63.6104 204.342 62.9678 204.239 62.4482 204.034C61.9333 203.825 61.6758 203.572 61.6758 203.275C61.6758 203.157 61.7236 203.052 61.8193 202.961C61.915 202.865 62.0267 202.817 62.1543 202.817C62.2044 202.817 62.471 202.906 62.9541 203.084C63.4417 203.257 63.8929 203.344 64.3076 203.344C64.9183 203.344 65.4128 203.161 65.791 202.797C66.1738 202.428 66.3652 201.954 66.3652 201.375C66.3652 200.81 66.1852 200.34 65.8252 199.967C65.4652 199.589 65.0117 199.399 64.4648 199.399C64.0547 199.399 63.6514 199.502 63.2549 199.707C62.863 199.912 62.626 200.015 62.5439 200.015C62.4072 200.015 62.3092 199.965 62.25 199.864C62.1953 199.764 62.168 199.582 62.168 199.317V195.913C62.168 195.763 62.2135 195.656 62.3047 195.592C62.4004 195.523 62.5645 195.489 62.7969 195.489H66.2559C66.4746 195.489 66.6387 195.535 66.748 195.626C66.8574 195.713 66.9121 195.845 66.9121 196.022C66.9121 196.191 66.8551 196.323 66.7412 196.419C66.6273 196.51 66.4655 196.556 66.2559 196.556H63.1592V198.771Z" fill="white"/>
<path d="M53.9102 227.116C53.6686 227.116 53.4886 227.068 53.3701 226.973C53.2562 226.872 53.1992 226.72 53.1992 226.515C53.1992 226.218 53.6367 225.662 54.5117 224.847L54.71 224.655C54.8421 224.528 55.0335 224.345 55.2842 224.108C56.861 222.623 57.6494 221.54 57.6494 220.861C57.6494 220.374 57.5104 219.979 57.2324 219.679C56.9544 219.373 56.5944 219.221 56.1523 219.221C55.8652 219.221 55.5895 219.28 55.3252 219.398C55.0654 219.517 54.8558 219.676 54.6963 219.877C54.6689 219.913 54.6257 219.975 54.5664 220.062C54.3978 220.367 54.2087 220.52 53.999 220.52C53.835 220.52 53.7188 220.469 53.6504 220.369C53.582 220.269 53.5479 220.077 53.5479 219.795C53.5479 219.631 53.5638 219.512 53.5957 219.439C53.6276 219.362 53.6868 219.28 53.7734 219.193C54.0651 218.911 54.4251 218.688 54.8535 218.523C55.2865 218.355 55.7285 218.271 56.1797 218.271C56.9362 218.271 57.5674 218.514 58.0732 219.002C58.5837 219.49 58.8389 220.089 58.8389 220.8C58.8389 221.693 58.0641 222.88 56.5146 224.361C56.1182 224.73 55.8151 225.02 55.6055 225.229L54.7646 226.036H57.8887C57.9069 225.84 57.9593 225.692 58.0459 225.592C58.137 225.487 58.2578 225.435 58.4082 225.435C58.5586 225.435 58.6771 225.485 58.7637 225.585C58.8503 225.685 58.8936 225.822 58.8936 225.995C58.8936 226.009 58.8913 226.034 58.8867 226.07C58.8822 226.102 58.8799 226.125 58.8799 226.139L58.8252 226.665C58.8115 226.806 58.7705 226.918 58.7021 227C58.6338 227.077 58.5449 227.116 58.4355 227.116H53.9102ZM63.2275 224.457C63.2275 225.018 63.3757 225.476 63.6719 225.831C63.9681 226.182 64.3486 226.357 64.8135 226.357C65.251 226.357 65.6087 226.191 65.8867 225.858C66.1693 225.526 66.3105 225.09 66.3105 224.553C66.3105 223.997 66.1647 223.546 65.873 223.199C65.5859 222.853 65.2145 222.68 64.7588 222.68C64.3167 222.68 63.9499 222.846 63.6582 223.179C63.3711 223.511 63.2275 223.938 63.2275 224.457ZM63.0771 222.639C63.3232 222.32 63.5967 222.08 63.8975 221.921C64.1982 221.761 64.5264 221.682 64.8818 221.682C65.6019 221.682 66.2126 221.953 66.7139 222.495C67.2197 223.037 67.4727 223.705 67.4727 224.498C67.4727 225.327 67.2288 226.009 66.7412 226.542C66.2536 227.075 65.6292 227.342 64.8682 227.342C63.9704 227.342 63.2503 226.986 62.708 226.275C62.1702 225.56 61.9014 224.607 61.9014 223.418C61.9014 221.868 62.3001 220.624 63.0977 219.686C63.8952 218.742 64.9479 218.271 66.2559 218.271C66.6979 218.271 66.9896 218.302 67.1309 218.366C67.2721 218.43 67.3428 218.551 67.3428 218.729C67.3428 219.02 67.0739 219.171 66.5361 219.18C66.1807 219.184 65.8958 219.207 65.6816 219.248C64.9616 219.385 64.376 219.747 63.9248 220.335C63.4782 220.918 63.1956 221.686 63.0771 222.639Z" fill="white"/>
<path d="M53.9102 250.116C53.6686 250.116 53.4886 250.068 53.3701 249.973C53.2562 249.872 53.1992 249.72 53.1992 249.515C53.1992 249.218 53.6367 248.662 54.5117 247.847L54.71 247.655C54.8421 247.528 55.0335 247.345 55.2842 247.108C56.861 245.623 57.6494 244.54 57.6494 243.861C57.6494 243.374 57.5104 242.979 57.2324 242.679C56.9544 242.373 56.5944 242.221 56.1523 242.221C55.8652 242.221 55.5895 242.28 55.3252 242.398C55.0654 242.517 54.8558 242.676 54.6963 242.877C54.6689 242.913 54.6257 242.975 54.5664 243.062C54.3978 243.367 54.2087 243.52 53.999 243.52C53.835 243.52 53.7188 243.469 53.6504 243.369C53.582 243.269 53.5479 243.077 53.5479 242.795C53.5479 242.631 53.5638 242.512 53.5957 242.439C53.6276 242.362 53.6868 242.28 53.7734 242.193C54.0651 241.911 54.4251 241.688 54.8535 241.523C55.2865 241.355 55.7285 241.271 56.1797 241.271C56.9362 241.271 57.5674 241.514 58.0732 242.002C58.5837 242.49 58.8389 243.089 58.8389 243.8C58.8389 244.693 58.0641 245.88 56.5146 247.361C56.1182 247.73 55.8151 248.02 55.6055 248.229L54.7646 249.036H57.8887C57.9069 248.84 57.9593 248.692 58.0459 248.592C58.137 248.487 58.2578 248.435 58.4082 248.435C58.5586 248.435 58.6771 248.485 58.7637 248.585C58.8503 248.685 58.8936 248.822 58.8936 248.995C58.8936 249.009 58.8913 249.034 58.8867 249.07C58.8822 249.102 58.8799 249.125 58.8799 249.139L58.8252 249.665C58.8115 249.806 58.7705 249.918 58.7021 250C58.6338 250.077 58.5449 250.116 58.4355 250.116H53.9102ZM64.7998 249.979C64.7633 250.089 64.7292 250.16 64.6973 250.191C64.6654 250.223 64.6061 250.239 64.5195 250.239H64.4033H63.918C63.8268 250.239 63.7539 250.221 63.6992 250.185C63.6491 250.148 63.624 250.098 63.624 250.034C63.624 249.998 63.6263 249.964 63.6309 249.932C63.64 249.895 63.6514 249.854 63.665 249.809L66.3516 242.515H62.8789C62.8652 242.729 62.8174 242.888 62.7354 242.993C62.6533 243.093 62.5326 243.144 62.373 243.144C62.2181 243.144 62.1019 243.105 62.0244 243.027C61.9515 242.95 61.915 242.829 61.915 242.665C61.915 242.619 61.915 242.585 61.915 242.562C61.9196 242.54 61.9242 242.519 61.9287 242.501L61.9971 241.886C62.0107 241.758 62.0563 241.66 62.1338 241.592C62.2158 241.523 62.3252 241.489 62.4619 241.489H66.9805C67.1126 241.489 67.2083 241.519 67.2676 241.578C67.3314 241.633 67.3633 241.722 67.3633 241.845V242.077C67.3633 242.132 67.3519 242.205 67.3291 242.296C67.3063 242.382 67.2699 242.501 67.2197 242.651L64.7998 249.979Z" fill="white"/>
<path d="M53.9102 273.116C53.6686 273.116 53.4886 273.068 53.3701 272.973C53.2562 272.872 53.1992 272.72 53.1992 272.515C53.1992 272.218 53.6367 271.662 54.5117 270.847L54.71 270.655C54.8421 270.528 55.0335 270.345 55.2842 270.108C56.861 268.623 57.6494 267.54 57.6494 266.861C57.6494 266.374 57.5104 265.979 57.2324 265.679C56.9544 265.373 56.5944 265.221 56.1523 265.221C55.8652 265.221 55.5895 265.28 55.3252 265.398C55.0654 265.517 54.8558 265.676 54.6963 265.877C54.6689 265.913 54.6257 265.975 54.5664 266.062C54.3978 266.367 54.2087 266.52 53.999 266.52C53.835 266.52 53.7188 266.469 53.6504 266.369C53.582 266.269 53.5479 266.077 53.5479 265.795C53.5479 265.631 53.5638 265.512 53.5957 265.439C53.6276 265.362 53.6868 265.28 53.7734 265.193C54.0651 264.911 54.4251 264.688 54.8535 264.523C55.2865 264.355 55.7285 264.271 56.1797 264.271C56.9362 264.271 57.5674 264.514 58.0732 265.002C58.5837 265.49 58.8389 266.089 58.8389 266.8C58.8389 267.693 58.0641 268.88 56.5146 270.361C56.1182 270.73 55.8151 271.02 55.6055 271.229L54.7646 272.036H57.8887C57.9069 271.84 57.9593 271.692 58.0459 271.592C58.137 271.487 58.2578 271.435 58.4082 271.435C58.5586 271.435 58.6771 271.485 58.7637 271.585C58.8503 271.685 58.8936 271.822 58.8936 271.995C58.8936 272.009 58.8913 272.034 58.8867 272.07C58.8822 272.102 58.8799 272.125 58.8799 272.139L58.8252 272.665C58.8115 272.806 58.7705 272.918 58.7021 273C58.6338 273.077 58.5449 273.116 58.4355 273.116H53.9102ZM63.0361 270.765C63.0361 271.248 63.1865 271.64 63.4873 271.94C63.7926 272.241 64.196 272.392 64.6973 272.392C65.2031 272.392 65.6064 272.246 65.9072 271.954C66.2126 271.662 66.3652 271.275 66.3652 270.792C66.3652 270.318 66.2103 269.935 65.9004 269.644C65.5905 269.347 65.1895 269.199 64.6973 269.199C64.2096 269.199 63.8109 269.345 63.501 269.637C63.1911 269.924 63.0361 270.3 63.0361 270.765ZM63.1045 266.69C63.1045 267.142 63.2526 267.511 63.5488 267.798C63.8496 268.085 64.2324 268.229 64.6973 268.229C65.1667 268.229 65.5495 268.085 65.8457 267.798C66.1465 267.506 66.2969 267.132 66.2969 266.677C66.2969 266.239 66.1465 265.879 65.8457 265.597C65.5495 265.31 65.1667 265.166 64.6973 265.166C64.2279 265.166 63.8451 265.31 63.5488 265.597C63.2526 265.879 63.1045 266.244 63.1045 266.69ZM63.3301 268.693C62.888 268.475 62.5553 268.199 62.332 267.866C62.1087 267.529 61.9971 267.137 61.9971 266.69C61.9971 265.984 62.25 265.405 62.7559 264.954C63.2617 264.498 63.9089 264.271 64.6973 264.271C65.472 264.271 66.1169 264.498 66.6318 264.954C67.1468 265.41 67.4043 265.966 67.4043 266.622C67.4043 267.11 67.2949 267.522 67.0762 267.859C66.8574 268.197 66.5179 268.475 66.0576 268.693C66.5179 268.88 66.8711 269.156 67.1172 269.521C67.3633 269.881 67.4863 270.304 67.4863 270.792C67.4863 271.544 67.2266 272.157 66.707 272.631C66.1921 273.105 65.5221 273.342 64.6973 273.342C63.8724 273.342 63.2025 273.103 62.6875 272.624C62.1725 272.146 61.915 271.526 61.915 270.765C61.915 270.3 62.0381 269.887 62.2842 269.527C62.5303 269.163 62.8789 268.885 63.3301 268.693Z" fill="white"/>
<path d="M53.9102 296.116C53.6686 296.116 53.4886 296.068 53.3701 295.973C53.2562 295.872 53.1992 295.72 53.1992 295.515C53.1992 295.218 53.6367 294.662 54.5117 293.847L54.71 293.655C54.8421 293.528 55.0335 293.345 55.2842 293.108C56.861 291.623 57.6494 290.54 57.6494 289.861C57.6494 289.374 57.5104 288.979 57.2324 288.679C56.9544 288.373 56.5944 288.221 56.1523 288.221C55.8652 288.221 55.5895 288.28 55.3252 288.398C55.0654 288.517 54.8558 288.676 54.6963 288.877C54.6689 288.913 54.6257 288.975 54.5664 289.062C54.3978 289.367 54.2087 289.52 53.999 289.52C53.835 289.52 53.7188 289.469 53.6504 289.369C53.582 289.269 53.5479 289.077 53.5479 288.795C53.5479 288.631 53.5638 288.512 53.5957 288.439C53.6276 288.362 53.6868 288.28 53.7734 288.193C54.0651 287.911 54.4251 287.688 54.8535 287.523C55.2865 287.355 55.7285 287.271 56.1797 287.271C56.9362 287.271 57.5674 287.514 58.0732 288.002C58.5837 288.49 58.8389 289.089 58.8389 289.8C58.8389 290.693 58.0641 291.88 56.5146 293.361C56.1182 293.73 55.8151 294.02 55.6055 294.229L54.7646 295.036H57.8887C57.9069 294.84 57.9593 294.692 58.0459 294.592C58.137 294.487 58.2578 294.435 58.4082 294.435C58.5586 294.435 58.6771 294.485 58.7637 294.585C58.8503 294.685 58.8936 294.822 58.8936 294.995C58.8936 295.009 58.8913 295.034 58.8867 295.07C58.8822 295.102 58.8799 295.125 58.8799 295.139L58.8252 295.665C58.8115 295.806 58.7705 295.918 58.7021 296C58.6338 296.077 58.5449 296.116 58.4355 296.116H53.9102ZM66.2559 291.987C66.0098 292.302 65.7386 292.536 65.4424 292.691C65.1462 292.846 64.8203 292.924 64.4648 292.924C63.7448 292.924 63.1318 292.655 62.626 292.117C62.1247 291.575 61.874 290.91 61.874 290.121C61.874 289.292 62.1156 288.61 62.5986 288.077C63.0863 287.539 63.7083 287.271 64.4648 287.271C65.3581 287.271 66.0781 287.631 66.625 288.351C67.1719 289.066 67.4453 290.016 67.4453 291.201C67.4453 292.764 67.0443 294.013 66.2422 294.947C65.4447 295.877 64.376 296.342 63.0361 296.342C62.6123 296.342 62.3298 296.31 62.1885 296.246C62.0518 296.182 61.9834 296.064 61.9834 295.891C61.9834 295.599 62.2546 295.446 62.7969 295.433C63.1569 295.424 63.4417 295.398 63.6514 295.357C64.3714 295.225 64.9548 294.868 65.4014 294.284C65.8525 293.701 66.1374 292.935 66.2559 291.987ZM66.1123 290.155C66.1123 289.59 65.9619 289.132 65.6611 288.781C65.3649 288.426 64.9844 288.248 64.5195 288.248C64.0775 288.248 63.7197 288.414 63.4463 288.747C63.1729 289.08 63.0361 289.515 63.0361 290.053C63.0361 290.609 63.1797 291.062 63.4668 291.413C63.7539 291.759 64.123 291.933 64.5742 291.933C65.0163 291.933 65.3831 291.766 65.6748 291.434C65.9665 291.096 66.1123 290.67 66.1123 290.155Z" fill="white"/>
<path d="M57.3555 314.413C57.8887 314.559 58.3011 314.826 58.5928 315.213C58.889 315.596 59.0371 316.065 59.0371 316.621C59.0371 317.419 58.7546 318.073 58.1895 318.583C57.6243 319.089 56.8929 319.342 55.9951 319.342C55.3024 319.342 54.6849 319.21 54.1426 318.945C53.6048 318.676 53.3359 318.382 53.3359 318.063C53.3359 317.927 53.3838 317.815 53.4795 317.729C53.5798 317.637 53.7005 317.592 53.8418 317.592C53.9193 317.592 54.1995 317.708 54.6826 317.94C55.1702 318.173 55.6237 318.289 56.043 318.289C56.5853 318.289 57.0251 318.134 57.3623 317.824C57.7041 317.514 57.875 317.113 57.875 316.621C57.875 316.215 57.7565 315.874 57.5195 315.596C57.2871 315.313 56.9658 315.133 56.5557 315.056C56.4326 315.033 56.2708 315.015 56.0703 315.001C55.6875 314.978 55.4961 314.819 55.4961 314.522C55.4961 314.254 55.6829 314.096 56.0566 314.051C56.2025 314.037 56.3232 314.021 56.4189 314.003C56.7744 313.948 57.0615 313.802 57.2803 313.565C57.499 313.328 57.6084 313.041 57.6084 312.704C57.6084 312.271 57.474 311.918 57.2051 311.645C56.9362 311.371 56.5944 311.234 56.1797 311.234C55.7969 311.234 55.4027 311.353 54.9971 311.59C54.596 311.827 54.3454 311.945 54.2451 311.945C54.1175 311.945 54.0104 311.904 53.9238 311.822C53.8418 311.74 53.8008 311.638 53.8008 311.515C53.8008 311.237 54.056 310.961 54.5664 310.688C55.0768 310.41 55.6419 310.271 56.2617 310.271C56.9727 310.271 57.5628 310.487 58.0322 310.92C58.5062 311.348 58.7432 311.877 58.7432 312.506C58.7432 312.984 58.6292 313.379 58.4014 313.688C58.1781 313.998 57.8294 314.24 57.3555 314.413ZM64.6973 311.248C64.1732 311.248 63.7653 311.558 63.4736 312.178C63.182 312.798 63.0361 313.673 63.0361 314.803C63.0361 315.938 63.182 316.817 63.4736 317.441C63.7653 318.061 64.1732 318.371 64.6973 318.371C65.2259 318.371 65.6361 318.061 65.9277 317.441C66.2194 316.817 66.3652 315.938 66.3652 314.803C66.3652 313.673 66.2194 312.798 65.9277 312.178C65.6361 311.558 65.2259 311.248 64.6973 311.248ZM64.6973 319.342C63.8405 319.342 63.1592 318.938 62.6533 318.132C62.152 317.321 61.9014 316.211 61.9014 314.803C61.9014 313.399 62.152 312.294 62.6533 311.487C63.1592 310.676 63.8405 310.271 64.6973 310.271C65.554 310.271 66.2354 310.676 66.7412 311.487C67.2471 312.299 67.5 313.404 67.5 314.803C67.5 316.202 67.2471 317.309 66.7412 318.125C66.2354 318.936 65.554 319.342 64.6973 319.342Z" fill="white"/>
<path d="M57.3555 337.413C57.8887 337.559 58.3011 337.826 58.5928 338.213C58.889 338.596 59.0371 339.065 59.0371 339.621C59.0371 340.419 58.7546 341.073 58.1895 341.583C57.6243 342.089 56.8929 342.342 55.9951 342.342C55.3024 342.342 54.6849 342.21 54.1426 341.945C53.6048 341.676 53.3359 341.382 53.3359 341.063C53.3359 340.927 53.3838 340.815 53.4795 340.729C53.5798 340.637 53.7005 340.592 53.8418 340.592C53.9193 340.592 54.1995 340.708 54.6826 340.94C55.1702 341.173 55.6237 341.289 56.043 341.289C56.5853 341.289 57.0251 341.134 57.3623 340.824C57.7041 340.514 57.875 340.113 57.875 339.621C57.875 339.215 57.7565 338.874 57.5195 338.596C57.2871 338.313 56.9658 338.133 56.5557 338.056C56.4326 338.033 56.2708 338.015 56.0703 338.001C55.6875 337.978 55.4961 337.819 55.4961 337.522C55.4961 337.254 55.6829 337.096 56.0566 337.051C56.2025 337.037 56.3232 337.021 56.4189 337.003C56.7744 336.948 57.0615 336.802 57.2803 336.565C57.499 336.328 57.6084 336.041 57.6084 335.704C57.6084 335.271 57.474 334.918 57.2051 334.645C56.9362 334.371 56.5944 334.234 56.1797 334.234C55.7969 334.234 55.4027 334.353 54.9971 334.59C54.596 334.827 54.3454 334.945 54.2451 334.945C54.1175 334.945 54.0104 334.904 53.9238 334.822C53.8418 334.74 53.8008 334.638 53.8008 334.515C53.8008 334.237 54.056 333.961 54.5664 333.688C55.0768 333.41 55.6419 333.271 56.2617 333.271C56.9727 333.271 57.5628 333.487 58.0322 333.92C58.5062 334.348 58.7432 334.877 58.7432 335.506C58.7432 335.984 58.6292 336.379 58.4014 336.688C58.1781 336.998 57.8294 337.24 57.3555 337.413ZM63.0635 334.781C63.0042 334.79 62.9587 334.797 62.9268 334.802C62.8994 334.806 62.8743 334.809 62.8516 334.809C62.7103 334.809 62.5941 334.77 62.5029 334.692C62.4163 334.61 62.373 334.503 62.373 334.371C62.373 334.262 62.4118 334.166 62.4893 334.084C62.5667 334.002 62.6784 333.94 62.8242 333.899L64.8545 333.353C64.9046 333.339 64.9525 333.33 64.998 333.325C65.0482 333.316 65.0983 333.312 65.1484 333.312C65.235 333.312 65.3034 333.353 65.3535 333.435C65.4036 333.512 65.4287 333.619 65.4287 333.756V341.152H66.5225C66.9281 341.152 67.1855 341.187 67.2949 341.255C67.4043 341.319 67.459 341.442 67.459 341.624C67.459 341.788 67.4134 341.911 67.3223 341.993C67.2311 342.075 67.0944 342.116 66.9121 342.116H62.8242C62.6419 342.116 62.5052 342.075 62.4141 341.993C62.3229 341.911 62.2773 341.788 62.2773 341.624C62.2773 341.442 62.332 341.319 62.4414 341.255C62.5508 341.187 62.8083 341.152 63.2139 341.152H64.3486V334.474L63.0635 334.781Z" fill="white"/>
<path opacity="0.5" d="M92.5 21.1162L92 342.116" stroke="#ABB8FF"/>
<path opacity="0.5" d="M114.5 21.1162L114 342.116" stroke="#ABB8FF"/>
<path opacity="0.5" d="M137.5 21.1162L137 342.116" stroke="#ABB8FF"/>
<path opacity="0.5" d="M161 53.1162L161 342.116" stroke="#ABB8FF"/>
</svg>
