<svg width="439" height="496" viewBox="0 0 439 496" fill="none" xmlns="http://www.w3.org/2000/svg">
<rect x="0.5" y="0.616211" width="438" height="494" rx="9.5" fill="#ABB8FF" fill-opacity="0.1" stroke="#ABB8FF"/>
<path d="M54.751 37.7705C55.0518 37.6611 55.3298 37.5814 55.585 37.5312C55.8402 37.4766 56.084 37.4492 56.3164 37.4492C57.1139 37.4492 57.777 37.7272 58.3057 38.2832C58.8389 38.8346 59.1055 39.5205 59.1055 40.3408C59.1055 41.2113 58.8115 41.929 58.2236 42.4941C57.6357 43.0592 56.8838 43.3418 55.9678 43.3418C55.2021 43.3418 54.5596 43.2393 54.04 43.0342C53.5251 42.8245 53.2676 42.5716 53.2676 42.2754C53.2676 42.1569 53.3154 42.0521 53.4111 41.9609C53.5068 41.8652 53.6185 41.8174 53.7461 41.8174C53.7962 41.8174 54.0628 41.9062 54.5459 42.084C55.0335 42.2572 55.4847 42.3438 55.8994 42.3438C56.5101 42.3438 57.0046 42.1615 57.3828 41.7969C57.7656 41.4277 57.957 40.9538 57.957 40.375C57.957 39.8099 57.777 39.3405 57.417 38.9668C57.057 38.5885 56.6035 38.3994 56.0566 38.3994C55.6465 38.3994 55.2432 38.502 54.8467 38.707C54.4548 38.9121 54.2178 39.0146 54.1357 39.0146C53.999 39.0146 53.901 38.9645 53.8418 38.8643C53.7871 38.764 53.7598 38.5817 53.7598 38.3174V34.9131C53.7598 34.7627 53.8053 34.6556 53.8965 34.5918C53.9922 34.5234 54.1562 34.4893 54.3887 34.4893H57.8477C58.0664 34.4893 58.2305 34.5348 58.3398 34.626C58.4492 34.7126 58.5039 34.8447 58.5039 35.0225C58.5039 35.1911 58.4469 35.3232 58.333 35.4189C58.2191 35.5101 58.0573 35.5557 57.8477 35.5557H54.751V37.7705ZM65.2715 39.9648V35.3301L62.6807 39.9648H65.2715ZM64.5332 43.1162C64.3145 43.1162 64.1663 43.082 64.0889 43.0137C64.0114 42.9408 63.9727 42.8109 63.9727 42.624C63.9727 42.46 64.0114 42.3415 64.0889 42.2686C64.1709 42.1911 64.3008 42.1523 64.4785 42.1523H65.2715V41.0039H62.0791C61.9652 41.0039 61.8763 40.9674 61.8125 40.8945C61.7487 40.8216 61.7168 40.7168 61.7168 40.5801V40.1084C61.7168 39.9261 61.7829 39.7347 61.915 39.5342C61.9378 39.4977 61.9561 39.4681 61.9697 39.4453L64.8545 34.5508C64.9183 34.4368 64.9707 34.3639 65.0117 34.332C65.0527 34.3001 65.1074 34.2842 65.1758 34.2842C65.2031 34.2842 65.251 34.2887 65.3193 34.2979C65.3376 34.3024 65.3558 34.307 65.374 34.3115L66.0713 34.4209C66.1351 34.43 66.1852 34.4665 66.2217 34.5303C66.2627 34.5895 66.2832 34.6693 66.2832 34.7695V39.9648H66.6318C66.7321 39.9648 66.8096 39.9261 66.8643 39.8486C66.9189 39.7666 66.9805 39.7256 67.0488 39.7256C67.14 39.7256 67.2174 39.7598 67.2812 39.8281C67.3451 39.8965 67.377 39.9808 67.377 40.0811C67.377 40.1221 67.3747 40.1608 67.3701 40.1973C67.3656 40.2292 67.3564 40.2633 67.3428 40.2998L67.2881 40.5801C67.2562 40.7441 67.2083 40.8558 67.1445 40.915C67.0853 40.9743 66.9896 41.0039 66.8574 41.0039H66.2832V42.1523H66.5225C66.8141 42.1523 67.0146 42.1888 67.124 42.2617C67.2334 42.3301 67.2881 42.4508 67.2881 42.624C67.2881 42.7881 67.2425 42.9111 67.1514 42.9932C67.0602 43.0752 66.9235 43.1162 66.7412 43.1162H64.5332Z" fill="white"/>
<path d="M54.751 60.7705C55.0518 60.6611 55.3298 60.5814 55.585 60.5312C55.8402 60.4766 56.084 60.4492 56.3164 60.4492C57.1139 60.4492 57.777 60.7272 58.3057 61.2832C58.8389 61.8346 59.1055 62.5205 59.1055 63.3408C59.1055 64.2113 58.8115 64.929 58.2236 65.4941C57.6357 66.0592 56.8838 66.3418 55.9678 66.3418C55.2021 66.3418 54.5596 66.2393 54.04 66.0342C53.5251 65.8245 53.2676 65.5716 53.2676 65.2754C53.2676 65.1569 53.3154 65.0521 53.4111 64.9609C53.5068 64.8652 53.6185 64.8174 53.7461 64.8174C53.7962 64.8174 54.0628 64.9062 54.5459 65.084C55.0335 65.2572 55.4847 65.3438 55.8994 65.3438C56.5101 65.3438 57.0046 65.1615 57.3828 64.7969C57.7656 64.4277 57.957 63.9538 57.957 63.375C57.957 62.8099 57.777 62.3405 57.417 61.9668C57.057 61.5885 56.6035 61.3994 56.0566 61.3994C55.6465 61.3994 55.2432 61.502 54.8467 61.707C54.4548 61.9121 54.2178 62.0146 54.1357 62.0146C53.999 62.0146 53.901 61.9645 53.8418 61.8643C53.7871 61.764 53.7598 61.5817 53.7598 61.3174V57.9131C53.7598 57.7627 53.8053 57.6556 53.8965 57.5918C53.9922 57.5234 54.1562 57.4893 54.3887 57.4893H57.8477C58.0664 57.4893 58.2305 57.5348 58.3398 57.626C58.4492 57.7126 58.5039 57.8447 58.5039 58.0225C58.5039 58.1911 58.4469 58.3232 58.333 58.4189C58.2191 58.5101 58.0573 58.5557 57.8477 58.5557H54.751V60.7705ZM63.1592 60.7705C63.46 60.6611 63.738 60.5814 63.9932 60.5312C64.2484 60.4766 64.4922 60.4492 64.7246 60.4492C65.5221 60.4492 66.1852 60.7272 66.7139 61.2832C67.2471 61.8346 67.5137 62.5205 67.5137 63.3408C67.5137 64.2113 67.2197 64.929 66.6318 65.4941C66.0439 66.0592 65.292 66.3418 64.376 66.3418C63.6104 66.3418 62.9678 66.2393 62.4482 66.0342C61.9333 65.8245 61.6758 65.5716 61.6758 65.2754C61.6758 65.1569 61.7236 65.0521 61.8193 64.9609C61.915 64.8652 62.0267 64.8174 62.1543 64.8174C62.2044 64.8174 62.471 64.9062 62.9541 65.084C63.4417 65.2572 63.8929 65.3438 64.3076 65.3438C64.9183 65.3438 65.4128 65.1615 65.791 64.7969C66.1738 64.4277 66.3652 63.9538 66.3652 63.375C66.3652 62.8099 66.1852 62.3405 65.8252 61.9668C65.4652 61.5885 65.0117 61.3994 64.4648 61.3994C64.0547 61.3994 63.6514 61.502 63.2549 61.707C62.863 61.9121 62.626 62.0146 62.5439 62.0146C62.4072 62.0146 62.3092 61.9645 62.25 61.8643C62.1953 61.764 62.168 61.5817 62.168 61.3174V57.9131C62.168 57.7627 62.2135 57.6556 62.3047 57.5918C62.4004 57.5234 62.5645 57.4893 62.7969 57.4893H66.2559C66.4746 57.4893 66.6387 57.5348 66.748 57.626C66.8574 57.7126 66.9121 57.8447 66.9121 58.0225C66.9121 58.1911 66.8551 58.3232 66.7412 58.4189C66.6273 58.5101 66.4655 58.5557 66.2559 58.5557H63.1592V60.7705Z" fill="white"/>
<path d="M54.751 83.7705C55.0518 83.6611 55.3298 83.5814 55.585 83.5312C55.8402 83.4766 56.084 83.4492 56.3164 83.4492C57.1139 83.4492 57.777 83.7272 58.3057 84.2832C58.8389 84.8346 59.1055 85.5205 59.1055 86.3408C59.1055 87.2113 58.8115 87.929 58.2236 88.4941C57.6357 89.0592 56.8838 89.3418 55.9678 89.3418C55.2021 89.3418 54.5596 89.2393 54.04 89.0342C53.5251 88.8245 53.2676 88.5716 53.2676 88.2754C53.2676 88.1569 53.3154 88.0521 53.4111 87.9609C53.5068 87.8652 53.6185 87.8174 53.7461 87.8174C53.7962 87.8174 54.0628 87.9062 54.5459 88.084C55.0335 88.2572 55.4847 88.3438 55.8994 88.3438C56.5101 88.3438 57.0046 88.1615 57.3828 87.7969C57.7656 87.4277 57.957 86.9538 57.957 86.375C57.957 85.8099 57.777 85.3405 57.417 84.9668C57.057 84.5885 56.6035 84.3994 56.0566 84.3994C55.6465 84.3994 55.2432 84.502 54.8467 84.707C54.4548 84.9121 54.2178 85.0146 54.1357 85.0146C53.999 85.0146 53.901 84.9645 53.8418 84.8643C53.7871 84.764 53.7598 84.5817 53.7598 84.3174V80.9131C53.7598 80.7627 53.8053 80.6556 53.8965 80.5918C53.9922 80.5234 54.1562 80.4893 54.3887 80.4893H57.8477C58.0664 80.4893 58.2305 80.5348 58.3398 80.626C58.4492 80.7126 58.5039 80.8447 58.5039 81.0225C58.5039 81.1911 58.4469 81.3232 58.333 81.4189C58.2191 81.5101 58.0573 81.5557 57.8477 81.5557H54.751V83.7705ZM63.2275 86.457C63.2275 87.0176 63.3757 87.4756 63.6719 87.8311C63.9681 88.182 64.3486 88.3574 64.8135 88.3574C65.251 88.3574 65.6087 88.1911 65.8867 87.8584C66.1693 87.5257 66.3105 87.0905 66.3105 86.5527C66.3105 85.9967 66.1647 85.5456 65.873 85.1992C65.5859 84.8529 65.2145 84.6797 64.7588 84.6797C64.3167 84.6797 63.9499 84.846 63.6582 85.1787C63.3711 85.5114 63.2275 85.9375 63.2275 86.457ZM63.0771 84.6387C63.3232 84.3197 63.5967 84.0804 63.8975 83.9209C64.1982 83.7614 64.5264 83.6816 64.8818 83.6816C65.6019 83.6816 66.2126 83.9528 66.7139 84.4951C67.2197 85.0374 67.4727 85.7051 67.4727 86.498C67.4727 87.3275 67.2288 88.0088 66.7412 88.542C66.2536 89.0752 65.6292 89.3418 64.8682 89.3418C63.9704 89.3418 63.2503 88.9863 62.708 88.2754C62.1702 87.5599 61.9014 86.6074 61.9014 85.418C61.9014 83.8685 62.3001 82.6243 63.0977 81.6855C63.8952 80.7422 64.9479 80.2705 66.2559 80.2705C66.6979 80.2705 66.9896 80.3024 67.1309 80.3662C67.2721 80.43 67.3428 80.5508 67.3428 80.7285C67.3428 81.0202 67.0739 81.1706 66.5361 81.1797C66.1807 81.1842 65.8958 81.207 65.6816 81.248C64.9616 81.3848 64.376 81.7471 63.9248 82.335C63.4782 82.9183 63.1956 83.6862 63.0771 84.6387Z" fill="white"/>
<path d="M54.751 106.771C55.0518 106.661 55.3298 106.581 55.585 106.531C55.8402 106.477 56.084 106.449 56.3164 106.449C57.1139 106.449 57.777 106.727 58.3057 107.283C58.8389 107.835 59.1055 108.521 59.1055 109.341C59.1055 110.211 58.8115 110.929 58.2236 111.494C57.6357 112.059 56.8838 112.342 55.9678 112.342C55.2021 112.342 54.5596 112.239 54.04 112.034C53.5251 111.825 53.2676 111.572 53.2676 111.275C53.2676 111.157 53.3154 111.052 53.4111 110.961C53.5068 110.865 53.6185 110.817 53.7461 110.817C53.7962 110.817 54.0628 110.906 54.5459 111.084C55.0335 111.257 55.4847 111.344 55.8994 111.344C56.5101 111.344 57.0046 111.161 57.3828 110.797C57.7656 110.428 57.957 109.954 57.957 109.375C57.957 108.81 57.777 108.34 57.417 107.967C57.057 107.589 56.6035 107.399 56.0566 107.399C55.6465 107.399 55.2432 107.502 54.8467 107.707C54.4548 107.912 54.2178 108.015 54.1357 108.015C53.999 108.015 53.901 107.965 53.8418 107.864C53.7871 107.764 53.7598 107.582 53.7598 107.317V103.913C53.7598 103.763 53.8053 103.656 53.8965 103.592C53.9922 103.523 54.1562 103.489 54.3887 103.489H57.8477C58.0664 103.489 58.2305 103.535 58.3398 103.626C58.4492 103.713 58.5039 103.845 58.5039 104.022C58.5039 104.191 58.4469 104.323 58.333 104.419C58.2191 104.51 58.0573 104.556 57.8477 104.556H54.751V106.771ZM64.7998 111.979C64.7633 112.089 64.7292 112.16 64.6973 112.191C64.6654 112.223 64.6061 112.239 64.5195 112.239H64.4033H63.918C63.8268 112.239 63.7539 112.221 63.6992 112.185C63.6491 112.148 63.624 112.098 63.624 112.034C63.624 111.998 63.6263 111.964 63.6309 111.932C63.64 111.895 63.6514 111.854 63.665 111.809L66.3516 104.515H62.8789C62.8652 104.729 62.8174 104.888 62.7354 104.993C62.6533 105.093 62.5326 105.144 62.373 105.144C62.2181 105.144 62.1019 105.105 62.0244 105.027C61.9515 104.95 61.915 104.829 61.915 104.665C61.915 104.619 61.915 104.585 61.915 104.562C61.9196 104.54 61.9242 104.519 61.9287 104.501L61.9971 103.886C62.0107 103.758 62.0563 103.66 62.1338 103.592C62.2158 103.523 62.3252 103.489 62.4619 103.489H66.9805C67.1126 103.489 67.2083 103.519 67.2676 103.578C67.3314 103.633 67.3633 103.722 67.3633 103.845V104.077C67.3633 104.132 67.3519 104.205 67.3291 104.296C67.3063 104.382 67.2699 104.501 67.2197 104.651L64.7998 111.979Z" fill="white"/>
<path d="M54.751 129.771C55.0518 129.661 55.3298 129.581 55.585 129.531C55.8402 129.477 56.084 129.449 56.3164 129.449C57.1139 129.449 57.777 129.727 58.3057 130.283C58.8389 130.835 59.1055 131.521 59.1055 132.341C59.1055 133.211 58.8115 133.929 58.2236 134.494C57.6357 135.059 56.8838 135.342 55.9678 135.342C55.2021 135.342 54.5596 135.239 54.04 135.034C53.5251 134.825 53.2676 134.572 53.2676 134.275C53.2676 134.157 53.3154 134.052 53.4111 133.961C53.5068 133.865 53.6185 133.817 53.7461 133.817C53.7962 133.817 54.0628 133.906 54.5459 134.084C55.0335 134.257 55.4847 134.344 55.8994 134.344C56.5101 134.344 57.0046 134.161 57.3828 133.797C57.7656 133.428 57.957 132.954 57.957 132.375C57.957 131.81 57.777 131.34 57.417 130.967C57.057 130.589 56.6035 130.399 56.0566 130.399C55.6465 130.399 55.2432 130.502 54.8467 130.707C54.4548 130.912 54.2178 131.015 54.1357 131.015C53.999 131.015 53.901 130.965 53.8418 130.864C53.7871 130.764 53.7598 130.582 53.7598 130.317V126.913C53.7598 126.763 53.8053 126.656 53.8965 126.592C53.9922 126.523 54.1562 126.489 54.3887 126.489H57.8477C58.0664 126.489 58.2305 126.535 58.3398 126.626C58.4492 126.713 58.5039 126.845 58.5039 127.022C58.5039 127.191 58.4469 127.323 58.333 127.419C58.2191 127.51 58.0573 127.556 57.8477 127.556H54.751V129.771ZM63.0361 132.765C63.0361 133.248 63.1865 133.64 63.4873 133.94C63.7926 134.241 64.196 134.392 64.6973 134.392C65.2031 134.392 65.6064 134.246 65.9072 133.954C66.2126 133.662 66.3652 133.275 66.3652 132.792C66.3652 132.318 66.2103 131.935 65.9004 131.644C65.5905 131.347 65.1895 131.199 64.6973 131.199C64.2096 131.199 63.8109 131.345 63.501 131.637C63.1911 131.924 63.0361 132.3 63.0361 132.765ZM63.1045 128.69C63.1045 129.142 63.2526 129.511 63.5488 129.798C63.8496 130.085 64.2324 130.229 64.6973 130.229C65.1667 130.229 65.5495 130.085 65.8457 129.798C66.1465 129.506 66.2969 129.132 66.2969 128.677C66.2969 128.239 66.1465 127.879 65.8457 127.597C65.5495 127.31 65.1667 127.166 64.6973 127.166C64.2279 127.166 63.8451 127.31 63.5488 127.597C63.2526 127.879 63.1045 128.244 63.1045 128.69ZM63.3301 130.693C62.888 130.475 62.5553 130.199 62.332 129.866C62.1087 129.529 61.9971 129.137 61.9971 128.69C61.9971 127.984 62.25 127.405 62.7559 126.954C63.2617 126.498 63.9089 126.271 64.6973 126.271C65.472 126.271 66.1169 126.498 66.6318 126.954C67.1468 127.41 67.4043 127.966 67.4043 128.622C67.4043 129.11 67.2949 129.522 67.0762 129.859C66.8574 130.197 66.5179 130.475 66.0576 130.693C66.5179 130.88 66.8711 131.156 67.1172 131.521C67.3633 131.881 67.4863 132.304 67.4863 132.792C67.4863 133.544 67.2266 134.157 66.707 134.631C66.1921 135.105 65.5221 135.342 64.6973 135.342C63.8724 135.342 63.2025 135.103 62.6875 134.624C62.1725 134.146 61.915 133.526 61.915 132.765C61.915 132.3 62.0381 131.887 62.2842 131.527C62.5303 131.163 62.8789 130.885 63.3301 130.693Z" fill="white"/>
<path d="M54.751 152.771C55.0518 152.661 55.3298 152.581 55.585 152.531C55.8402 152.477 56.084 152.449 56.3164 152.449C57.1139 152.449 57.777 152.727 58.3057 153.283C58.8389 153.835 59.1055 154.521 59.1055 155.341C59.1055 156.211 58.8115 156.929 58.2236 157.494C57.6357 158.059 56.8838 158.342 55.9678 158.342C55.2021 158.342 54.5596 158.239 54.04 158.034C53.5251 157.825 53.2676 157.572 53.2676 157.275C53.2676 157.157 53.3154 157.052 53.4111 156.961C53.5068 156.865 53.6185 156.817 53.7461 156.817C53.7962 156.817 54.0628 156.906 54.5459 157.084C55.0335 157.257 55.4847 157.344 55.8994 157.344C56.5101 157.344 57.0046 157.161 57.3828 156.797C57.7656 156.428 57.957 155.954 57.957 155.375C57.957 154.81 57.777 154.34 57.417 153.967C57.057 153.589 56.6035 153.399 56.0566 153.399C55.6465 153.399 55.2432 153.502 54.8467 153.707C54.4548 153.912 54.2178 154.015 54.1357 154.015C53.999 154.015 53.901 153.965 53.8418 153.864C53.7871 153.764 53.7598 153.582 53.7598 153.317V149.913C53.7598 149.763 53.8053 149.656 53.8965 149.592C53.9922 149.523 54.1562 149.489 54.3887 149.489H57.8477C58.0664 149.489 58.2305 149.535 58.3398 149.626C58.4492 149.713 58.5039 149.845 58.5039 150.022C58.5039 150.191 58.4469 150.323 58.333 150.419C58.2191 150.51 58.0573 150.556 57.8477 150.556H54.751V152.771ZM66.2559 153.987C66.0098 154.302 65.7386 154.536 65.4424 154.691C65.1462 154.846 64.8203 154.924 64.4648 154.924C63.7448 154.924 63.1318 154.655 62.626 154.117C62.1247 153.575 61.874 152.91 61.874 152.121C61.874 151.292 62.1156 150.61 62.5986 150.077C63.0863 149.539 63.7083 149.271 64.4648 149.271C65.3581 149.271 66.0781 149.631 66.625 150.351C67.1719 151.066 67.4453 152.016 67.4453 153.201C67.4453 154.764 67.0443 156.013 66.2422 156.947C65.4447 157.877 64.376 158.342 63.0361 158.342C62.6123 158.342 62.3298 158.31 62.1885 158.246C62.0518 158.182 61.9834 158.064 61.9834 157.891C61.9834 157.599 62.2546 157.446 62.7969 157.433C63.1569 157.424 63.4417 157.398 63.6514 157.357C64.3714 157.225 64.9548 156.868 65.4014 156.284C65.8525 155.701 66.1374 154.935 66.2559 153.987ZM66.1123 152.155C66.1123 151.59 65.9619 151.132 65.6611 150.781C65.3649 150.426 64.9844 150.248 64.5195 150.248C64.0775 150.248 63.7197 150.414 63.4463 150.747C63.1729 151.08 63.0361 151.515 63.0361 152.053C63.0361 152.609 63.1797 153.062 63.4668 153.413C63.7539 153.759 64.123 153.933 64.5742 153.933C65.0163 153.933 65.3831 153.766 65.6748 153.434C65.9665 153.096 66.1123 152.67 66.1123 152.155Z" fill="white"/>
<path d="M54.8193 178.457C54.8193 179.018 54.9674 179.476 55.2637 179.831C55.5599 180.182 55.9404 180.357 56.4053 180.357C56.8428 180.357 57.2005 180.191 57.4785 179.858C57.7611 179.526 57.9023 179.09 57.9023 178.553C57.9023 177.997 57.7565 177.546 57.4648 177.199C57.1777 176.853 56.8063 176.68 56.3506 176.68C55.9085 176.68 55.5417 176.846 55.25 177.179C54.9629 177.511 54.8193 177.938 54.8193 178.457ZM54.6689 176.639C54.915 176.32 55.1885 176.08 55.4893 175.921C55.79 175.761 56.1182 175.682 56.4736 175.682C57.1937 175.682 57.8044 175.953 58.3057 176.495C58.8115 177.037 59.0645 177.705 59.0645 178.498C59.0645 179.327 58.8206 180.009 58.333 180.542C57.8454 181.075 57.221 181.342 56.46 181.342C55.5622 181.342 54.8421 180.986 54.2998 180.275C53.762 179.56 53.4932 178.607 53.4932 177.418C53.4932 175.868 53.8919 174.624 54.6895 173.686C55.487 172.742 56.5397 172.271 57.8477 172.271C58.2897 172.271 58.5814 172.302 58.7227 172.366C58.8639 172.43 58.9346 172.551 58.9346 172.729C58.9346 173.02 58.6657 173.171 58.1279 173.18C57.7725 173.184 57.4876 173.207 57.2734 173.248C56.5534 173.385 55.9678 173.747 55.5166 174.335C55.07 174.918 54.7874 175.686 54.6689 176.639ZM64.6973 173.248C64.1732 173.248 63.7653 173.558 63.4736 174.178C63.182 174.798 63.0361 175.673 63.0361 176.803C63.0361 177.938 63.182 178.817 63.4736 179.441C63.7653 180.061 64.1732 180.371 64.6973 180.371C65.2259 180.371 65.6361 180.061 65.9277 179.441C66.2194 178.817 66.3652 177.938 66.3652 176.803C66.3652 175.673 66.2194 174.798 65.9277 174.178C65.6361 173.558 65.2259 173.248 64.6973 173.248ZM64.6973 181.342C63.8405 181.342 63.1592 180.938 62.6533 180.132C62.152 179.321 61.9014 178.211 61.9014 176.803C61.9014 175.399 62.152 174.294 62.6533 173.487C63.1592 172.676 63.8405 172.271 64.6973 172.271C65.554 172.271 66.2354 172.676 66.7412 173.487C67.2471 174.299 67.5 175.404 67.5 176.803C67.5 178.202 67.2471 179.309 66.7412 180.125C66.2354 180.936 65.554 181.342 64.6973 181.342Z" fill="white"/>
<path d="M54.8193 201.457C54.8193 202.018 54.9674 202.476 55.2637 202.831C55.5599 203.182 55.9404 203.357 56.4053 203.357C56.8428 203.357 57.2005 203.191 57.4785 202.858C57.7611 202.526 57.9023 202.09 57.9023 201.553C57.9023 200.997 57.7565 200.546 57.4648 200.199C57.1777 199.853 56.8063 199.68 56.3506 199.68C55.9085 199.68 55.5417 199.846 55.25 200.179C54.9629 200.511 54.8193 200.938 54.8193 201.457ZM54.6689 199.639C54.915 199.32 55.1885 199.08 55.4893 198.921C55.79 198.761 56.1182 198.682 56.4736 198.682C57.1937 198.682 57.8044 198.953 58.3057 199.495C58.8115 200.037 59.0645 200.705 59.0645 201.498C59.0645 202.327 58.8206 203.009 58.333 203.542C57.8454 204.075 57.221 204.342 56.46 204.342C55.5622 204.342 54.8421 203.986 54.2998 203.275C53.762 202.56 53.4932 201.607 53.4932 200.418C53.4932 198.868 53.8919 197.624 54.6895 196.686C55.487 195.742 56.5397 195.271 57.8477 195.271C58.2897 195.271 58.5814 195.302 58.7227 195.366C58.8639 195.43 58.9346 195.551 58.9346 195.729C58.9346 196.02 58.6657 196.171 58.1279 196.18C57.7725 196.184 57.4876 196.207 57.2734 196.248C56.5534 196.385 55.9678 196.747 55.5166 197.335C55.07 197.918 54.7874 198.686 54.6689 199.639ZM63.0635 196.781C63.0042 196.79 62.9587 196.797 62.9268 196.802C62.8994 196.806 62.8743 196.809 62.8516 196.809C62.7103 196.809 62.5941 196.77 62.5029 196.692C62.4163 196.61 62.373 196.503 62.373 196.371C62.373 196.262 62.4118 196.166 62.4893 196.084C62.5667 196.002 62.6784 195.94 62.8242 195.899L64.8545 195.353C64.9046 195.339 64.9525 195.33 64.998 195.325C65.0482 195.316 65.0983 195.312 65.1484 195.312C65.235 195.312 65.3034 195.353 65.3535 195.435C65.4036 195.512 65.4287 195.619 65.4287 195.756V203.152H66.5225C66.9281 203.152 67.1855 203.187 67.2949 203.255C67.4043 203.319 67.459 203.442 67.459 203.624C67.459 203.788 67.4134 203.911 67.3223 203.993C67.2311 204.075 67.0944 204.116 66.9121 204.116H62.8242C62.6419 204.116 62.5052 204.075 62.4141 203.993C62.3229 203.911 62.2773 203.788 62.2773 203.624C62.2773 203.442 62.332 203.319 62.4414 203.255C62.5508 203.187 62.8083 203.152 63.2139 203.152H64.3486V196.474L63.0635 196.781Z" fill="white"/>
<path d="M54.8193 224.457C54.8193 225.018 54.9674 225.476 55.2637 225.831C55.5599 226.182 55.9404 226.357 56.4053 226.357C56.8428 226.357 57.2005 226.191 57.4785 225.858C57.7611 225.526 57.9023 225.09 57.9023 224.553C57.9023 223.997 57.7565 223.546 57.4648 223.199C57.1777 222.853 56.8063 222.68 56.3506 222.68C55.9085 222.68 55.5417 222.846 55.25 223.179C54.9629 223.511 54.8193 223.938 54.8193 224.457ZM54.6689 222.639C54.915 222.32 55.1885 222.08 55.4893 221.921C55.79 221.761 56.1182 221.682 56.4736 221.682C57.1937 221.682 57.8044 221.953 58.3057 222.495C58.8115 223.037 59.0645 223.705 59.0645 224.498C59.0645 225.327 58.8206 226.009 58.333 226.542C57.8454 227.075 57.221 227.342 56.46 227.342C55.5622 227.342 54.8421 226.986 54.2998 226.275C53.762 225.56 53.4932 224.607 53.4932 223.418C53.4932 221.868 53.8919 220.624 54.6895 219.686C55.487 218.742 56.5397 218.271 57.8477 218.271C58.2897 218.271 58.5814 218.302 58.7227 218.366C58.8639 218.43 58.9346 218.551 58.9346 218.729C58.9346 219.02 58.6657 219.171 58.1279 219.18C57.7725 219.184 57.4876 219.207 57.2734 219.248C56.5534 219.385 55.9678 219.747 55.5166 220.335C55.07 220.918 54.7874 221.686 54.6689 222.639ZM62.3184 227.116C62.0768 227.116 61.8968 227.068 61.7783 226.973C61.6644 226.872 61.6074 226.72 61.6074 226.515C61.6074 226.218 62.0449 225.662 62.9199 224.847L63.1182 224.655C63.2503 224.528 63.4417 224.345 63.6924 224.108C65.2692 222.623 66.0576 221.54 66.0576 220.861C66.0576 220.374 65.9186 219.979 65.6406 219.679C65.3626 219.373 65.0026 219.221 64.5605 219.221C64.2734 219.221 63.9977 219.28 63.7334 219.398C63.4736 219.517 63.264 219.676 63.1045 219.877C63.0771 219.913 63.0339 219.975 62.9746 220.062C62.806 220.367 62.6169 220.52 62.4072 220.52C62.2432 220.52 62.127 220.469 62.0586 220.369C61.9902 220.269 61.9561 220.077 61.9561 219.795C61.9561 219.631 61.972 219.512 62.0039 219.439C62.0358 219.362 62.0951 219.28 62.1816 219.193C62.4733 218.911 62.8333 218.688 63.2617 218.523C63.6947 218.355 64.1367 218.271 64.5879 218.271C65.3444 218.271 65.9756 218.514 66.4814 219.002C66.9919 219.49 67.2471 220.089 67.2471 220.8C67.2471 221.693 66.4723 222.88 64.9229 224.361C64.5264 224.73 64.2233 225.02 64.0137 225.229L63.1729 226.036H66.2969C66.3151 225.84 66.3675 225.692 66.4541 225.592C66.5452 225.487 66.666 225.435 66.8164 225.435C66.9668 225.435 67.0853 225.485 67.1719 225.585C67.2585 225.685 67.3018 225.822 67.3018 225.995C67.3018 226.009 67.2995 226.034 67.2949 226.07C67.2904 226.102 67.2881 226.125 67.2881 226.139L67.2334 226.665C67.2197 226.806 67.1787 226.918 67.1104 227C67.042 227.077 66.9531 227.116 66.8438 227.116H62.3184Z" fill="white"/>
<path d="M54.8193 247.457C54.8193 248.018 54.9674 248.476 55.2637 248.831C55.5599 249.182 55.9404 249.357 56.4053 249.357C56.8428 249.357 57.2005 249.191 57.4785 248.858C57.7611 248.526 57.9023 248.09 57.9023 247.553C57.9023 246.997 57.7565 246.546 57.4648 246.199C57.1777 245.853 56.8063 245.68 56.3506 245.68C55.9085 245.68 55.5417 245.846 55.25 246.179C54.9629 246.511 54.8193 246.938 54.8193 247.457ZM54.6689 245.639C54.915 245.32 55.1885 245.08 55.4893 244.921C55.79 244.761 56.1182 244.682 56.4736 244.682C57.1937 244.682 57.8044 244.953 58.3057 245.495C58.8115 246.037 59.0645 246.705 59.0645 247.498C59.0645 248.327 58.8206 249.009 58.333 249.542C57.8454 250.075 57.221 250.342 56.46 250.342C55.5622 250.342 54.8421 249.986 54.2998 249.275C53.762 248.56 53.4932 247.607 53.4932 246.418C53.4932 244.868 53.8919 243.624 54.6895 242.686C55.487 241.742 56.5397 241.271 57.8477 241.271C58.2897 241.271 58.5814 241.302 58.7227 241.366C58.8639 241.43 58.9346 241.551 58.9346 241.729C58.9346 242.02 58.6657 242.171 58.1279 242.18C57.7725 242.184 57.4876 242.207 57.2734 242.248C56.5534 242.385 55.9678 242.747 55.5166 243.335C55.07 243.918 54.7874 244.686 54.6689 245.639ZM65.7637 245.413C66.2969 245.559 66.7093 245.826 67.001 246.213C67.2972 246.596 67.4453 247.065 67.4453 247.621C67.4453 248.419 67.1628 249.073 66.5977 249.583C66.0326 250.089 65.3011 250.342 64.4033 250.342C63.7106 250.342 63.0931 250.21 62.5508 249.945C62.013 249.676 61.7441 249.382 61.7441 249.063C61.7441 248.927 61.792 248.815 61.8877 248.729C61.988 248.637 62.1087 248.592 62.25 248.592C62.3275 248.592 62.6077 248.708 63.0908 248.94C63.5785 249.173 64.0319 249.289 64.4512 249.289C64.9935 249.289 65.4333 249.134 65.7705 248.824C66.1123 248.514 66.2832 248.113 66.2832 247.621C66.2832 247.215 66.1647 246.874 65.9277 246.596C65.6953 246.313 65.374 246.133 64.9639 246.056C64.8408 246.033 64.679 246.015 64.4785 246.001C64.0957 245.978 63.9043 245.819 63.9043 245.522C63.9043 245.254 64.0911 245.096 64.4648 245.051C64.6107 245.037 64.7314 245.021 64.8271 245.003C65.1826 244.948 65.4697 244.802 65.6885 244.565C65.9072 244.328 66.0166 244.041 66.0166 243.704C66.0166 243.271 65.8822 242.918 65.6133 242.645C65.3444 242.371 65.0026 242.234 64.5879 242.234C64.2051 242.234 63.8109 242.353 63.4053 242.59C63.0042 242.827 62.7536 242.945 62.6533 242.945C62.5257 242.945 62.4186 242.904 62.332 242.822C62.25 242.74 62.209 242.638 62.209 242.515C62.209 242.237 62.4642 241.961 62.9746 241.688C63.485 241.41 64.0501 241.271 64.6699 241.271C65.3809 241.271 65.971 241.487 66.4404 241.92C66.9144 242.348 67.1514 242.877 67.1514 243.506C67.1514 243.984 67.0374 244.379 66.8096 244.688C66.5863 244.998 66.2376 245.24 65.7637 245.413Z" fill="white"/>
<path d="M54.8193 270.457C54.8193 271.018 54.9674 271.476 55.2637 271.831C55.5599 272.182 55.9404 272.357 56.4053 272.357C56.8428 272.357 57.2005 272.191 57.4785 271.858C57.7611 271.526 57.9023 271.09 57.9023 270.553C57.9023 269.997 57.7565 269.546 57.4648 269.199C57.1777 268.853 56.8063 268.68 56.3506 268.68C55.9085 268.68 55.5417 268.846 55.25 269.179C54.9629 269.511 54.8193 269.938 54.8193 270.457ZM54.6689 268.639C54.915 268.32 55.1885 268.08 55.4893 267.921C55.79 267.761 56.1182 267.682 56.4736 267.682C57.1937 267.682 57.8044 267.953 58.3057 268.495C58.8115 269.037 59.0645 269.705 59.0645 270.498C59.0645 271.327 58.8206 272.009 58.333 272.542C57.8454 273.075 57.221 273.342 56.46 273.342C55.5622 273.342 54.8421 272.986 54.2998 272.275C53.762 271.56 53.4932 270.607 53.4932 269.418C53.4932 267.868 53.8919 266.624 54.6895 265.686C55.487 264.742 56.5397 264.271 57.8477 264.271C58.2897 264.271 58.5814 264.302 58.7227 264.366C58.8639 264.43 58.9346 264.551 58.9346 264.729C58.9346 265.02 58.6657 265.171 58.1279 265.18C57.7725 265.184 57.4876 265.207 57.2734 265.248C56.5534 265.385 55.9678 265.747 55.5166 266.335C55.07 266.918 54.7874 267.686 54.6689 268.639ZM65.2715 269.965V265.33L62.6807 269.965H65.2715ZM64.5332 273.116C64.3145 273.116 64.1663 273.082 64.0889 273.014C64.0114 272.941 63.9727 272.811 63.9727 272.624C63.9727 272.46 64.0114 272.341 64.0889 272.269C64.1709 272.191 64.3008 272.152 64.4785 272.152H65.2715V271.004H62.0791C61.9652 271.004 61.8763 270.967 61.8125 270.895C61.7487 270.822 61.7168 270.717 61.7168 270.58V270.108C61.7168 269.926 61.7829 269.735 61.915 269.534C61.9378 269.498 61.9561 269.468 61.9697 269.445L64.8545 264.551C64.9183 264.437 64.9707 264.364 65.0117 264.332C65.0527 264.3 65.1074 264.284 65.1758 264.284C65.2031 264.284 65.251 264.289 65.3193 264.298C65.3376 264.302 65.3558 264.307 65.374 264.312L66.0713 264.421C66.1351 264.43 66.1852 264.466 66.2217 264.53C66.2627 264.59 66.2832 264.669 66.2832 264.77V269.965H66.6318C66.7321 269.965 66.8096 269.926 66.8643 269.849C66.9189 269.767 66.9805 269.726 67.0488 269.726C67.14 269.726 67.2174 269.76 67.2812 269.828C67.3451 269.896 67.377 269.981 67.377 270.081C67.377 270.122 67.3747 270.161 67.3701 270.197C67.3656 270.229 67.3564 270.263 67.3428 270.3L67.2881 270.58C67.2562 270.744 67.2083 270.856 67.1445 270.915C67.0853 270.974 66.9896 271.004 66.8574 271.004H66.2832V272.152H66.5225C66.8141 272.152 67.0146 272.189 67.124 272.262C67.2334 272.33 67.2881 272.451 67.2881 272.624C67.2881 272.788 67.2425 272.911 67.1514 272.993C67.0602 273.075 66.9235 273.116 66.7412 273.116H64.5332Z" fill="white"/>
<path d="M54.8193 293.457C54.8193 294.018 54.9674 294.476 55.2637 294.831C55.5599 295.182 55.9404 295.357 56.4053 295.357C56.8428 295.357 57.2005 295.191 57.4785 294.858C57.7611 294.526 57.9023 294.09 57.9023 293.553C57.9023 292.997 57.7565 292.546 57.4648 292.199C57.1777 291.853 56.8063 291.68 56.3506 291.68C55.9085 291.68 55.5417 291.846 55.25 292.179C54.9629 292.511 54.8193 292.938 54.8193 293.457ZM54.6689 291.639C54.915 291.32 55.1885 291.08 55.4893 290.921C55.79 290.761 56.1182 290.682 56.4736 290.682C57.1937 290.682 57.8044 290.953 58.3057 291.495C58.8115 292.037 59.0645 292.705 59.0645 293.498C59.0645 294.327 58.8206 295.009 58.333 295.542C57.8454 296.075 57.221 296.342 56.46 296.342C55.5622 296.342 54.8421 295.986 54.2998 295.275C53.762 294.56 53.4932 293.607 53.4932 292.418C53.4932 290.868 53.8919 289.624 54.6895 288.686C55.487 287.742 56.5397 287.271 57.8477 287.271C58.2897 287.271 58.5814 287.302 58.7227 287.366C58.8639 287.43 58.9346 287.551 58.9346 287.729C58.9346 288.02 58.6657 288.171 58.1279 288.18C57.7725 288.184 57.4876 288.207 57.2734 288.248C56.5534 288.385 55.9678 288.747 55.5166 289.335C55.07 289.918 54.7874 290.686 54.6689 291.639ZM63.1592 290.771C63.46 290.661 63.738 290.581 63.9932 290.531C64.2484 290.477 64.4922 290.449 64.7246 290.449C65.5221 290.449 66.1852 290.727 66.7139 291.283C67.2471 291.835 67.5137 292.521 67.5137 293.341C67.5137 294.211 67.2197 294.929 66.6318 295.494C66.0439 296.059 65.292 296.342 64.376 296.342C63.6104 296.342 62.9678 296.239 62.4482 296.034C61.9333 295.825 61.6758 295.572 61.6758 295.275C61.6758 295.157 61.7236 295.052 61.8193 294.961C61.915 294.865 62.0267 294.817 62.1543 294.817C62.2044 294.817 62.471 294.906 62.9541 295.084C63.4417 295.257 63.8929 295.344 64.3076 295.344C64.9183 295.344 65.4128 295.161 65.791 294.797C66.1738 294.428 66.3652 293.954 66.3652 293.375C66.3652 292.81 66.1852 292.34 65.8252 291.967C65.4652 291.589 65.0117 291.399 64.4648 291.399C64.0547 291.399 63.6514 291.502 63.2549 291.707C62.863 291.912 62.626 292.015 62.5439 292.015C62.4072 292.015 62.3092 291.965 62.25 291.864C62.1953 291.764 62.168 291.582 62.168 291.317V287.913C62.168 287.763 62.2135 287.656 62.3047 287.592C62.4004 287.523 62.5645 287.489 62.7969 287.489H66.2559C66.4746 287.489 66.6387 287.535 66.748 287.626C66.8574 287.713 66.9121 287.845 66.9121 288.022C66.9121 288.191 66.8551 288.323 66.7412 288.419C66.6273 288.51 66.4655 288.556 66.2559 288.556H63.1592V290.771Z" fill="white"/>
<path d="M54.8193 316.457C54.8193 317.018 54.9674 317.476 55.2637 317.831C55.5599 318.182 55.9404 318.357 56.4053 318.357C56.8428 318.357 57.2005 318.191 57.4785 317.858C57.7611 317.526 57.9023 317.09 57.9023 316.553C57.9023 315.997 57.7565 315.546 57.4648 315.199C57.1777 314.853 56.8063 314.68 56.3506 314.68C55.9085 314.68 55.5417 314.846 55.25 315.179C54.9629 315.511 54.8193 315.938 54.8193 316.457ZM54.6689 314.639C54.915 314.32 55.1885 314.08 55.4893 313.921C55.79 313.761 56.1182 313.682 56.4736 313.682C57.1937 313.682 57.8044 313.953 58.3057 314.495C58.8115 315.037 59.0645 315.705 59.0645 316.498C59.0645 317.327 58.8206 318.009 58.333 318.542C57.8454 319.075 57.221 319.342 56.46 319.342C55.5622 319.342 54.8421 318.986 54.2998 318.275C53.762 317.56 53.4932 316.607 53.4932 315.418C53.4932 313.868 53.8919 312.624 54.6895 311.686C55.487 310.742 56.5397 310.271 57.8477 310.271C58.2897 310.271 58.5814 310.302 58.7227 310.366C58.8639 310.43 58.9346 310.551 58.9346 310.729C58.9346 311.02 58.6657 311.171 58.1279 311.18C57.7725 311.184 57.4876 311.207 57.2734 311.248C56.5534 311.385 55.9678 311.747 55.5166 312.335C55.07 312.918 54.7874 313.686 54.6689 314.639ZM63.2275 316.457C63.2275 317.018 63.3757 317.476 63.6719 317.831C63.9681 318.182 64.3486 318.357 64.8135 318.357C65.251 318.357 65.6087 318.191 65.8867 317.858C66.1693 317.526 66.3105 317.09 66.3105 316.553C66.3105 315.997 66.1647 315.546 65.873 315.199C65.5859 314.853 65.2145 314.68 64.7588 314.68C64.3167 314.68 63.9499 314.846 63.6582 315.179C63.3711 315.511 63.2275 315.938 63.2275 316.457ZM63.0771 314.639C63.3232 314.32 63.5967 314.08 63.8975 313.921C64.1982 313.761 64.5264 313.682 64.8818 313.682C65.6019 313.682 66.2126 313.953 66.7139 314.495C67.2197 315.037 67.4727 315.705 67.4727 316.498C67.4727 317.327 67.2288 318.009 66.7412 318.542C66.2536 319.075 65.6292 319.342 64.8682 319.342C63.9704 319.342 63.2503 318.986 62.708 318.275C62.1702 317.56 61.9014 316.607 61.9014 315.418C61.9014 313.868 62.3001 312.624 63.0977 311.686C63.8952 310.742 64.9479 310.271 66.2559 310.271C66.6979 310.271 66.9896 310.302 67.1309 310.366C67.2721 310.43 67.3428 310.551 67.3428 310.729C67.3428 311.02 67.0739 311.171 66.5361 311.18C66.1807 311.184 65.8958 311.207 65.6816 311.248C64.9616 311.385 64.376 311.747 63.9248 312.335C63.4782 312.918 63.1956 313.686 63.0771 314.639Z" fill="white"/>
<path d="M54.8193 339.457C54.8193 340.018 54.9674 340.476 55.2637 340.831C55.5599 341.182 55.9404 341.357 56.4053 341.357C56.8428 341.357 57.2005 341.191 57.4785 340.858C57.7611 340.526 57.9023 340.09 57.9023 339.553C57.9023 338.997 57.7565 338.546 57.4648 338.199C57.1777 337.853 56.8063 337.68 56.3506 337.68C55.9085 337.68 55.5417 337.846 55.25 338.179C54.9629 338.511 54.8193 338.938 54.8193 339.457ZM54.6689 337.639C54.915 337.32 55.1885 337.08 55.4893 336.921C55.79 336.761 56.1182 336.682 56.4736 336.682C57.1937 336.682 57.8044 336.953 58.3057 337.495C58.8115 338.037 59.0645 338.705 59.0645 339.498C59.0645 340.327 58.8206 341.009 58.333 341.542C57.8454 342.075 57.221 342.342 56.46 342.342C55.5622 342.342 54.8421 341.986 54.2998 341.275C53.762 340.56 53.4932 339.607 53.4932 338.418C53.4932 336.868 53.8919 335.624 54.6895 334.686C55.487 333.742 56.5397 333.271 57.8477 333.271C58.2897 333.271 58.5814 333.302 58.7227 333.366C58.8639 333.43 58.9346 333.551 58.9346 333.729C58.9346 334.02 58.6657 334.171 58.1279 334.18C57.7725 334.184 57.4876 334.207 57.2734 334.248C56.5534 334.385 55.9678 334.747 55.5166 335.335C55.07 335.918 54.7874 336.686 54.6689 337.639ZM64.7998 341.979C64.7633 342.089 64.7292 342.16 64.6973 342.191C64.6654 342.223 64.6061 342.239 64.5195 342.239H64.4033H63.918C63.8268 342.239 63.7539 342.221 63.6992 342.185C63.6491 342.148 63.624 342.098 63.624 342.034C63.624 341.998 63.6263 341.964 63.6309 341.932C63.64 341.895 63.6514 341.854 63.665 341.809L66.3516 334.515H62.8789C62.8652 334.729 62.8174 334.888 62.7354 334.993C62.6533 335.093 62.5326 335.144 62.373 335.144C62.2181 335.144 62.1019 335.105 62.0244 335.027C61.9515 334.95 61.915 334.829 61.915 334.665C61.915 334.619 61.915 334.585 61.915 334.562C61.9196 334.54 61.9242 334.519 61.9287 334.501L61.9971 333.886C62.0107 333.758 62.0563 333.66 62.1338 333.592C62.2158 333.523 62.3252 333.489 62.4619 333.489H66.9805C67.1126 333.489 67.2083 333.519 67.2676 333.578C67.3314 333.633 67.3633 333.722 67.3633 333.845V334.077C67.3633 334.132 67.3519 334.205 67.3291 334.296C67.3063 334.382 67.2699 334.501 67.2197 334.651L64.7998 341.979Z" fill="white"/>
<path d="M54.8193 362.457C54.8193 363.018 54.9674 363.476 55.2637 363.831C55.5599 364.182 55.9404 364.357 56.4053 364.357C56.8428 364.357 57.2005 364.191 57.4785 363.858C57.7611 363.526 57.9023 363.09 57.9023 362.553C57.9023 361.997 57.7565 361.546 57.4648 361.199C57.1777 360.853 56.8063 360.68 56.3506 360.68C55.9085 360.68 55.5417 360.846 55.25 361.179C54.9629 361.511 54.8193 361.938 54.8193 362.457ZM54.6689 360.639C54.915 360.32 55.1885 360.08 55.4893 359.921C55.79 359.761 56.1182 359.682 56.4736 359.682C57.1937 359.682 57.8044 359.953 58.3057 360.495C58.8115 361.037 59.0645 361.705 59.0645 362.498C59.0645 363.327 58.8206 364.009 58.333 364.542C57.8454 365.075 57.221 365.342 56.46 365.342C55.5622 365.342 54.8421 364.986 54.2998 364.275C53.762 363.56 53.4932 362.607 53.4932 361.418C53.4932 359.868 53.8919 358.624 54.6895 357.686C55.487 356.742 56.5397 356.271 57.8477 356.271C58.2897 356.271 58.5814 356.302 58.7227 356.366C58.8639 356.43 58.9346 356.551 58.9346 356.729C58.9346 357.02 58.6657 357.171 58.1279 357.18C57.7725 357.184 57.4876 357.207 57.2734 357.248C56.5534 357.385 55.9678 357.747 55.5166 358.335C55.07 358.918 54.7874 359.686 54.6689 360.639ZM63.0361 362.765C63.0361 363.248 63.1865 363.64 63.4873 363.94C63.7926 364.241 64.196 364.392 64.6973 364.392C65.2031 364.392 65.6064 364.246 65.9072 363.954C66.2126 363.662 66.3652 363.275 66.3652 362.792C66.3652 362.318 66.2103 361.935 65.9004 361.644C65.5905 361.347 65.1895 361.199 64.6973 361.199C64.2096 361.199 63.8109 361.345 63.501 361.637C63.1911 361.924 63.0361 362.3 63.0361 362.765ZM63.1045 358.69C63.1045 359.142 63.2526 359.511 63.5488 359.798C63.8496 360.085 64.2324 360.229 64.6973 360.229C65.1667 360.229 65.5495 360.085 65.8457 359.798C66.1465 359.506 66.2969 359.132 66.2969 358.677C66.2969 358.239 66.1465 357.879 65.8457 357.597C65.5495 357.31 65.1667 357.166 64.6973 357.166C64.2279 357.166 63.8451 357.31 63.5488 357.597C63.2526 357.879 63.1045 358.244 63.1045 358.69ZM63.3301 360.693C62.888 360.475 62.5553 360.199 62.332 359.866C62.1087 359.529 61.9971 359.137 61.9971 358.69C61.9971 357.984 62.25 357.405 62.7559 356.954C63.2617 356.498 63.9089 356.271 64.6973 356.271C65.472 356.271 66.1169 356.498 66.6318 356.954C67.1468 357.41 67.4043 357.966 67.4043 358.622C67.4043 359.11 67.2949 359.522 67.0762 359.859C66.8574 360.197 66.5179 360.475 66.0576 360.693C66.5179 360.88 66.8711 361.156 67.1172 361.521C67.3633 361.881 67.4863 362.304 67.4863 362.792C67.4863 363.544 67.2266 364.157 66.707 364.631C66.1921 365.105 65.5221 365.342 64.6973 365.342C63.8724 365.342 63.2025 365.103 62.6875 364.624C62.1725 364.146 61.915 363.526 61.915 362.765C61.915 362.3 62.0381 361.887 62.2842 361.527C62.5303 361.163 62.8789 360.885 63.3301 360.693Z" fill="white"/>
<path d="M54.8193 385.457C54.8193 386.018 54.9674 386.476 55.2637 386.831C55.5599 387.182 55.9404 387.357 56.4053 387.357C56.8428 387.357 57.2005 387.191 57.4785 386.858C57.7611 386.526 57.9023 386.09 57.9023 385.553C57.9023 384.997 57.7565 384.546 57.4648 384.199C57.1777 383.853 56.8063 383.68 56.3506 383.68C55.9085 383.68 55.5417 383.846 55.25 384.179C54.9629 384.511 54.8193 384.938 54.8193 385.457ZM54.6689 383.639C54.915 383.32 55.1885 383.08 55.4893 382.921C55.79 382.761 56.1182 382.682 56.4736 382.682C57.1937 382.682 57.8044 382.953 58.3057 383.495C58.8115 384.037 59.0645 384.705 59.0645 385.498C59.0645 386.327 58.8206 387.009 58.333 387.542C57.8454 388.075 57.221 388.342 56.46 388.342C55.5622 388.342 54.8421 387.986 54.2998 387.275C53.762 386.56 53.4932 385.607 53.4932 384.418C53.4932 382.868 53.8919 381.624 54.6895 380.686C55.487 379.742 56.5397 379.271 57.8477 379.271C58.2897 379.271 58.5814 379.302 58.7227 379.366C58.8639 379.43 58.9346 379.551 58.9346 379.729C58.9346 380.02 58.6657 380.171 58.1279 380.18C57.7725 380.184 57.4876 380.207 57.2734 380.248C56.5534 380.385 55.9678 380.747 55.5166 381.335C55.07 381.918 54.7874 382.686 54.6689 383.639ZM66.2559 383.987C66.0098 384.302 65.7386 384.536 65.4424 384.691C65.1462 384.846 64.8203 384.924 64.4648 384.924C63.7448 384.924 63.1318 384.655 62.626 384.117C62.1247 383.575 61.874 382.91 61.874 382.121C61.874 381.292 62.1156 380.61 62.5986 380.077C63.0863 379.539 63.7083 379.271 64.4648 379.271C65.3581 379.271 66.0781 379.631 66.625 380.351C67.1719 381.066 67.4453 382.016 67.4453 383.201C67.4453 384.764 67.0443 386.013 66.2422 386.947C65.4447 387.877 64.376 388.342 63.0361 388.342C62.6123 388.342 62.3298 388.31 62.1885 388.246C62.0518 388.182 61.9834 388.064 61.9834 387.891C61.9834 387.599 62.2546 387.446 62.7969 387.433C63.1569 387.424 63.4417 387.398 63.6514 387.357C64.3714 387.225 64.9548 386.868 65.4014 386.284C65.8525 385.701 66.1374 384.935 66.2559 383.987ZM66.1123 382.155C66.1123 381.59 65.9619 381.132 65.6611 380.781C65.3649 380.426 64.9844 380.248 64.5195 380.248C64.0775 380.248 63.7197 380.414 63.4463 380.747C63.1729 381.08 63.0361 381.515 63.0361 382.053C63.0361 382.609 63.1797 383.062 63.4668 383.413C63.7539 383.759 64.123 383.933 64.5742 383.933C65.0163 383.933 65.3831 383.766 65.6748 383.434C65.9665 383.096 66.1123 382.67 66.1123 382.155Z" fill="white"/>
<path d="M56.3916 410.979C56.3551 411.089 56.321 411.16 56.2891 411.191C56.2572 411.223 56.1979 411.239 56.1113 411.239H55.9951H55.5098C55.4186 411.239 55.3457 411.221 55.291 411.185C55.2409 411.148 55.2158 411.098 55.2158 411.034C55.2158 410.998 55.2181 410.964 55.2227 410.932C55.2318 410.895 55.2432 410.854 55.2568 410.809L57.9434 403.515H54.4707C54.457 403.729 54.4092 403.888 54.3271 403.993C54.2451 404.093 54.1243 404.144 53.9648 404.144C53.8099 404.144 53.6937 404.105 53.6162 404.027C53.5433 403.95 53.5068 403.829 53.5068 403.665C53.5068 403.619 53.5068 403.585 53.5068 403.562C53.5114 403.54 53.516 403.519 53.5205 403.501L53.5889 402.886C53.6025 402.758 53.6481 402.66 53.7256 402.592C53.8076 402.523 53.917 402.489 54.0537 402.489H58.5723C58.7044 402.489 58.8001 402.519 58.8594 402.578C58.9232 402.633 58.9551 402.722 58.9551 402.845V403.077C58.9551 403.132 58.9437 403.205 58.9209 403.296C58.8981 403.382 58.8617 403.501 58.8115 403.651L56.3916 410.979ZM64.6973 403.248C64.1732 403.248 63.7653 403.558 63.4736 404.178C63.182 404.798 63.0361 405.673 63.0361 406.803C63.0361 407.938 63.182 408.817 63.4736 409.441C63.7653 410.061 64.1732 410.371 64.6973 410.371C65.2259 410.371 65.6361 410.061 65.9277 409.441C66.2194 408.817 66.3652 407.938 66.3652 406.803C66.3652 405.673 66.2194 404.798 65.9277 404.178C65.6361 403.558 65.2259 403.248 64.6973 403.248ZM64.6973 411.342C63.8405 411.342 63.1592 410.938 62.6533 410.132C62.152 409.321 61.9014 408.211 61.9014 406.803C61.9014 405.399 62.152 404.294 62.6533 403.487C63.1592 402.676 63.8405 402.271 64.6973 402.271C65.554 402.271 66.2354 402.676 66.7412 403.487C67.2471 404.299 67.5 405.404 67.5 406.803C67.5 408.202 67.2471 409.309 66.7412 410.125C66.2354 410.936 65.554 411.342 64.6973 411.342Z" fill="white"/>
<path d="M56.3916 433.979C56.3551 434.089 56.321 434.16 56.2891 434.191C56.2572 434.223 56.1979 434.239 56.1113 434.239H55.9951H55.5098C55.4186 434.239 55.3457 434.221 55.291 434.185C55.2409 434.148 55.2158 434.098 55.2158 434.034C55.2158 433.998 55.2181 433.964 55.2227 433.932C55.2318 433.895 55.2432 433.854 55.2568 433.809L57.9434 426.515H54.4707C54.457 426.729 54.4092 426.888 54.3271 426.993C54.2451 427.093 54.1243 427.144 53.9648 427.144C53.8099 427.144 53.6937 427.105 53.6162 427.027C53.5433 426.95 53.5068 426.829 53.5068 426.665C53.5068 426.619 53.5068 426.585 53.5068 426.562C53.5114 426.54 53.516 426.519 53.5205 426.501L53.5889 425.886C53.6025 425.758 53.6481 425.66 53.7256 425.592C53.8076 425.523 53.917 425.489 54.0537 425.489H58.5723C58.7044 425.489 58.8001 425.519 58.8594 425.578C58.9232 425.633 58.9551 425.722 58.9551 425.845V426.077C58.9551 426.132 58.9437 426.205 58.9209 426.296C58.8981 426.382 58.8617 426.501 58.8115 426.651L56.3916 433.979ZM63.0635 426.781C63.0042 426.79 62.9587 426.797 62.9268 426.802C62.8994 426.806 62.8743 426.809 62.8516 426.809C62.7103 426.809 62.5941 426.77 62.5029 426.692C62.4163 426.61 62.373 426.503 62.373 426.371C62.373 426.262 62.4118 426.166 62.4893 426.084C62.5667 426.002 62.6784 425.94 62.8242 425.899L64.8545 425.353C64.9046 425.339 64.9525 425.33 64.998 425.325C65.0482 425.316 65.0983 425.312 65.1484 425.312C65.235 425.312 65.3034 425.353 65.3535 425.435C65.4036 425.512 65.4287 425.619 65.4287 425.756V433.152H66.5225C66.9281 433.152 67.1855 433.187 67.2949 433.255C67.4043 433.319 67.459 433.442 67.459 433.624C67.459 433.788 67.4134 433.911 67.3223 433.993C67.2311 434.075 67.0944 434.116 66.9121 434.116H62.8242C62.6419 434.116 62.5052 434.075 62.4141 433.993C62.3229 433.911 62.2773 433.788 62.2773 433.624C62.2773 433.442 62.332 433.319 62.4414 433.255C62.5508 433.187 62.8083 433.152 63.2139 433.152H64.3486V426.474L63.0635 426.781Z" fill="white"/>
<path d="M56.3916 456.979C56.3551 457.089 56.321 457.16 56.2891 457.191C56.2572 457.223 56.1979 457.239 56.1113 457.239H55.9951H55.5098C55.4186 457.239 55.3457 457.221 55.291 457.185C55.2409 457.148 55.2158 457.098 55.2158 457.034C55.2158 456.998 55.2181 456.964 55.2227 456.932C55.2318 456.895 55.2432 456.854 55.2568 456.809L57.9434 449.515H54.4707C54.457 449.729 54.4092 449.888 54.3271 449.993C54.2451 450.093 54.1243 450.144 53.9648 450.144C53.8099 450.144 53.6937 450.105 53.6162 450.027C53.5433 449.95 53.5068 449.829 53.5068 449.665C53.5068 449.619 53.5068 449.585 53.5068 449.562C53.5114 449.54 53.516 449.519 53.5205 449.501L53.5889 448.886C53.6025 448.758 53.6481 448.66 53.7256 448.592C53.8076 448.523 53.917 448.489 54.0537 448.489H58.5723C58.7044 448.489 58.8001 448.519 58.8594 448.578C58.9232 448.633 58.9551 448.722 58.9551 448.845V449.077C58.9551 449.132 58.9437 449.205 58.9209 449.296C58.8981 449.382 58.8617 449.501 58.8115 449.651L56.3916 456.979ZM62.3184 457.116C62.0768 457.116 61.8968 457.068 61.7783 456.973C61.6644 456.872 61.6074 456.72 61.6074 456.515C61.6074 456.218 62.0449 455.662 62.9199 454.847L63.1182 454.655C63.2503 454.528 63.4417 454.345 63.6924 454.108C65.2692 452.623 66.0576 451.54 66.0576 450.861C66.0576 450.374 65.9186 449.979 65.6406 449.679C65.3626 449.373 65.0026 449.221 64.5605 449.221C64.2734 449.221 63.9977 449.28 63.7334 449.398C63.4736 449.517 63.264 449.676 63.1045 449.877C63.0771 449.913 63.0339 449.975 62.9746 450.062C62.806 450.367 62.6169 450.52 62.4072 450.52C62.2432 450.52 62.127 450.469 62.0586 450.369C61.9902 450.269 61.9561 450.077 61.9561 449.795C61.9561 449.631 61.972 449.512 62.0039 449.439C62.0358 449.362 62.0951 449.28 62.1816 449.193C62.4733 448.911 62.8333 448.688 63.2617 448.523C63.6947 448.355 64.1367 448.271 64.5879 448.271C65.3444 448.271 65.9756 448.514 66.4814 449.002C66.9919 449.49 67.2471 450.089 67.2471 450.8C67.2471 451.693 66.4723 452.88 64.9229 454.361C64.5264 454.73 64.2233 455.02 64.0137 455.229L63.1729 456.036H66.2969C66.3151 455.84 66.3675 455.692 66.4541 455.592C66.5452 455.487 66.666 455.435 66.8164 455.435C66.9668 455.435 67.0853 455.485 67.1719 455.585C67.2585 455.685 67.3018 455.822 67.3018 455.995C67.3018 456.009 67.2995 456.034 67.2949 456.07C67.2904 456.102 67.2881 456.125 67.2881 456.139L67.2334 456.665C67.2197 456.806 67.1787 456.918 67.1104 457C67.042 457.077 66.9531 457.116 66.8438 457.116H62.3184Z" fill="white"/>
<path opacity="0.5" d="M92.5 21.1162L91.941 457" stroke="#ABB8FF"/>
<path opacity="0.5" d="M114.5 21.1162L113.941 457" stroke="#ABB8FF"/>
<path opacity="0.5" d="M137.5 21.1162L136.941 457" stroke="#ABB8FF"/>
</svg>
